<?xml version="1.0" encoding="UTF-8" standalone="no"?>
<svg
   xmlns:dc="http://purl.org/dc/elements/1.1/"
   xmlns:cc="http://creativecommons.org/ns#"
   xmlns:rdf="http://www.w3.org/1999/02/22-rdf-syntax-ns#"
   xmlns:svg="http://www.w3.org/2000/svg"
   xmlns="http://www.w3.org/2000/svg"
   id="svg8"
   version="1.1"
   viewBox="0 0 8.7562656 12.482614"
   height="12.482614mm"
   width="8.7562656mm">
  <defs
     id="defs2" />
  <metadata
     id="metadata5">
    <rdf:RDF>
      <cc:Work
         rdf:about="">
        <dc:format>image/svg+xml</dc:format>
        <dc:type
           rdf:resource="http://purl.org/dc/dcmitype/StillImage" />
        <dc:title></dc:title>
      </cc:Work>
    </rdf:RDF>
  </metadata>
  <g
     transform="translate(-29.805167,-101.50428)"
     id="layer1">
    <g
       id="g5127">
      <path
         style="fill:#c87137;stroke:#000000;stroke-width:0.25638732"
         d="m 29.933361,102.27705 c 0,0 0.19489,-0.16708 0.616304,-0.16708 0.421412,0 0.616303,0.16708 0.616303,0.16708 v 11.13864 c 0,0 -0.192782,0.16708 -0.616303,0.16708 -0.423521,0 -0.616304,-0.16708 -0.616304,-0.16708 z"
         id="rect20" />
      <path
         id="path23"
         d="m 31.165968,102.01612 c 0,0 0.194891,-0.17495 0.616302,-0.17495 0.421414,0 0.616305,0.17495 0.616305,0.17495 v 11.66353 c 0,0 -0.192784,0.17495 -0.616305,0.17495 -0.423518,0 -0.616302,-0.17495 -0.616302,-0.17495 z"
         style="fill:#a05a2c;stroke:#000000;stroke-width:0.26235861" />
      <path
         id="path35"
         d="m 32.398575,101.8145 c 0,0 0.194891,-0.17793 0.616302,-0.17793 0.421415,0 0.616305,0.17793 0.616305,0.17793 v 11.86217 c 0,0 -0.192784,0.17793 -0.616305,0.17793 -0.42352,0 -0.616302,-0.17793 -0.616302,-0.17793 z"
         style="fill:#c87137;stroke:#000000;stroke-width:0.26458332" />
      <path
         style="fill:#a05a2c;stroke:#000000;stroke-width:0.26458332"
         d="m 33.631182,101.8145 c 0,0 0.177207,-0.17793 0.560384,-0.17793 0.383176,0 0.560386,0.17793 0.560386,0.17793 v 11.86217 c 0,0 -0.175293,0.17793 -0.560386,0.17793 -0.385093,0 -0.560384,-0.17793 -0.560384,-0.17793 z"
         id="path37" />
      <path
         id="path39"
         d="m 34.751952,101.8145 c 0,0 0.194889,-0.17793 0.616302,-0.17793 0.421414,0 0.616303,0.17793 0.616303,0.17793 v 11.86217 c 0,0 -0.192782,0.17793 -0.616303,0.17793 -0.42352,0 -0.616302,-0.17793 -0.616302,-0.17793 z"
         style="fill:#c87137;stroke:#000000;stroke-width:0.26458332" />
      <path
         style="fill:#a05a2c;stroke:#000000;stroke-width:0.25843966"
         d="m 35.984557,101.9338 c 0,0 0.194891,-0.16977 0.616305,-0.16977 0.421412,0 0.616302,0.16977 0.616302,0.16977 v 11.31768 c 0,0 -0.192782,0.16977 -0.616302,0.16977 -0.423521,0 -0.616305,-0.16977 -0.616305,-0.16977 z"
         id="path41" />
      <path
         style="fill:#c87137;stroke:#000000;stroke-width:0.2554186"
         d="m 37.233212,102.13846 c 0,0 0.189817,-0.17025 0.600257,-0.17025 0.41044,0 0.600255,0.17025 0.600255,0.17025 v 11.35017 c 0,0 -0.187762,0.17026 -0.600255,0.17026 -0.412495,0 -0.600257,-0.17026 -0.600257,-0.17026 z"
         id="path43" />
      <path
         style="fill:#a05a2c;stroke:#000000;stroke-width:0.1;stroke-miterlimit:4;stroke-dasharray:none"
         d="m 34.7099,107.66395 c 0,0.28953 -0.234711,0.52424 -0.52424,0.52424 -0.289529,0 -0.524239,-0.23471 -0.524239,-0.52424 0,-0.28952 0.23471,-0.52423 0.524239,-0.52423 0.289529,0 0.52424,0.23471 0.52424,0.52423 z"
         id="path47" />
      <path
         id="path50"
         d="m 34.552601,107.66395 c 0,0.20266 -0.164286,0.36695 -0.366941,0.36695 -0.202654,0 -0.36694,-0.16429 -0.36694,-0.36695 0,-0.20265 0.164286,-0.36694 0.36694,-0.36694 0.202655,0 0.366941,0.16429 0.366941,0.36694 z"
         style="fill:#c87137;stroke:#000000;stroke-width:0.08302312;stroke-miterlimit:4;stroke-dasharray:none" />
      <path
         style="fill:#c87137;stroke:#000000;stroke-width:0.0208912"
         d="m 34.451274,107.66395 c 0,0.1467 -0.118918,0.26562 -0.265614,0.26562 -0.146695,0 -0.265615,-0.11892 -0.265615,-0.26562 0,-0.14669 0.11892,-0.26561 0.265615,-0.26561 0.146696,0 0.265614,0.11892 0.265614,0.26561 z"
         id="path52" />
    </g>
  </g>
</svg>
