<?xml version="1.0" encoding="UTF-8" standalone="no"?>
<!-- Created with Inkscape (http://www.inkscape.org/) -->

<svg
   xmlns:dc="http://purl.org/dc/elements/1.1/"
   xmlns:cc="http://creativecommons.org/ns#"
   xmlns:rdf="http://www.w3.org/1999/02/22-rdf-syntax-ns#"
   xmlns:svg="http://www.w3.org/2000/svg"
   xmlns="http://www.w3.org/2000/svg"
   xmlns:sodipodi="http://sodipodi.sourceforge.net/DTD/sodipodi-0.dtd"
   xmlns:inkscape="http://www.inkscape.org/namespaces/inkscape"
   width="210mm"
   height="297mm"
   viewBox="0 0 210 297"
   version="1.1"
   id="svg8"
   inkscape:version="0.92.4 (5da689c313, 2019-01-14)"
   sodipodi:docname="boats.svg">
  <defs
     id="defs2" />
  <sodipodi:namedview
     id="base"
     pagecolor="#ffffff"
     bordercolor="#666666"
     borderopacity="1.0"
     inkscape:pageopacity="0.0"
     inkscape:pageshadow="2"
     inkscape:zoom="2.8"
     inkscape:cx="10.272129"
     inkscape:cy="916.64984"
     inkscape:document-units="mm"
     inkscape:current-layer="layer1"
     showgrid="false"
     inkscape:lockguides="true"
     showguides="false"
     inkscape:window-width="1920"
     inkscape:window-height="1017"
     inkscape:window-x="-8"
     inkscape:window-y="-8"
     inkscape:window-maximized="1" />
  <metadata
     id="metadata5">
    <rdf:RDF>
      <cc:Work
         rdf:about="">
        <dc:format>image/svg+xml</dc:format>
        <dc:type
           rdf:resource="http://purl.org/dc/dcmitype/StillImage" />
        <dc:title></dc:title>
      </cc:Work>
    </rdf:RDF>
  </metadata>
  <g
     inkscape:label="Layer 1"
     inkscape:groupmode="layer"
     id="layer1">
    <g
       id="g4948">
      <path
         sodipodi:nodetypes="czzcczzc"
         inkscape:connector-curvature="0"
         id="rect54"
         d="m 30.740005,58.48922 c 0,0 1.494926,1.81459 2.092807,3.60768 0.597877,1.79308 1.070128,2.63206 1.225879,5.52266 0.155755,2.8906 -0.853377,12.34864 -0.853377,12.34864 h -4.930616 c 0,0 -1.009132,-9.45804 -0.853377,-12.34864 0.155751,-2.8906 0.628002,-3.72958 1.225879,-5.52266 0.597881,-1.79309 2.092805,-3.60768 2.092805,-3.60768 z"
         style="fill:#c87137;stroke:#000000;stroke-width:0.255;stroke-miterlimit:4;stroke-dasharray:none" />
      <path
         style="fill:#d45500;stroke:#000000;stroke-width:0.255;stroke-miterlimit:4;stroke-dasharray:none"
         d="m 30.740005,58.96354 c 0,0 1.339601,1.62606 1.875362,3.23284 0.535758,1.60678 0.958941,2.35859 1.098506,4.94886 h -5.947739 c 0.139574,-2.59027 0.562753,-3.34208 1.098515,-4.94886 0.535757,-1.60678 1.875356,-3.23284 1.875356,-3.23284 z"
         id="path4568"
         inkscape:connector-curvature="0"
         sodipodi:nodetypes="czcczc" />
      <path
         style="fill:#aa4400;stroke:#000000;stroke-width:0.22440343;stroke-miterlimit:4;stroke-dasharray:none"
         d="m 33.660492,67.92694 c 0.137067,2.54377 -0.750981,11.30042 -0.750981,11.30042 H 28.5705 c 0,0 -0.888047,-8.75665 -0.750984,-11.30042 z"
         id="path4570"
         inkscape:connector-curvature="0"
         sodipodi:nodetypes="ccccc" />
      <path
         sodipodi:nodetypes="scscs"
         inkscape:connector-curvature="0"
         style="fill:#a05a2c;stroke:#000000;stroke-width:0.1690838"
         d="m 31.502585,69.22971 c 2e-6,0.35857 -0.290672,0.64924 -0.649236,0.64924 -0.358563,0 -0.649235,-0.29068 -0.649234,-0.64924 10e-7,-0.35856 0.290673,-0.64923 0.649234,-0.64923 0.358562,0 0.649235,0.29067 0.649236,0.64923 z"
         id="path4572" />
      <path
         id="path4574"
         d="m 31.400702,69.22971 c 0,0.3023 -0.245058,0.54735 -0.547353,0.54735 -0.302295,0 -0.547354,-0.24505 -0.547354,-0.54735 0,-0.30229 0.245059,-0.54735 0.547354,-0.54735 0.302295,0 0.547353,0.24506 0.547353,0.54735 z"
         style="fill:#c87137;stroke:#000000;stroke-width:0.06675909"
         inkscape:connector-curvature="0"
         sodipodi:nodetypes="sssss" />
      <path
         sodipodi:nodetypes="sssss"
         inkscape:connector-curvature="0"
         style="fill:#c87137;stroke:#000000;stroke-width:0.01335067"
         d="m 31.182295,69.22971 c 0,0.18167 -0.147277,0.32895 -0.328946,0.32895 -0.181672,0 -0.328946,-0.14728 -0.328946,-0.32895 0,-0.18167 0.147274,-0.32894 0.328946,-0.32894 0.181669,0 0.328946,0.14727 0.328946,0.32894 z"
         id="path4576" />
    </g>
    <path
       style="fill:#552200;fill-opacity:1;stroke:#000000;stroke-width:0.22674716;stroke-miterlimit:4;stroke-dasharray:none"
       d="m 75.519064,59.411477 c 0.520376,2.056684 3.229802,4.432831 4.343733,8.034286 1.113949,3.601455 1.404029,8.916997 1.404029,13.412139 0,4.495141 -0.29008,9.810682 -1.404029,13.412136 -1.113931,3.601456 -3.823357,5.977602 -4.343733,8.034282 h -1.510179 c -0.520376,-2.05668 -3.229803,-4.432826 -4.343733,-8.034282 -1.113948,-3.601454 -1.404029,-8.916995 -1.404029,-13.412136 0,-4.495142 0.290081,-9.810684 1.404029,-13.412139 1.11393,-3.601455 3.823357,-5.977602 4.343733,-8.034286 z"
       id="path4591"
       inkscape:connector-curvature="0"
       sodipodi:nodetypes="czzzcczzzcc" />
    <path
       style="fill:#aa4400;fill-opacity:1;stroke:#000000;stroke-width:0.255;stroke-miterlimit:4;stroke-dasharray:none"
       d="m 68.988268,67.543075 h 11.405966 v 0.644052 H 68.988268 Z"
       id="rect4594"
       inkscape:connector-curvature="0"
       sodipodi:nodetypes="ccccc" />
    <path
       style="fill:#aa4400;fill-opacity:1;stroke:#000000;stroke-width:0.27291453;stroke-miterlimit:4;stroke-dasharray:none"
       d="m 68.158811,71.760584 h 13.064868 v 0.644052 H 68.158811 Z"
       id="rect4596"
       inkscape:connector-curvature="0"
       sodipodi:nodetypes="ccccc" />
    <path
       style="fill:#aa4400;fill-opacity:1;stroke:#000000;stroke-width:0.2769157;stroke-miterlimit:4;stroke-dasharray:none"
       d="m 67.965865,76.123518 h 13.450764 v 0.644053 H 67.965865 Z"
       id="rect4598"
       inkscape:connector-curvature="0"
       sodipodi:nodetypes="ccccc" />
    <path
       style="fill:#aa4400;fill-opacity:1;stroke:#000000;stroke-width:0.2769157;stroke-miterlimit:4;stroke-dasharray:none"
       d="m 67.965865,80.195595 h 13.450764 v 0.644053 H 67.965865 Z"
       id="rect4600"
       inkscape:connector-curvature="0"
       sodipodi:nodetypes="ccccc" />
    <path
       style="fill:#aa4400;fill-opacity:1;stroke:#000000;stroke-width:0.2769157;stroke-miterlimit:4;stroke-dasharray:none"
       d="m 67.965865,84.350774 h 13.450764 v 0.644052 H 67.965865 Z"
       id="rect4602"
       inkscape:connector-curvature="0"
       sodipodi:nodetypes="ccccc" />
    <path
       style="fill:#aa4400;fill-opacity:1;stroke:#000000;stroke-width:0.2769157;stroke-miterlimit:4;stroke-dasharray:none"
       d="m 67.965865,88.505951 h 13.450764 v 0.644052 H 67.965865 Z"
       id="rect4604"
       inkscape:connector-curvature="0"
       sodipodi:nodetypes="ccccc" />
    <path
       style="fill:#aa4400;fill-opacity:1;stroke:#000000;stroke-width:0.25731975;stroke-miterlimit:4;stroke-dasharray:none"
       d="m 68.884025,93.450609 h 11.614434 v 0.644053 H 68.884025 Z"
       id="rect4606"
       inkscape:connector-curvature="0"
       sodipodi:nodetypes="ccccc" />
    <path
       style="fill:#803300;fill-opacity:1;stroke:#000000;stroke-width:0.255;stroke-miterlimit:4;stroke-dasharray:none"
       d="m 74.310082,52.484348 c -0.0924,0.0078 -0.215197,0.07522 -0.395393,0.255414 -0.576623,0.576626 0.585228,1.730494 0,4.043442 -0.585216,2.31295 -3.631935,4.985173 -4.884671,9.035371 -1.252744,4.050199 -1.579293,10.028254 -1.579293,15.083497 0,5.055238 0.326549,11.032838 1.579293,15.083037 1.252736,4.050201 4.299455,6.722421 4.884671,9.035371 0.585228,2.31295 -0.576623,3.46726 0,4.04389 0.576629,0.57664 0.56635,0 0.84941,0 0.283054,0 0.272331,0.57664 0.848956,0 0.576627,-0.57663 -0.585227,-1.73094 0,-4.04389 0.585218,-2.31295 3.632392,-4.98517 4.885126,-9.035371 1.252745,-4.050199 1.578839,-10.027799 1.578839,-15.083037 0,-5.055243 -0.326094,-11.033298 -1.578839,-15.083497 -1.252734,-4.050198 -4.299908,-6.722421 -4.885126,-9.035371 -0.585227,-2.312948 0.576627,-3.466816 0,-4.043442 -0.576625,-0.576626 -0.565902,0 -0.848956,0 -0.194605,0 -0.250741,-0.272448 -0.454017,-0.255414 z m -0.301316,6.971155 h 1.510212 c 0.520377,2.056685 3.229921,4.432714 4.343851,8.034169 1.113949,3.601454 1.403867,8.917256 1.403867,13.4124 0,4.49514 -0.289918,9.810487 -1.403867,13.411941 -1.11393,3.601456 -3.823474,5.977487 -4.343851,8.034167 H 74.008766 C 73.48839,100.2915 70.7793,97.915469 69.66537,94.314013 68.551422,90.712559 68.26105,85.397212 68.26105,80.902072 c 0,-4.495144 0.290372,-9.810946 1.40432,-13.4124 1.11393,-3.601455 3.82302,-5.977484 4.343396,-8.034169 z"
       id="rect4583"
       inkscape:connector-curvature="0"
       sodipodi:nodetypes="ccccscccscccsccssccccsccccscc" />
    <path
       style="fill:#aa4400;fill-opacity:1;stroke:#000000;stroke-width:0.255;stroke-miterlimit:4;stroke-dasharray:none"
       d="m 74.065531,90.44469 0.114374,0.51641 -16.121765,3.570575 -0.114373,-0.51641 z"
       id="rect4610"
       inkscape:connector-curvature="0"
       sodipodi:nodetypes="ccccc" />
    <path
       sodipodi:nodetypes="ccccc"
       inkscape:connector-curvature="0"
       id="path4613"
       d="m 73.192941,85.666234 0.114374,0.51641 -16.121765,3.570575 -0.114373,-0.51641 z"
       style="fill:#aa4400;fill-opacity:1;stroke:#000000;stroke-width:0.255;stroke-miterlimit:4;stroke-dasharray:none" />
    <path
       style="fill:#aa4400;fill-opacity:1;stroke:#000000;stroke-width:0.255;stroke-miterlimit:4;stroke-dasharray:none"
       d="m 73.068286,81.511056 0.114374,0.51641 -16.121764,3.570575 -0.114374,-0.51641 z"
       id="path4615"
       inkscape:connector-curvature="0"
       sodipodi:nodetypes="ccccc" />
    <path
       sodipodi:nodetypes="ccccc"
       inkscape:connector-curvature="0"
       id="path4617"
       d="m 73.026732,77.272774 0.114374,0.51641 -16.121765,3.570576 -0.114373,-0.51641 z"
       style="fill:#aa4400;fill-opacity:1;stroke:#000000;stroke-width:0.255;stroke-miterlimit:4;stroke-dasharray:none" />
    <path
       style="fill:#aa4400;fill-opacity:1;stroke:#000000;stroke-width:0.255;stroke-miterlimit:4;stroke-dasharray:none"
       d="m 72.694314,72.618972 0.114374,0.516411 -16.121764,3.570576 -0.114373,-0.51641 z"
       id="path4619"
       inkscape:connector-curvature="0"
       sodipodi:nodetypes="ccccc" />
    <path
       sodipodi:nodetypes="ccccc"
       inkscape:connector-curvature="0"
       id="path4621"
       d="m 72.860522,68.713104 0.114374,0.51641 -16.121763,3.570576 -0.114374,-0.51641 z"
       style="fill:#aa4400;fill-opacity:1;stroke:#000000;stroke-width:0.255;stroke-miterlimit:4;stroke-dasharray:none" />
    <path
       sodipodi:nodetypes="ccccc"
       inkscape:connector-curvature="0"
       id="path4635"
       d="m 75.736995,90.44469 -0.114374,0.51641 16.121763,3.570575 0.114374,-0.51641 z"
       style="fill:#aa4400;fill-opacity:1;stroke:#000000;stroke-width:0.255;stroke-miterlimit:4;stroke-dasharray:none" />
    <path
       style="fill:#aa4400;fill-opacity:1;stroke:#000000;stroke-width:0.255;stroke-miterlimit:4;stroke-dasharray:none"
       d="m 76.609584,85.666234 -0.114373,0.51641 16.121763,3.570575 0.114374,-0.51641 z"
       id="path4637"
       inkscape:connector-curvature="0"
       sodipodi:nodetypes="ccccc" />
    <path
       sodipodi:nodetypes="ccccc"
       inkscape:connector-curvature="0"
       id="path4639"
       d="m 76.734238,81.511056 -0.114374,0.51641 16.121765,3.570575 0.114373,-0.51641 z"
       style="fill:#aa4400;fill-opacity:1;stroke:#000000;stroke-width:0.255;stroke-miterlimit:4;stroke-dasharray:none" />
    <path
       style="fill:#aa4400;fill-opacity:1;stroke:#000000;stroke-width:0.255;stroke-miterlimit:4;stroke-dasharray:none"
       d="m 76.775793,77.272774 -0.114374,0.51641 16.121764,3.570576 0.114373,-0.51641 z"
       id="path4641"
       inkscape:connector-curvature="0"
       sodipodi:nodetypes="ccccc" />
    <path
       sodipodi:nodetypes="ccccc"
       inkscape:connector-curvature="0"
       id="path4643"
       d="m 77.108211,72.618972 -0.114374,0.516411 16.121766,3.570576 0.11437,-0.51641 z"
       style="fill:#aa4400;fill-opacity:1;stroke:#000000;stroke-width:0.255;stroke-miterlimit:4;stroke-dasharray:none" />
    <path
       style="fill:#aa4400;fill-opacity:1;stroke:#000000;stroke-width:0.255;stroke-miterlimit:4;stroke-dasharray:none"
       d="m 76.942001,68.713104 -0.114373,0.51641 16.121764,3.570576 0.114371,-0.51641 z"
       id="path4645"
       inkscape:connector-curvature="0"
       sodipodi:nodetypes="ccccc" />
    <path
       inkscape:connector-curvature="0"
       style="fill:#a05a2c;stroke:#000000;stroke-width:0.1690838"
       d="m 76.224329,80.423938 c 0,0.777749 -0.630492,1.408239 -1.408241,1.408236 -0.77775,3e-6 -1.408242,-0.630487 -1.408242,-1.408236 -1e-6,-0.777749 0.630491,-1.408239 1.408242,-1.408236 0.777749,-3e-6 1.408241,0.630487 1.408241,1.408236 z"
       id="path4647"
       sodipodi:nodetypes="scscs" />
    <path
       id="path4649"
       d="m 76.003338,80.423938 c 0,0.655701 -0.531553,1.187251 -1.18725,1.187251 -0.655707,0 -1.187252,-0.53155 -1.187252,-1.187251 0,-0.6557 0.531545,-1.187252 1.187252,-1.187252 0.655697,0 1.18725,0.531552 1.18725,1.187252 z"
       style="fill:#c87137;stroke:#000000;stroke-width:0.06675909"
       inkscape:connector-curvature="0"
       sodipodi:nodetypes="sssss" />
    <path
       sodipodi:nodetypes="sssss"
       inkscape:connector-curvature="0"
       style="fill:#c87137;stroke:#000000;stroke-width:0.01335067"
       d="m 75.529591,80.423938 c 0,0.394059 -0.319454,0.713507 -0.713503,0.713507 -0.39406,0 -0.713514,-0.319448 -0.713514,-0.713507 0,-0.394059 0.319454,-0.713507 0.713514,-0.713507 0.394049,0 0.713503,0.319448 0.713503,0.713507 z"
       id="path4651" />
    <path
       style="fill:#502d16;fill-opacity:1;stroke:#000000;stroke-width:0.255;stroke-miterlimit:4;stroke-dasharray:none"
       d="m 158.0229,28.545528 c 3.50613,-5.163918 11.96501,-8.277496 11.96501,-8.277496 l 0.63999,-17.8522084 0.63997,-1.0501297 0.63999,1.0501297 0.63999,17.8522084 c 0,0 8.45887,3.113571 11.965,8.277496 3.50615,5.163925 7.21456,12.412623 8.00473,23.34995 v 32.059851 c 0,0 -0.17917,8.29436 -0.78259,14.640047 -0.60336,6.345684 -3.20175,23.349954 -3.20175,23.349954 h -34.53073 c 0,0 -2.59836,-17.00427 -3.20173,-23.349954 -0.60334,-6.345687 -0.78258,-14.640047 -0.78258,-14.640047 V 51.895478 c 0.671,-12.109262 4.49856,-18.186032 8.0047,-23.34995 z"
       id="rect4660"
       inkscape:connector-curvature="0"
       sodipodi:nodetypes="zccccczcczcczccz" />
    <path
       style="fill:#a05a2c;fill-opacity:1;stroke:#000000;stroke-width:0.24582714;stroke-miterlimit:4;stroke-dasharray:none"
       d="m 158.72748,29.153889 c 3.31962,-5.068723 12.54039,-8.124904 12.54039,-8.124904 0,0 9.22079,3.056174 12.54041,8.124904 3.31964,5.068731 6.83076,12.183804 7.5789,22.919506 H 151.1486 c 0.63531,-11.886033 4.25926,-17.850782 7.57888,-22.919506 z"
       id="path4717"
       inkscape:connector-curvature="0"
       sodipodi:nodetypes="zczccz" />
    <path
       sodipodi:nodetypes="ccccc"
       inkscape:connector-curvature="0"
       id="path4663"
       d="m 190.64621,97.912409 c -0.57126,6.228711 -3.0314,22.919511 -3.0314,22.919511 h -32.69385 c 0,0 -2.46013,-16.6908 -3.0314,-22.919511 z"
       style="fill:#a05a2c;fill-opacity:1;stroke:#000000;stroke-width:0.24582714;stroke-miterlimit:4;stroke-dasharray:none" />
    <path
       style="fill:#784421;fill-opacity:1;stroke:#000000;stroke-width:0.24582714;stroke-miterlimit:4;stroke-dasharray:none"
       d="m 191.38718,53.586818 v 29.390894 c 0,0 -0.16974,7.60386 -0.74097,13.421274 H 151.88956 C 151.3183,90.581572 151.1486,82.977712 151.1486,82.977712 V 53.586818 Z"
       id="path4721"
       inkscape:connector-curvature="0"
       sodipodi:nodetypes="ccccccc" />
    <path
       sodipodi:nodetypes="czzzcczzzcc"
       inkscape:connector-curvature="0"
       id="path4665"
       d="m 75.519064,59.411477 c 0.520376,2.056684 3.229802,4.432831 4.343733,8.034286 1.113949,3.601455 1.404029,8.916997 1.404029,13.412139 0,4.495141 -0.29008,9.810682 -1.404029,13.412136 -1.113931,3.601456 -3.823357,5.977602 -4.343733,8.034282 h -1.510179 c -0.520376,-2.05668 -3.229803,-4.432826 -4.343733,-8.034282 -1.113948,-3.601454 -1.404029,-8.916995 -1.404029,-13.412136 0,-4.495142 0.290081,-9.810684 1.404029,-13.412139 1.11393,-3.601455 3.823357,-5.977602 4.343733,-8.034286 z"
       style="fill:#552200;fill-opacity:1;stroke:#000000;stroke-width:0.22674716;stroke-miterlimit:4;stroke-dasharray:none" />
    <path
       style="fill:#aa4400;fill-opacity:1;stroke:#000000;stroke-width:0.255;stroke-miterlimit:4;stroke-dasharray:none"
       d="m 68.988268,67.543075 h 11.405966 v 0.644052 H 68.988268 Z"
       id="rect4667"
       inkscape:connector-curvature="0"
       sodipodi:nodetypes="ccccc" />
    <path
       style="fill:#aa4400;fill-opacity:1;stroke:#000000;stroke-width:0.27291453;stroke-miterlimit:4;stroke-dasharray:none"
       d="m 68.158811,71.760584 h 13.064868 v 0.644052 H 68.158811 Z"
       id="rect4669"
       inkscape:connector-curvature="0"
       sodipodi:nodetypes="ccccc" />
    <path
       style="fill:#aa4400;fill-opacity:1;stroke:#000000;stroke-width:0.2769157;stroke-miterlimit:4;stroke-dasharray:none"
       d="m 67.965865,76.123518 h 13.450764 v 0.644053 H 67.965865 Z"
       id="rect4671"
       inkscape:connector-curvature="0"
       sodipodi:nodetypes="ccccc" />
    <path
       style="fill:#aa4400;fill-opacity:1;stroke:#000000;stroke-width:0.2769157;stroke-miterlimit:4;stroke-dasharray:none"
       d="m 67.965865,80.195595 h 13.450764 v 0.644053 H 67.965865 Z"
       id="rect4673"
       inkscape:connector-curvature="0"
       sodipodi:nodetypes="ccccc" />
    <path
       style="fill:#aa4400;fill-opacity:1;stroke:#000000;stroke-width:0.2769157;stroke-miterlimit:4;stroke-dasharray:none"
       d="m 67.965865,84.350774 h 13.450764 v 0.644052 H 67.965865 Z"
       id="rect4675"
       inkscape:connector-curvature="0"
       sodipodi:nodetypes="ccccc" />
    <path
       style="fill:#aa4400;fill-opacity:1;stroke:#000000;stroke-width:0.2769157;stroke-miterlimit:4;stroke-dasharray:none"
       d="m 67.965865,88.505951 h 13.450764 v 0.644052 H 67.965865 Z"
       id="rect4677"
       inkscape:connector-curvature="0"
       sodipodi:nodetypes="ccccc" />
    <path
       style="fill:#aa4400;fill-opacity:1;stroke:#000000;stroke-width:0.25731975;stroke-miterlimit:4;stroke-dasharray:none"
       d="m 68.884025,93.450609 h 11.614434 v 0.644053 H 68.884025 Z"
       id="rect4679"
       inkscape:connector-curvature="0"
       sodipodi:nodetypes="ccccc" />
    <path
       inkscape:connector-curvature="0"
       id="path4681"
       d="m 74.310082,52.484348 c -0.0924,0.0078 -0.215197,0.07522 -0.395393,0.255414 -0.576623,0.576626 0.585228,1.730494 0,4.043442 -0.585216,2.31295 -3.631935,4.985173 -4.884671,9.035371 -1.252744,4.050199 -1.579293,10.028254 -1.579293,15.083497 0,5.055238 0.326549,11.032838 1.579293,15.083037 1.252736,4.050201 4.299455,6.722421 4.884671,9.035371 0.585228,2.31295 -0.576623,3.46726 0,4.04389 0.576629,0.57664 0.56635,0 0.84941,0 0.283054,0 0.272331,0.57664 0.848956,0 0.576627,-0.57663 -0.585227,-1.73094 0,-4.04389 0.585218,-2.31295 3.632392,-4.98517 4.885126,-9.035371 1.252745,-4.050199 1.578839,-10.027799 1.578839,-15.083037 0,-5.055243 -0.326094,-11.033298 -1.578839,-15.083497 -1.252734,-4.050198 -4.299908,-6.722421 -4.885126,-9.035371 -0.585227,-2.312948 0.576627,-3.466816 0,-4.043442 -0.576625,-0.576626 -0.565902,0 -0.848956,0 -0.194605,0 -0.250741,-0.272448 -0.454017,-0.255414 z m -0.301316,6.971155 h 1.510212 c 0.520377,2.056685 3.229921,4.432714 4.343851,8.034169 1.113949,3.601454 1.403867,8.917256 1.403867,13.4124 0,4.49514 -0.289918,9.810487 -1.403867,13.411941 -1.11393,3.601456 -3.823474,5.977487 -4.343851,8.034167 H 74.008766 C 73.48839,100.2915 70.7793,97.915469 69.66537,94.314013 68.551422,90.712559 68.26105,85.397212 68.26105,80.902072 c 0,-4.495144 0.290372,-9.810946 1.40432,-13.4124 1.11393,-3.601455 3.82302,-5.977484 4.343396,-8.034169 z"
       style="fill:#803300;fill-opacity:1;stroke:#000000;stroke-width:0.255;stroke-miterlimit:4;stroke-dasharray:none"
       sodipodi:nodetypes="ccccscccscccsccssccccsccccscc" />
    <path
       sodipodi:nodetypes="ccccc"
       inkscape:connector-curvature="0"
       id="path4683"
       d="m 74.065531,90.44469 0.114374,0.51641 -16.121765,3.570575 -0.114373,-0.51641 z"
       style="fill:#aa4400;fill-opacity:1;stroke:#000000;stroke-width:0.255;stroke-miterlimit:4;stroke-dasharray:none" />
    <path
       style="fill:#aa4400;fill-opacity:1;stroke:#000000;stroke-width:0.255;stroke-miterlimit:4;stroke-dasharray:none"
       d="m 73.192941,85.666234 0.114374,0.51641 -16.121765,3.570575 -0.114373,-0.51641 z"
       id="path4685"
       inkscape:connector-curvature="0"
       sodipodi:nodetypes="ccccc" />
    <path
       sodipodi:nodetypes="ccccc"
       inkscape:connector-curvature="0"
       id="path4687"
       d="m 73.068286,81.511056 0.114374,0.51641 -16.121764,3.570575 -0.114374,-0.51641 z"
       style="fill:#aa4400;fill-opacity:1;stroke:#000000;stroke-width:0.255;stroke-miterlimit:4;stroke-dasharray:none" />
    <path
       style="fill:#aa4400;fill-opacity:1;stroke:#000000;stroke-width:0.255;stroke-miterlimit:4;stroke-dasharray:none"
       d="m 73.026732,77.272774 0.114374,0.51641 -16.121765,3.570576 -0.114373,-0.51641 z"
       id="path4689"
       inkscape:connector-curvature="0"
       sodipodi:nodetypes="ccccc" />
    <path
       sodipodi:nodetypes="ccccc"
       inkscape:connector-curvature="0"
       id="path4691"
       d="m 72.694314,72.618972 0.114374,0.516411 -16.121764,3.570576 -0.114373,-0.51641 z"
       style="fill:#aa4400;fill-opacity:1;stroke:#000000;stroke-width:0.255;stroke-miterlimit:4;stroke-dasharray:none" />
    <path
       style="fill:#aa4400;fill-opacity:1;stroke:#000000;stroke-width:0.255;stroke-miterlimit:4;stroke-dasharray:none"
       d="m 72.860522,68.713104 0.114374,0.51641 -16.121763,3.570576 -0.114374,-0.51641 z"
       id="path4693"
       inkscape:connector-curvature="0"
       sodipodi:nodetypes="ccccc" />
    <path
       style="fill:#aa4400;fill-opacity:1;stroke:#000000;stroke-width:0.255;stroke-miterlimit:4;stroke-dasharray:none"
       d="m 75.736995,90.44469 -0.114374,0.51641 16.121763,3.570575 0.114374,-0.51641 z"
       id="path4695"
       inkscape:connector-curvature="0"
       sodipodi:nodetypes="ccccc" />
    <path
       sodipodi:nodetypes="ccccc"
       inkscape:connector-curvature="0"
       id="path4697"
       d="m 76.609584,85.666234 -0.114373,0.51641 16.121763,3.570575 0.114374,-0.51641 z"
       style="fill:#aa4400;fill-opacity:1;stroke:#000000;stroke-width:0.255;stroke-miterlimit:4;stroke-dasharray:none" />
    <path
       style="fill:#aa4400;fill-opacity:1;stroke:#000000;stroke-width:0.255;stroke-miterlimit:4;stroke-dasharray:none"
       d="m 76.734238,81.511056 -0.114374,0.51641 16.121765,3.570575 0.114373,-0.51641 z"
       id="path4699"
       inkscape:connector-curvature="0"
       sodipodi:nodetypes="ccccc" />
    <path
       sodipodi:nodetypes="ccccc"
       inkscape:connector-curvature="0"
       id="path4701"
       d="m 76.775793,77.272774 -0.114374,0.51641 16.121764,3.570576 0.114373,-0.51641 z"
       style="fill:#aa4400;fill-opacity:1;stroke:#000000;stroke-width:0.255;stroke-miterlimit:4;stroke-dasharray:none" />
    <path
       style="fill:#aa4400;fill-opacity:1;stroke:#000000;stroke-width:0.255;stroke-miterlimit:4;stroke-dasharray:none"
       d="m 77.108211,72.618972 -0.114374,0.516411 16.121766,3.570576 0.11437,-0.51641 z"
       id="path4703"
       inkscape:connector-curvature="0"
       sodipodi:nodetypes="ccccc" />
    <path
       sodipodi:nodetypes="ccccc"
       inkscape:connector-curvature="0"
       id="path4705"
       d="m 76.942001,68.713104 -0.114373,0.51641 16.121764,3.570576 0.114371,-0.51641 z"
       style="fill:#aa4400;fill-opacity:1;stroke:#000000;stroke-width:0.255;stroke-miterlimit:4;stroke-dasharray:none" />
    <path
       id="path4707"
       d="m 76.224329,80.423938 c 0,0.777749 -0.630492,1.408239 -1.408241,1.408236 -0.77775,3e-6 -1.408242,-0.630487 -1.408242,-1.408236 -1e-6,-0.777749 0.630491,-1.408239 1.408242,-1.408236 0.777749,-3e-6 1.408241,0.630487 1.408241,1.408236 z"
       style="fill:#a05a2c;stroke:#000000;stroke-width:0.1690838"
       inkscape:connector-curvature="0"
       sodipodi:nodetypes="scscs" />
    <path
       sodipodi:nodetypes="sssss"
       inkscape:connector-curvature="0"
       style="fill:#c87137;stroke:#000000;stroke-width:0.06675909"
       d="m 76.003338,80.423938 c 0,0.655701 -0.531553,1.187251 -1.18725,1.187251 -0.655707,0 -1.187252,-0.53155 -1.187252,-1.187251 0,-0.6557 0.531545,-1.187252 1.187252,-1.187252 0.655697,0 1.18725,0.531552 1.18725,1.187252 z"
       id="path4709" />
    <path
       id="path4711"
       d="m 75.529591,80.423938 c 0,0.394059 -0.319454,0.713507 -0.713503,0.713507 -0.39406,0 -0.713514,-0.319448 -0.713514,-0.713507 0,-0.394059 0.319454,-0.713507 0.713514,-0.713507 0.394049,0 0.713503,0.319448 0.713503,0.713507 z"
       style="fill:#c87137;stroke:#000000;stroke-width:0.01335067"
       inkscape:connector-curvature="0"
       sodipodi:nodetypes="sssss" />
    <path
       id="path4731"
       d="m 174.44578,41.024718 c 0,1.635155 -1.32555,2.960709 -2.96071,2.960703 -1.63516,6e-6 -2.96071,-1.325548 -2.96071,-2.960703 0,-1.635156 1.32555,-2.960711 2.96071,-2.960705 1.63516,-6e-6 2.96072,1.325549 2.96071,2.960705 z"
       style="fill:#a05a2c;stroke:#000000;stroke-width:0.1690838"
       inkscape:connector-curvature="0"
       sodipodi:nodetypes="scscs" />
    <path
       sodipodi:nodetypes="sssss"
       inkscape:connector-curvature="0"
       style="fill:#c87137;stroke:#000000;stroke-width:0.06675909"
       d="m 173.98117,41.024718 c 0,1.378557 -1.11755,2.4961 -2.4961,2.4961 -1.37857,0 -2.4961,-1.117543 -2.4961,-2.4961 0,-1.378557 1.11753,-2.496102 2.4961,-2.496102 1.37855,0 2.4961,1.117545 2.4961,2.496102 z"
       id="path4733" />
    <path
       id="path4735"
       d="m 172.98516,41.024718 c 0,0.828475 -0.67163,1.50009 -1.50009,1.50009 -0.82848,0 -1.5001,-0.671615 -1.5001,-1.50009 0,-0.828477 0.67162,-1.500092 1.5001,-1.500092 0.82846,0 1.50009,0.671615 1.50009,1.500092 z"
       style="fill:#c87137;stroke:#000000;stroke-width:0.01335067"
       inkscape:connector-curvature="0"
       sodipodi:nodetypes="sssss" />
    <path
       inkscape:connector-curvature="0"
       style="fill:#a05a2c;stroke:#000000;stroke-width:0.1690838"
       d="m 174.44578,79.656958 c 0,1.635156 -1.32555,2.96071 -2.96071,2.960704 -1.63516,6e-6 -2.96071,-1.325548 -2.96071,-2.960704 0,-1.635156 1.32555,-2.960711 2.96071,-2.960705 1.63516,-6e-6 2.96072,1.325549 2.96071,2.960705 z"
       id="path4737"
       sodipodi:nodetypes="scscs" />
    <path
       id="path4739"
       d="m 173.98117,79.656958 c 0,1.378558 -1.11755,2.496101 -2.4961,2.496101 -1.37857,0 -2.4961,-1.117543 -2.4961,-2.496101 0,-1.378557 1.11753,-2.496102 2.4961,-2.496102 1.37855,0 2.4961,1.117545 2.4961,2.496102 z"
       style="fill:#c87137;stroke:#000000;stroke-width:0.06675909"
       inkscape:connector-curvature="0"
       sodipodi:nodetypes="sssss" />
    <path
       sodipodi:nodetypes="sssss"
       inkscape:connector-curvature="0"
       style="fill:#c87137;stroke:#000000;stroke-width:0.01335067"
       d="m 172.98516,79.656958 c 0,0.828476 -0.67163,1.50009 -1.50009,1.50009 -0.82848,0 -1.5001,-0.671614 -1.5001,-1.50009 0,-0.828477 0.67162,-1.500091 1.5001,-1.500091 0.82846,0 1.50009,0.671614 1.50009,1.500091 z"
       id="path4741" />
    <path
       id="path4759"
       d="m 174.44578,108.81351 c 0,1.63515 -1.32555,2.96071 -2.96071,2.9607 -1.63516,1e-5 -2.96071,-1.32555 -2.96071,-2.9607 0,-1.63516 1.32555,-2.96071 2.96071,-2.96071 1.63516,0 2.96072,1.32555 2.96071,2.96071 z"
       style="fill:#a05a2c;stroke:#000000;stroke-width:0.1690838"
       inkscape:connector-curvature="0"
       sodipodi:nodetypes="scscs" />
    <path
       sodipodi:nodetypes="sssss"
       inkscape:connector-curvature="0"
       style="fill:#c87137;stroke:#000000;stroke-width:0.06675909"
       d="m 173.98117,108.81351 c 0,1.37855 -1.11755,2.4961 -2.4961,2.4961 -1.37857,0 -2.4961,-1.11755 -2.4961,-2.4961 0,-1.37856 1.11753,-2.4961 2.4961,-2.4961 1.37855,0 2.4961,1.11754 2.4961,2.4961 z"
       id="path4761" />
    <path
       id="path4763"
       d="m 172.98516,108.81351 c 0,0.82847 -0.67163,1.50009 -1.50009,1.50009 -0.82848,0 -1.5001,-0.67162 -1.5001,-1.50009 0,-0.82848 0.67162,-1.50009 1.5001,-1.50009 0.82846,0 1.50009,0.67161 1.50009,1.50009 z"
       style="fill:#c87137;stroke:#000000;stroke-width:0.01335067"
       inkscape:connector-curvature="0"
       sodipodi:nodetypes="sssss" />
    <path
       style="fill:#a05a2c;fill-opacity:1;stroke:#000000;stroke-width:0.255;stroke-miterlimit:4;stroke-dasharray:none"
       d="m 116.34744,24.21685 c 0.82528,-1.82642 1.15024,-4.716809 1.15084,-4.724211 l 0.14889,-1.828296 0.4636,-1.704652 0.4636,1.704652 0.14888,1.828296 c 0.0247,0.303596 0.32559,2.897791 1.15084,4.724211 0.82526,1.826418 3.5348,7.203253 4.92932,10.957796 1.73553,4.67269 3.22889,10.275972 4.25503,14.335607 1.02613,4.059637 1.44547,8.079045 1.9268,12.123348 0.48133,4.044304 0.76278,8.08044 0.9634,12.123349 0.20062,4.042911 0.20071,6.883726 0.24085,10.925041 0.0401,4.041316 0.0392,8.100994 -0.36871,12.123349 -0.4547,4.48384 -0.99977,9.00959 -2.31038,13.32165 -1.28612,4.2315 -5.39089,12.12335 -5.39089,12.12335 h -12.01748 c 0,0 -4.10477,-7.89185 -5.3909,-12.12335 -1.31061,-4.31206 -1.85568,-8.83781 -2.31038,-13.32165 -0.4079,-4.022355 -0.40885,-8.082033 -0.36871,-12.123349 0.0401,-4.041315 0.0402,-6.88213 0.24085,-10.925041 0.20062,-4.042909 0.48207,-8.079045 0.96341,-12.123349 0.48133,-4.044303 0.90066,-8.063711 1.9268,-12.123348 1.02614,-4.059635 2.5195,-9.662917 4.25503,-14.335607 1.39452,-3.754543 4.10403,-9.131378 4.92931,-10.957796 z"
       id="rect4767"
       inkscape:connector-curvature="0"
       sodipodi:nodetypes="zscccszazzzzaaccaazzzzaz" />
    <path
       sodipodi:nodetypes="cscccszazzzzaaccaazzzzazc"
       inkscape:connector-curvature="0"
       id="path4806"
       d="m 116.49439,27.95753 c 0.75651,-1.674218 1.05438,-4.323741 1.05493,-4.330527 l 0.13648,-1.675936 0.42497,-1.562599 0.42497,1.562599 c 0,0 0.1314,1.526322 0.13648,1.675936 0,0 0.29845,2.656309 1.05493,4.330527 0.75649,1.674218 3.24023,6.602983 4.51854,10.044648 1.59091,4.283298 2.95982,9.419639 3.90044,13.140972 0.94063,3.721334 1.32502,7.40579 1.76624,11.113069 0.44122,3.707278 0.69922,7.40707 0.88312,11.113071 0.1839,3.706 0.18398,6.310081 0.22078,10.014621 0.0368,3.704538 0.0359,7.42591 -0.33798,11.113069 -0.41681,4.110189 -0.91646,8.25879 -2.11785,12.21152 -1.17895,3.87887 -4.94166,11.11306 -4.94166,11.11306 h -11.01602 c 0,0 -3.76271,-7.23419 -4.94165,-11.11306 -1.20139,-3.95273 -1.70104,-8.101331 -2.11785,-12.21152 -0.37391,-3.687159 -0.37479,-7.408531 -0.33799,-11.113069 0.0368,-3.70454 0.0369,-6.308621 0.22078,-10.014621 0.18391,-3.706001 0.4419,-7.405793 0.88312,-11.113071 0.44122,-3.707279 0.82561,-7.391735 1.76624,-11.113069 0.94063,-3.721333 2.30954,-8.857674 3.90045,-13.140972 1.2783,-3.441665 3.76202,-8.37043 4.51853,-10.044648 z"
       style="fill:#d38d5f;fill-opacity:1;stroke:#000000;stroke-width:0.255;stroke-miterlimit:4;stroke-dasharray:none" />
    <path
       sodipodi:nodetypes="czzcczzc"
       inkscape:connector-curvature="0"
       id="path4788"
       d="m 117.69818,74.616579 c 0,0 1.17909,1.431225 1.65066,2.845484 0.47156,1.414259 0.84404,2.075987 0.96688,4.355886 0.12284,2.2799 -0.67308,9.739722 -0.67308,9.739722 h -3.88892 c 0,0 -0.79593,-7.459822 -0.67308,-9.739722 0.12284,-2.279899 0.49532,-2.941627 0.96689,-4.355886 0.47156,-1.414259 1.65065,-2.845484 1.65065,-2.845484 z"
       style="fill:#c87137;stroke:#000000;stroke-width:0.255;stroke-miterlimit:4;stroke-dasharray:none" />
    <path
       style="fill:#a05a2c;fill-opacity:1;stroke:#000000;stroke-width:0.1;stroke-miterlimit:4;stroke-dasharray:none"
       d="m 117.43136,78.336005 h 0.52946 v 13.174497 h -0.52946 z"
       id="rect4792"
       inkscape:connector-curvature="0"
       sodipodi:nodetypes="ccccc" />
    <path
       style="fill:#c87137;stroke:#000000;stroke-width:0.255;stroke-miterlimit:4;stroke-dasharray:none"
       d="m 117.69818,61.409848 c 0,0 1.17909,1.431225 1.65066,2.845484 0.47156,1.414259 0.84404,2.075987 0.96688,4.355886 0.12284,2.2799 -0.67308,9.739722 -0.67308,9.739722 h -3.88892 c 0,0 -0.79593,-7.459822 -0.67308,-9.739722 0.12284,-2.279899 0.49532,-2.941627 0.96689,-4.355886 0.47156,-1.414259 1.65065,-2.845484 1.65065,-2.845484 z"
       id="path4790"
       inkscape:connector-curvature="0"
       sodipodi:nodetypes="czzcczzc" />
    <path
       sodipodi:nodetypes="cccccc"
       inkscape:connector-curvature="0"
       id="path4795"
       d="m 117.43136,61.913296 0.26473,-0.353752 0.26473,0.353752 v 16.422709 h -0.52946 z"
       style="fill:#a05a2c;fill-opacity:1;stroke:#000000;stroke-width:0.1;stroke-miterlimit:4;stroke-dasharray:none" />
    <path
       style="fill:#ffeeaa;fill-opacity:1;stroke:#000000;stroke-width:0.1;stroke-miterlimit:4;stroke-dasharray:none"
       d="m 115.69691,65.060832 h 4.01892 l 0.15009,0.400224 h -4.31909 z"
       id="rect4797"
       inkscape:connector-curvature="0"
       sodipodi:nodetypes="ccccc" />
    <path
       sodipodi:nodetypes="ccccc"
       inkscape:connector-curvature="0"
       id="path4800"
       d="m 115.62889,76.953442 4.12012,0.360115 0.0431,-0.397978 -4.13656,-0.361553 z"
       style="fill:#ffeeaa;fill-opacity:1;stroke:#000000;stroke-width:0.1;stroke-miterlimit:4;stroke-dasharray:none" />
    <path
       id="path4776"
       d="m 120.03523,58.4362 c 0,1.248539 -1.01215,2.260679 -2.26069,2.260674 -1.24854,5e-6 -2.26068,-1.012135 -2.26068,-2.260674 0,-1.24854 1.01214,-2.260681 2.26068,-2.260677 1.24854,-4e-6 2.26069,1.012137 2.26069,2.260677 z"
       style="fill:#a05a2c;stroke:#000000;stroke-width:0.1690838"
       inkscape:connector-curvature="0"
       sodipodi:nodetypes="scscs" />
    <path
       sodipodi:nodetypes="sssss"
       inkscape:connector-curvature="0"
       style="fill:#c87137;stroke:#000000;stroke-width:0.06675909"
       d="m 119.68046,58.4362 c 0,1.052611 -0.85331,1.905922 -1.90592,1.905922 -1.05262,0 -1.90592,-0.853311 -1.90592,-1.905922 0,-1.052612 0.8533,-1.905924 1.90592,-1.905924 1.05261,0 1.90592,0.853312 1.90592,1.905924 z"
       id="path4778" />
    <path
       id="path4780"
       d="m 118.91995,58.4362 c 0,0.63259 -0.51283,1.145408 -1.14541,1.145408 -0.63259,0 -1.14542,-0.512818 -1.14542,-1.145408 0,-0.632592 0.51283,-1.14541 1.14542,-1.14541 0.63258,0 1.14541,0.512818 1.14541,1.14541 z"
       style="fill:#c87137;stroke:#000000;stroke-width:0.01335067"
       inkscape:connector-curvature="0"
       sodipodi:nodetypes="sssss" />
    <path
       inkscape:connector-curvature="0"
       style="fill:#a05a2c;stroke:#000000;stroke-width:0.1690838"
       d="m 120.03523,95.22638 c 0,1.24854 -1.01215,2.26068 -2.26069,2.260675 -1.24854,5e-6 -2.26068,-1.012135 -2.26068,-2.260675 0,-1.24854 1.01214,-2.26068 2.26068,-2.260676 1.24854,-4e-6 2.26069,1.012136 2.26069,2.260676 z"
       id="path4782"
       sodipodi:nodetypes="scscs" />
    <path
       id="path4784"
       d="m 119.68046,95.22638 c 0,1.052612 -0.85331,1.905923 -1.90592,1.905923 -1.05262,0 -1.90592,-0.853311 -1.90592,-1.905923 0,-1.052611 0.8533,-1.905923 1.90592,-1.905923 1.05261,0 1.90592,0.853312 1.90592,1.905923 z"
       style="fill:#c87137;stroke:#000000;stroke-width:0.06675909"
       inkscape:connector-curvature="0"
       sodipodi:nodetypes="sssss" />
    <path
       sodipodi:nodetypes="sssss"
       inkscape:connector-curvature="0"
       style="fill:#c87137;stroke:#000000;stroke-width:0.01335067"
       d="m 118.91995,95.22638 c 0,0.632591 -0.51283,1.145409 -1.14541,1.145409 -0.63259,0 -1.14542,-0.512818 -1.14542,-1.145409 0,-0.632592 0.51283,-1.14541 1.14542,-1.14541 0.63258,0 1.14541,0.512818 1.14541,1.14541 z"
       id="path4786" />
    <path
       style="fill:#ffeeaa;fill-opacity:1;stroke:#000000;stroke-width:0.1;stroke-miterlimit:4;stroke-dasharray:none"
       d="m 115.63846,90.553251 h 4.13583 l 0.008,-0.400224 h -4.15233 z"
       id="path4802"
       inkscape:connector-curvature="0"
       sodipodi:nodetypes="ccccc" />
    <path
       style="fill:#c87137;stroke:#000000;stroke-width:0.25638732"
       d="m 29.933361,102.27705 c 0,0 0.19489,-0.16708 0.616304,-0.16708 0.421412,0 0.616303,0.16708 0.616303,0.16708 v 11.13864 c 0,0 -0.192782,0.16708 -0.616303,0.16708 -0.423521,0 -0.616304,-0.16708 -0.616304,-0.16708 z"
       id="rect20"
       inkscape:connector-curvature="0"
       sodipodi:nodetypes="czcczcc" />
    <path
       sodipodi:nodetypes="czcczcc"
       inkscape:connector-curvature="0"
       id="path23"
       d="m 31.165968,102.01612 c 0,0 0.194891,-0.17495 0.616302,-0.17495 0.421414,0 0.616305,0.17495 0.616305,0.17495 v 11.66353 c 0,0 -0.192784,0.17495 -0.616305,0.17495 -0.423518,0 -0.616302,-0.17495 -0.616302,-0.17495 z"
       style="fill:#a05a2c;stroke:#000000;stroke-width:0.26235861" />
    <path
       sodipodi:nodetypes="czcczcc"
       inkscape:connector-curvature="0"
       id="path35"
       d="m 32.398575,101.8145 c 0,0 0.194891,-0.17793 0.616302,-0.17793 0.421415,0 0.616305,0.17793 0.616305,0.17793 v 11.86217 c 0,0 -0.192784,0.17793 -0.616305,0.17793 -0.42352,0 -0.616302,-0.17793 -0.616302,-0.17793 z"
       style="fill:#c87137;stroke:#000000;stroke-width:0.26458332" />
    <path
       style="fill:#a05a2c;stroke:#000000;stroke-width:0.26458332"
       d="m 33.631182,101.8145 c 0,0 0.177207,-0.17793 0.560384,-0.17793 0.383176,0 0.560386,0.17793 0.560386,0.17793 v 11.86217 c 0,0 -0.175293,0.17793 -0.560386,0.17793 -0.385093,0 -0.560384,-0.17793 -0.560384,-0.17793 z"
       id="path37"
       inkscape:connector-curvature="0"
       sodipodi:nodetypes="czcczcc" />
    <path
       sodipodi:nodetypes="czcczcc"
       inkscape:connector-curvature="0"
       id="path39"
       d="m 34.751952,101.8145 c 0,0 0.194889,-0.17793 0.616302,-0.17793 0.421414,0 0.616303,0.17793 0.616303,0.17793 v 11.86217 c 0,0 -0.192782,0.17793 -0.616303,0.17793 -0.42352,0 -0.616302,-0.17793 -0.616302,-0.17793 z"
       style="fill:#c87137;stroke:#000000;stroke-width:0.26458332" />
    <path
       style="fill:#a05a2c;stroke:#000000;stroke-width:0.25843966"
       d="m 35.984557,101.9338 c 0,0 0.194891,-0.16977 0.616305,-0.16977 0.421412,0 0.616302,0.16977 0.616302,0.16977 v 11.31768 c 0,0 -0.192782,0.16977 -0.616302,0.16977 -0.423521,0 -0.616305,-0.16977 -0.616305,-0.16977 z"
       id="path41"
       inkscape:connector-curvature="0"
       sodipodi:nodetypes="czcczcc" />
    <path
       style="fill:#c87137;stroke:#000000;stroke-width:0.2554186"
       d="m 37.233212,102.13846 c 0,0 0.189817,-0.17025 0.600257,-0.17025 0.41044,0 0.600255,0.17025 0.600255,0.17025 v 11.35017 c 0,0 -0.187762,0.17026 -0.600255,0.17026 -0.412495,0 -0.600257,-0.17026 -0.600257,-0.17026 z"
       id="path43"
       inkscape:connector-curvature="0"
       sodipodi:nodetypes="czcczcc" />
    <path
       style="fill:#a05a2c;stroke:#000000;stroke-width:0.1;stroke-miterlimit:4;stroke-dasharray:none"
       d="m 34.7099,107.66395 c 0,0.28953 -0.234711,0.52424 -0.52424,0.52424 -0.289529,0 -0.524239,-0.23471 -0.524239,-0.52424 0,-0.28952 0.23471,-0.52423 0.524239,-0.52423 0.289529,0 0.52424,0.23471 0.52424,0.52423 z"
       id="path47"
       inkscape:connector-curvature="0"
       sodipodi:nodetypes="ccccc" />
    <path
       id="path50"
       d="m 34.552601,107.66395 c 0,0.20266 -0.164286,0.36695 -0.366941,0.36695 -0.202654,0 -0.36694,-0.16429 -0.36694,-0.36695 0,-0.20265 0.164286,-0.36694 0.36694,-0.36694 0.202655,0 0.366941,0.16429 0.366941,0.36694 z"
       style="fill:#c87137;stroke:#000000;stroke-width:0.08302312;stroke-miterlimit:4;stroke-dasharray:none"
       inkscape:connector-curvature="0"
       sodipodi:nodetypes="sssss" />
    <path
       sodipodi:nodetypes="sssss"
       inkscape:connector-curvature="0"
       style="fill:#c87137;stroke:#000000;stroke-width:0.0208912"
       d="m 34.451274,107.66395 c 0,0.1467 -0.118918,0.26562 -0.265614,0.26562 -0.146695,0 -0.265615,-0.11892 -0.265615,-0.26562 0,-0.14669 0.11892,-0.26561 0.265615,-0.26561 0.146696,0 0.265614,0.11892 0.265614,0.26561 z"
       id="path52" />
    <g
       id="g4858"
       transform="translate(-27.619963,-54.236003)">
      <path
         sodipodi:nodetypes="ccccc"
         inkscape:connector-curvature="0"
         id="path4852"
         d="m 40.235449,106.81546 4.4e-5,0.32598 -12.11643,0.008 -4.5e-5,-0.32598 z"
         style="fill:#c87137;stroke:#000000;stroke-width:0.15000001;stroke-miterlimit:4;stroke-dasharray:none" />
      <path
         style="fill:#ffe6d5;fill-opacity:1;stroke:#000000;stroke-width:0.15000001;stroke-miterlimit:4;stroke-dasharray:none"
         d="m 31.329224,105.15189 h 1.424004 1.424005 2.84801 c 0.803396,0.0811 2.664499,0.92243 3.210206,1.66357 H 28.119018 c 0.49417,-0.74784 2.08736,-1.58566 3.210206,-1.66357 z"
         id="path4854"
         inkscape:connector-curvature="0"
         sodipodi:nodetypes="ccccccc" />
      <path
         style="fill:#000000;stroke:#000000;stroke-width:0.1;stroke-linecap:butt;stroke-linejoin:miter;stroke-miterlimit:4;stroke-dasharray:none;stroke-opacity:1"
         d="m 32.314508,105.64043 c 0,0 -0.151097,0.18039 -0.139286,0.80051 l 0.808513,-0.98003 c -0.151386,0.0486 -0.154522,0.11648 -0.305908,0.0167 z"
         id="path4856"
         inkscape:connector-curvature="0"
         sodipodi:nodetypes="ccccc" />
    </g>
    <g
       id="g4868"
       transform="translate(-21.047475)">
      <path
         style="fill:#c87137;stroke:#000000;stroke-width:0.255;stroke-miterlimit:4;stroke-dasharray:none"
         d="m 30.741142,58.49653 0.333833,0.0287 -1.652346,19.22875 -0.333834,-0.0287 z"
         id="path4864"
         inkscape:connector-curvature="0"
         sodipodi:nodetypes="ccccc" />
      <path
         style="fill:#ffffff;stroke:#000000;stroke-width:0.26458332px;stroke-linecap:butt;stroke-linejoin:miter;stroke-opacity:1"
         d="m 30.63164,58.8414 c 0,0 -6.133461,14.41505 -1.542845,18.88388 z"
         id="path4866"
         inkscape:connector-curvature="0"
         sodipodi:nodetypes="ccc" />
    </g>
    <g
       id="g4880"
       transform="translate(-67.79948,-28.962425)">
      <path
         style="fill:#c87137;stroke:#000000;stroke-width:0.17810677;stroke-miterlimit:4;stroke-dasharray:none"
         d="m 82.358305,76.643586 6e-5,0.450895 -16.759571,0.01047 -6.2e-5,-0.450895 z"
         id="path4876"
         inkscape:connector-curvature="0"
         sodipodi:nodetypes="ccccc" />
      <path
         style="fill:#ffffff;fill-opacity:1;stroke:#000000;stroke-width:0.17810677;stroke-miterlimit:4;stroke-dasharray:none"
         d="m 70.039122,74.342517 h 7.878792 c 1.111266,0.11217 3.685563,1.275914 4.440391,2.301069 H 65.598732 c 0.683541,-1.034419 2.887259,-2.193306 4.44039,-2.301069 z"
         id="path4878"
         inkscape:connector-curvature="0"
         sodipodi:nodetypes="ccccc" />
    </g>
    <g
       id="g4893"
       transform="matrix(0.26674464,0,0,0.26674464,-0.81302932,53.836234)">
      <g
         id="g4898"
         transform="translate(-47.292254,-46.583756)">
        <path
           sodipodi:nodetypes="ccccc"
           inkscape:connector-curvature="0"
           id="path4887"
           d="m 115.45448,108.77193 -0.88672,0.006 -0.23772,-51.869441 0.88672,-0.0059 z"
           style="fill:#c87137;stroke:#000000;stroke-width:0.255;stroke-miterlimit:4;stroke-dasharray:none" />
        <path
           style="fill:#ffffff;stroke:#000000;stroke-width:0.19957124px;stroke-linecap:butt;stroke-linejoin:miter;stroke-opacity:1"
           d="m 117.73568,14.698465 c 0,0 12.40127,23.763866 3.41245,43.010195 0,0 -0.0688,-4.150245 -4.29631,-2.750785 z"
           id="path4889"
           inkscape:connector-curvature="0"
           sodipodi:nodetypes="cscc" />
        <path
           sodipodi:nodetypes="czscc"
           inkscape:connector-curvature="0"
           id="path4891"
           d="m 114.56776,108.77786 c 0,0 -4.38792,-17.057987 -4.38792,-33.272169 0,-16.214183 4.1502,-18.597272 4.1502,-18.597272 0.10696,-0.47929 0.43621,5.014104 4.47873,4.369851 z"
           style="fill:#ffffff;stroke:#000000;stroke-width:0.22508648px;stroke-linecap:butt;stroke-linejoin:miter;stroke-opacity:1" />
      </g>
    </g>
    <g
       id="g4908"
       transform="matrix(0.38650391,0,0,0.38650391,-29.075924,41.027206)">
      <path
         sodipodi:nodetypes="ccccc"
         inkscape:connector-curvature="0"
         id="path4904"
         d="m 119.52553,117.11098 0.43684,0.003 0.11711,-25.553314 -0.43684,-0.003 z"
         style="fill:#c87137;stroke:#000000;stroke-width:0.255;stroke-miterlimit:4;stroke-dasharray:none" />
      <path
         sodipodi:nodetypes="czscc"
         inkscape:connector-curvature="0"
         id="path4906"
         d="m 119.96237,117.1139 c 0,0 2.1617,-8.40355 2.1617,-16.39142 0,-7.987867 -2.04459,-9.161888 -2.04459,-9.161888 -0.0527,-0.236122 -0.2149,2.470183 -2.20643,2.152793 z"
         style="fill:#ffffff;stroke:#000000;stroke-width:0.22508648px;stroke-linecap:butt;stroke-linejoin:miter;stroke-opacity:1" />
    </g>
    <g
       id="g4930"
       transform="matrix(0.31083751,0,0,0.31083751,-46.918502,18.732407)">
      <path
         sodipodi:nodetypes="ccccc"
         inkscape:connector-curvature="0"
         id="path4918"
         d="m 207.16228,75.227461 2.4e-4,0.980391 -71.64481,0.04474 -2.7e-4,-0.980388 z"
         style="fill:#c87137;stroke:#000000;stroke-width:0.255;stroke-miterlimit:4;stroke-dasharray:none" />
      <path
         style="fill:#c87137;stroke:#000000;stroke-width:0.255;stroke-miterlimit:4;stroke-dasharray:none"
         d="m 192.9228,75.176794 1.7e-4,1.161323 -43.16581,0.02696 -1.7e-4,-1.161323 z"
         id="path4920"
         inkscape:connector-curvature="0"
         sodipodi:nodetypes="ccccc" />
      <path
         style="fill:#ffffff;fill-opacity:1;stroke:#000000;stroke-width:0.255;stroke-miterlimit:4;stroke-dasharray:none"
         d="m 154.49949,64.8065 h 33.68073 c 4.75053,0.479515 15.75532,6.038571 18.98206,10.420961 h -71.64484 c 2.92203,-4.421995 12.34262,-9.960289 18.98205,-10.420961 z"
         id="path4922"
         inkscape:connector-curvature="0"
         sodipodi:nodetypes="ccccc" />
      <path
         sodipodi:nodetypes="ccccc"
         inkscape:connector-curvature="0"
         id="path4924"
         d="m 161.19363,69.25018 h 20.29254 c 2.86218,0.288907 9.49255,3.286235 11.43665,5.926614 h -43.16583 c 1.76052,-2.66424 7.4364,-5.64906 11.43664,-5.926614 z"
         style="fill:#ffffff;fill-opacity:1;stroke:#000000;stroke-width:0.255;stroke-miterlimit:4;stroke-dasharray:none" />
      <path
         sodipodi:nodetypes="ccccc"
         inkscape:connector-curvature="0"
         id="path4926"
         d="m 185.6955,75.680666 1.2e-4,0.772438 -28.71115,0.01794 -1.1e-4,-0.772438 z"
         style="fill:#c87137;stroke:#000000;stroke-width:0.255;stroke-miterlimit:4;stroke-dasharray:none" />
      <path
         style="fill:#ffffff;fill-opacity:1;stroke:#000000;stroke-width:0.255;stroke-miterlimit:4;stroke-dasharray:none"
         d="m 164.59128,71.738662 h 13.49729 c 1.90374,0.192162 6.31382,2.185794 7.60693,3.942004 h -28.71114 c 1.17099,-1.772082 4.94622,-3.757393 7.60692,-3.942004 z"
         id="path4928"
         inkscape:connector-curvature="0"
         sodipodi:nodetypes="ccccc" />
    </g>
  </g>
</svg>
