<?xml version="1.0" encoding="UTF-8" standalone="no"?>
<svg
   xmlns:dc="http://purl.org/dc/elements/1.1/"
   xmlns:cc="http://creativecommons.org/ns#"
   xmlns:rdf="http://www.w3.org/1999/02/22-rdf-syntax-ns#"
   xmlns:svg="http://www.w3.org/2000/svg"
   xmlns="http://www.w3.org/2000/svg"
   id="svg8"
   version="1.1"
   viewBox="0 0 42.754379 120.95214"
   height="120.95214mm"
   width="42.754379mm">
  <defs
     id="defs2" />
  <metadata
     id="metadata5">
    <rdf:RDF>
      <cc:Work
         rdf:about="">
        <dc:format>image/svg+xml</dc:format>
        <dc:type
           rdf:resource="http://purl.org/dc/dcmitype/StillImage" />
        <dc:title></dc:title>
      </cc:Work>
    </rdf:RDF>
  </metadata>
  <g
     transform="translate(-149.8907,-1.120692)"
     id="layer1">
    <g
       id="g5211">
      <path
         style="fill:#502d16;fill-opacity:1;stroke:#000000;stroke-width:0.255;stroke-miterlimit:4;stroke-dasharray:none"
         d="m 158.0229,28.545528 c 3.50613,-5.163918 11.96501,-8.277496 11.96501,-8.277496 l 0.63999,-17.8522084 0.63997,-1.0501297 0.63999,1.0501297 0.63999,17.8522084 c 0,0 8.45887,3.113571 11.965,8.277496 3.50615,5.163925 7.21456,12.412623 8.00473,23.34995 v 32.059851 c 0,0 -0.17917,8.29436 -0.78259,14.640047 -0.60336,6.345684 -3.20175,23.349954 -3.20175,23.349954 h -34.53073 c 0,0 -2.59836,-17.00427 -3.20173,-23.349954 -0.60334,-6.345687 -0.78258,-14.640047 -0.78258,-14.640047 V 51.895478 c 0.671,-12.109262 4.49856,-18.186032 8.0047,-23.34995 z"
         id="rect4660" />
      <path
         style="fill:#a05a2c;fill-opacity:1;stroke:#000000;stroke-width:0.24582714;stroke-miterlimit:4;stroke-dasharray:none"
         d="m 158.72748,29.153889 c 3.31962,-5.068723 12.54039,-8.124904 12.54039,-8.124904 0,0 9.22079,3.056174 12.54041,8.124904 3.31964,5.068731 6.83076,12.183804 7.5789,22.919506 H 151.1486 c 0.63531,-11.886033 4.25926,-17.850782 7.57888,-22.919506 z"
         id="path4717" />
      <path
         id="path4663"
         d="m 190.64621,97.912409 c -0.57126,6.228711 -3.0314,22.919511 -3.0314,22.919511 h -32.69385 c 0,0 -2.46013,-16.6908 -3.0314,-22.919511 z"
         style="fill:#a05a2c;fill-opacity:1;stroke:#000000;stroke-width:0.24582714;stroke-miterlimit:4;stroke-dasharray:none" />
      <path
         style="fill:#784421;fill-opacity:1;stroke:#000000;stroke-width:0.24582714;stroke-miterlimit:4;stroke-dasharray:none"
         d="m 191.38718,53.586818 v 29.390894 c 0,0 -0.16974,7.60386 -0.74097,13.421274 H 151.88956 C 151.3183,90.581572 151.1486,82.977712 151.1486,82.977712 V 53.586818 Z"
         id="path4721" />
      <path
         id="path4731"
         d="m 174.44578,41.024718 c 0,1.635155 -1.32555,2.960709 -2.96071,2.960703 -1.63516,6e-6 -2.96071,-1.325548 -2.96071,-2.960703 0,-1.635156 1.32555,-2.960711 2.96071,-2.960705 1.63516,-6e-6 2.96072,1.325549 2.96071,2.960705 z"
         style="fill:#a05a2c;stroke:#000000;stroke-width:0.1690838" />
      <path
         style="fill:#c87137;stroke:#000000;stroke-width:0.06675909"
         d="m 173.98117,41.024718 c 0,1.378557 -1.11755,2.4961 -2.4961,2.4961 -1.37857,0 -2.4961,-1.117543 -2.4961,-2.4961 0,-1.378557 1.11753,-2.496102 2.4961,-2.496102 1.37855,0 2.4961,1.117545 2.4961,2.496102 z"
         id="path4733" />
      <path
         id="path4735"
         d="m 172.98516,41.024718 c 0,0.828475 -0.67163,1.50009 -1.50009,1.50009 -0.82848,0 -1.5001,-0.671615 -1.5001,-1.50009 0,-0.828477 0.67162,-1.500092 1.5001,-1.500092 0.82846,0 1.50009,0.671615 1.50009,1.500092 z"
         style="fill:#c87137;stroke:#000000;stroke-width:0.01335067" />
      <path
         style="fill:#a05a2c;stroke:#000000;stroke-width:0.1690838"
         d="m 174.44578,79.656958 c 0,1.635156 -1.32555,2.96071 -2.96071,2.960704 -1.63516,6e-6 -2.96071,-1.325548 -2.96071,-2.960704 0,-1.635156 1.32555,-2.960711 2.96071,-2.960705 1.63516,-6e-6 2.96072,1.325549 2.96071,2.960705 z"
         id="path4737" />
      <path
         id="path4739"
         d="m 173.98117,79.656958 c 0,1.378558 -1.11755,2.496101 -2.4961,2.496101 -1.37857,0 -2.4961,-1.117543 -2.4961,-2.496101 0,-1.378557 1.11753,-2.496102 2.4961,-2.496102 1.37855,0 2.4961,1.117545 2.4961,2.496102 z"
         style="fill:#c87137;stroke:#000000;stroke-width:0.06675909" />
      <path
         style="fill:#c87137;stroke:#000000;stroke-width:0.01335067"
         d="m 172.98516,79.656958 c 0,0.828476 -0.67163,1.50009 -1.50009,1.50009 -0.82848,0 -1.5001,-0.671614 -1.5001,-1.50009 0,-0.828477 0.67162,-1.500091 1.5001,-1.500091 0.82846,0 1.50009,0.671614 1.50009,1.500091 z"
         id="path4741" />
      <path
         id="path4759"
         d="m 174.44578,108.81351 c 0,1.63515 -1.32555,2.96071 -2.96071,2.9607 -1.63516,1e-5 -2.96071,-1.32555 -2.96071,-2.9607 0,-1.63516 1.32555,-2.96071 2.96071,-2.96071 1.63516,0 2.96072,1.32555 2.96071,2.96071 z"
         style="fill:#a05a2c;stroke:#000000;stroke-width:0.1690838" />
      <path
         style="fill:#c87137;stroke:#000000;stroke-width:0.06675909"
         d="m 173.98117,108.81351 c 0,1.37855 -1.11755,2.4961 -2.4961,2.4961 -1.37857,0 -2.4961,-1.11755 -2.4961,-2.4961 0,-1.37856 1.11753,-2.4961 2.4961,-2.4961 1.37855,0 2.4961,1.11754 2.4961,2.4961 z"
         id="path4761" />
      <path
         id="path4763"
         d="m 172.98516,108.81351 c 0,0.82847 -0.67163,1.50009 -1.50009,1.50009 -0.82848,0 -1.5001,-0.67162 -1.5001,-1.50009 0,-0.82848 0.67162,-1.50009 1.5001,-1.50009 0.82846,0 1.50009,0.67161 1.50009,1.50009 z"
         style="fill:#c87137;stroke:#000000;stroke-width:0.01335067" />
    </g>
  </g>
</svg>
