<?xml version="1.0" encoding="UTF-8" standalone="no"?>
<svg
   xmlns:dc="http://purl.org/dc/elements/1.1/"
   xmlns:cc="http://creativecommons.org/ns#"
   xmlns:rdf="http://www.w3.org/1999/02/22-rdf-syntax-ns#"
   xmlns:svg="http://www.w3.org/2000/svg"
   xmlns="http://www.w3.org/2000/svg"
   id="svg8"
   version="1.1"
   viewBox="0 0 28.445959 106.90399"
   height="106.90399mm"
   width="28.445959mm">
  <defs
     id="defs2" />
  <metadata
     id="metadata5">
    <rdf:RDF>
      <cc:Work
         rdf:about="">
        <dc:format>image/svg+xml</dc:format>
        <dc:type
           rdf:resource="http://purl.org/dc/dcmitype/StillImage" />
        <dc:title></dc:title>
      </cc:Work>
    </rdf:RDF>
  </metadata>
  <g
     transform="translate(-103.88778,-15.473847)"
     id="layer1">
    <g
       id="g5196">
      <path
         style="fill:#a05a2c;fill-opacity:1;stroke:#000000;stroke-width:0.255;stroke-miterlimit:4;stroke-dasharray:none"
         d="m 116.34744,24.21685 c 0.82528,-1.82642 1.15024,-4.716809 1.15084,-4.724211 l 0.14889,-1.828296 0.4636,-1.704652 0.4636,1.704652 0.14888,1.828296 c 0.0247,0.303596 0.32559,2.897791 1.15084,4.724211 0.82526,1.826418 3.5348,7.203253 4.92932,10.957796 1.73553,4.67269 3.22889,10.275972 4.25503,14.335607 1.02613,4.059637 1.44547,8.079045 1.9268,12.123348 0.48133,4.044304 0.76278,8.08044 0.9634,12.123349 0.20062,4.042911 0.20071,6.883726 0.24085,10.925041 0.0401,4.041316 0.0392,8.100994 -0.36871,12.123349 -0.4547,4.48384 -0.99977,9.00959 -2.31038,13.32165 -1.28612,4.2315 -5.39089,12.12335 -5.39089,12.12335 h -12.01748 c 0,0 -4.10477,-7.89185 -5.3909,-12.12335 -1.31061,-4.31206 -1.85568,-8.83781 -2.31038,-13.32165 -0.4079,-4.022355 -0.40885,-8.082033 -0.36871,-12.123349 0.0401,-4.041315 0.0402,-6.88213 0.24085,-10.925041 0.20062,-4.042909 0.48207,-8.079045 0.96341,-12.123349 0.48133,-4.044303 0.90066,-8.063711 1.9268,-12.123348 1.02614,-4.059635 2.5195,-9.662917 4.25503,-14.335607 1.39452,-3.754543 4.10403,-9.131378 4.92931,-10.957796 z"
         id="rect4767" />
      <path
         id="path4806"
         d="m 116.49439,27.95753 c 0.75651,-1.674218 1.05438,-4.323741 1.05493,-4.330527 l 0.13648,-1.675936 0.42497,-1.562599 0.42497,1.562599 c 0,0 0.1314,1.526322 0.13648,1.675936 0,0 0.29845,2.656309 1.05493,4.330527 0.75649,1.674218 3.24023,6.602983 4.51854,10.044648 1.59091,4.283298 2.95982,9.419639 3.90044,13.140972 0.94063,3.721334 1.32502,7.40579 1.76624,11.113069 0.44122,3.707278 0.69922,7.40707 0.88312,11.113071 0.1839,3.706 0.18398,6.310081 0.22078,10.014621 0.0368,3.704538 0.0359,7.42591 -0.33798,11.113069 -0.41681,4.110189 -0.91646,8.25879 -2.11785,12.21152 -1.17895,3.87887 -4.94166,11.11306 -4.94166,11.11306 h -11.01602 c 0,0 -3.76271,-7.23419 -4.94165,-11.11306 -1.20139,-3.95273 -1.70104,-8.101331 -2.11785,-12.21152 -0.37391,-3.687159 -0.37479,-7.408531 -0.33799,-11.113069 0.0368,-3.70454 0.0369,-6.308621 0.22078,-10.014621 0.18391,-3.706001 0.4419,-7.405793 0.88312,-11.113071 0.44122,-3.707279 0.82561,-7.391735 1.76624,-11.113069 0.94063,-3.721333 2.30954,-8.857674 3.90045,-13.140972 1.2783,-3.441665 3.76202,-8.37043 4.51853,-10.044648 z"
         style="fill:#d38d5f;fill-opacity:1;stroke:#000000;stroke-width:0.255;stroke-miterlimit:4;stroke-dasharray:none" />
      <path
         id="path4788"
         d="m 117.69818,74.616579 c 0,0 1.17909,1.431225 1.65066,2.845484 0.47156,1.414259 0.84404,2.075987 0.96688,4.355886 0.12284,2.2799 -0.67308,9.739722 -0.67308,9.739722 h -3.88892 c 0,0 -0.79593,-7.459822 -0.67308,-9.739722 0.12284,-2.279899 0.49532,-2.941627 0.96689,-4.355886 0.47156,-1.414259 1.65065,-2.845484 1.65065,-2.845484 z"
         style="fill:#c87137;stroke:#000000;stroke-width:0.255;stroke-miterlimit:4;stroke-dasharray:none" />
      <path
         style="fill:#a05a2c;fill-opacity:1;stroke:#000000;stroke-width:0.1;stroke-miterlimit:4;stroke-dasharray:none"
         d="m 117.43136,78.336005 h 0.52946 v 13.174497 h -0.52946 z"
         id="rect4792" />
      <path
         style="fill:#c87137;stroke:#000000;stroke-width:0.255;stroke-miterlimit:4;stroke-dasharray:none"
         d="m 117.69818,61.409848 c 0,0 1.17909,1.431225 1.65066,2.845484 0.47156,1.414259 0.84404,2.075987 0.96688,4.355886 0.12284,2.2799 -0.67308,9.739722 -0.67308,9.739722 h -3.88892 c 0,0 -0.79593,-7.459822 -0.67308,-9.739722 0.12284,-2.279899 0.49532,-2.941627 0.96689,-4.355886 0.47156,-1.414259 1.65065,-2.845484 1.65065,-2.845484 z"
         id="path4790" />
      <path
         id="path4795"
         d="m 117.43136,61.913296 0.26473,-0.353752 0.26473,0.353752 v 16.422709 h -0.52946 z"
         style="fill:#a05a2c;fill-opacity:1;stroke:#000000;stroke-width:0.1;stroke-miterlimit:4;stroke-dasharray:none" />
      <path
         style="fill:#ffeeaa;fill-opacity:1;stroke:#000000;stroke-width:0.1;stroke-miterlimit:4;stroke-dasharray:none"
         d="m 115.69691,65.060832 h 4.01892 l 0.15009,0.400224 h -4.31909 z"
         id="rect4797" />
      <path
         id="path4800"
         d="m 115.62889,76.953442 4.12012,0.360115 0.0431,-0.397978 -4.13656,-0.361553 z"
         style="fill:#ffeeaa;fill-opacity:1;stroke:#000000;stroke-width:0.1;stroke-miterlimit:4;stroke-dasharray:none" />
      <path
         id="path4776"
         d="m 120.03523,58.4362 c 0,1.248539 -1.01215,2.260679 -2.26069,2.260674 -1.24854,5e-6 -2.26068,-1.012135 -2.26068,-2.260674 0,-1.24854 1.01214,-2.260681 2.26068,-2.260677 1.24854,-4e-6 2.26069,1.012137 2.26069,2.260677 z"
         style="fill:#a05a2c;stroke:#000000;stroke-width:0.1690838" />
      <path
         style="fill:#c87137;stroke:#000000;stroke-width:0.06675909"
         d="m 119.68046,58.4362 c 0,1.052611 -0.85331,1.905922 -1.90592,1.905922 -1.05262,0 -1.90592,-0.853311 -1.90592,-1.905922 0,-1.052612 0.8533,-1.905924 1.90592,-1.905924 1.05261,0 1.90592,0.853312 1.90592,1.905924 z"
         id="path4778" />
      <path
         id="path4780"
         d="m 118.91995,58.4362 c 0,0.63259 -0.51283,1.145408 -1.14541,1.145408 -0.63259,0 -1.14542,-0.512818 -1.14542,-1.145408 0,-0.632592 0.51283,-1.14541 1.14542,-1.14541 0.63258,0 1.14541,0.512818 1.14541,1.14541 z"
         style="fill:#c87137;stroke:#000000;stroke-width:0.01335067" />
      <path
         style="fill:#a05a2c;stroke:#000000;stroke-width:0.1690838"
         d="m 120.03523,95.22638 c 0,1.24854 -1.01215,2.26068 -2.26069,2.260675 -1.24854,5e-6 -2.26068,-1.012135 -2.26068,-2.260675 0,-1.24854 1.01214,-2.26068 2.26068,-2.260676 1.24854,-4e-6 2.26069,1.012136 2.26069,2.260676 z"
         id="path4782" />
      <path
         id="path4784"
         d="m 119.68046,95.22638 c 0,1.052612 -0.85331,1.905923 -1.90592,1.905923 -1.05262,0 -1.90592,-0.853311 -1.90592,-1.905923 0,-1.052611 0.8533,-1.905923 1.90592,-1.905923 1.05261,0 1.90592,0.853312 1.90592,1.905923 z"
         style="fill:#c87137;stroke:#000000;stroke-width:0.06675909" />
      <path
         style="fill:#c87137;stroke:#000000;stroke-width:0.01335067"
         d="m 118.91995,95.22638 c 0,0.632591 -0.51283,1.145409 -1.14541,1.145409 -0.63259,0 -1.14542,-0.512818 -1.14542,-1.145409 0,-0.632592 0.51283,-1.14541 1.14542,-1.14541 0.63258,0 1.14541,0.512818 1.14541,1.14541 z"
         id="path4786" />
      <path
         style="fill:#ffeeaa;fill-opacity:1;stroke:#000000;stroke-width:0.1;stroke-miterlimit:4;stroke-dasharray:none"
         d="m 115.63846,90.553251 h 4.13583 l 0.008,-0.400224 h -4.15233 z"
         id="path4802" />
    </g>
  </g>
</svg>
