<?xml version="1.0" encoding="UTF-8" standalone="no"?>
<svg
   xmlns:dc="http://purl.org/dc/elements/1.1/"
   xmlns:cc="http://creativecommons.org/ns#"
   xmlns:rdf="http://www.w3.org/1999/02/22-rdf-syntax-ns#"
   xmlns:svg="http://www.w3.org/2000/svg"
   xmlns="http://www.w3.org/2000/svg"
   id="svg8"
   version="1.1"
   viewBox="0 0 6.9254184 21.806999"
   height="21.806999mm"
   width="6.9254184mm">
  <defs
     id="defs2" />
  <metadata
     id="metadata5">
    <rdf:RDF>
      <cc:Work
         rdf:about="">
        <dc:format>image/svg+xml</dc:format>
        <dc:type
           rdf:resource="http://purl.org/dc/dcmitype/StillImage" />
        <dc:title></dc:title>
      </cc:Work>
    </rdf:RDF>
  </metadata>
  <g
     transform="translate(-27.277297,-58.2887)"
     id="layer1">
    <g
       id="g4948">
      <path
         style="fill:#c87137;stroke:#000000;stroke-width:0.255;stroke-miterlimit:4;stroke-dasharray:none"
         d="m 30.740005,58.48922 c 0,0 1.494926,1.81459 2.092807,3.60768 0.597877,1.79308 1.070128,2.63206 1.225879,5.52266 0.155755,2.8906 -0.853377,12.34864 -0.853377,12.34864 h -4.930616 c 0,0 -1.009132,-9.45804 -0.853377,-12.34864 0.155751,-2.8906 0.628002,-3.72958 1.225879,-5.52266 0.597881,-1.79309 2.092805,-3.60768 2.092805,-3.60768 z"
         id="rect54" />
      <path
         id="path4568"
         d="m 30.740005,58.96354 c 0,0 1.339601,1.62606 1.875362,3.23284 0.535758,1.60678 0.958941,2.35859 1.098506,4.94886 h -5.947739 c 0.139574,-2.59027 0.562753,-3.34208 1.098515,-4.94886 0.535757,-1.60678 1.875356,-3.23284 1.875356,-3.23284 z"
         style="fill:#d45500;stroke:#000000;stroke-width:0.255;stroke-miterlimit:4;stroke-dasharray:none" />
      <path
         id="path4570"
         d="m 33.660492,67.92694 c 0.137067,2.54377 -0.750981,11.30042 -0.750981,11.30042 H 28.5705 c 0,0 -0.888047,-8.75665 -0.750984,-11.30042 z"
         style="fill:#aa4400;stroke:#000000;stroke-width:0.22440343;stroke-miterlimit:4;stroke-dasharray:none" />
      <path
         id="path4572"
         d="m 31.502585,69.22971 c 2e-6,0.35857 -0.290672,0.64924 -0.649236,0.64924 -0.358563,0 -0.649235,-0.29068 -0.649234,-0.64924 10e-7,-0.35856 0.290673,-0.64923 0.649234,-0.64923 0.358562,0 0.649235,0.29067 0.649236,0.64923 z"
         style="fill:#a05a2c;stroke:#000000;stroke-width:0.1690838" />
      <path
         style="fill:#c87137;stroke:#000000;stroke-width:0.06675909"
         d="m 31.400702,69.22971 c 0,0.3023 -0.245058,0.54735 -0.547353,0.54735 -0.302295,0 -0.547354,-0.24505 -0.547354,-0.54735 0,-0.30229 0.245059,-0.54735 0.547354,-0.54735 0.302295,0 0.547353,0.24506 0.547353,0.54735 z"
         id="path4574" />
      <path
         id="path4576"
         d="m 31.182295,69.22971 c 0,0.18167 -0.147277,0.32895 -0.328946,0.32895 -0.181672,0 -0.328946,-0.14728 -0.328946,-0.32895 0,-0.18167 0.147274,-0.32894 0.328946,-0.32894 0.181669,0 0.328946,0.14727 0.328946,0.32894 z"
         style="fill:#c87137;stroke:#000000;stroke-width:0.01335067" />
    </g>
  </g>
</svg>
