<?xml version="1.0" encoding="UTF-8" standalone="no"?>
<svg
   xmlns:dc="http://purl.org/dc/elements/1.1/"
   xmlns:cc="http://creativecommons.org/ns#"
   xmlns:rdf="http://www.w3.org/1999/02/22-rdf-syntax-ns#"
   xmlns:svg="http://www.w3.org/2000/svg"
   xmlns="http://www.w3.org/2000/svg"
   id="svg8"
   version="1.1"
   viewBox="0 0 36.961529 57.089756"
   height="57.089756mm"
   width="36.961529mm">
  <defs
     id="defs2" />
  <metadata
     id="metadata5">
    <rdf:RDF>
      <cc:Work
         rdf:about="">
        <dc:format>image/svg+xml</dc:format>
        <dc:type
           rdf:resource="http://purl.org/dc/dcmitype/StillImage" />
        <dc:title></dc:title>
      </cc:Work>
    </rdf:RDF>
  </metadata>
  <g
     transform="translate(-56.420497,-52.356197)"
     id="layer1">
    <g
       id="g5177">
      <path
         style="fill:#552200;fill-opacity:1;stroke:#000000;stroke-width:0.22674716;stroke-miterlimit:4;stroke-dasharray:none"
         d="m 75.519064,59.411477 c 0.520376,2.056684 3.229802,4.432831 4.343733,8.034286 1.113949,3.601455 1.404029,8.916997 1.404029,13.412139 0,4.495141 -0.29008,9.810682 -1.404029,13.412136 -1.113931,3.601456 -3.823357,5.977602 -4.343733,8.034282 h -1.510179 c -0.520376,-2.05668 -3.229803,-4.432826 -4.343733,-8.034282 -1.113948,-3.601454 -1.404029,-8.916995 -1.404029,-13.412136 0,-4.495142 0.290081,-9.810684 1.404029,-13.412139 1.11393,-3.601455 3.823357,-5.977602 4.343733,-8.034286 z"
         id="path4591" />
      <path
         style="fill:#aa4400;fill-opacity:1;stroke:#000000;stroke-width:0.255;stroke-miterlimit:4;stroke-dasharray:none"
         d="m 68.988268,67.543075 h 11.405966 v 0.644052 H 68.988268 Z"
         id="rect4594" />
      <path
         style="fill:#aa4400;fill-opacity:1;stroke:#000000;stroke-width:0.27291453;stroke-miterlimit:4;stroke-dasharray:none"
         d="m 68.158811,71.760584 h 13.064868 v 0.644052 H 68.158811 Z"
         id="rect4596" />
      <path
         style="fill:#aa4400;fill-opacity:1;stroke:#000000;stroke-width:0.2769157;stroke-miterlimit:4;stroke-dasharray:none"
         d="m 67.965865,76.123518 h 13.450764 v 0.644053 H 67.965865 Z"
         id="rect4598" />
      <path
         style="fill:#aa4400;fill-opacity:1;stroke:#000000;stroke-width:0.2769157;stroke-miterlimit:4;stroke-dasharray:none"
         d="m 67.965865,80.195595 h 13.450764 v 0.644053 H 67.965865 Z"
         id="rect4600" />
      <path
         style="fill:#aa4400;fill-opacity:1;stroke:#000000;stroke-width:0.2769157;stroke-miterlimit:4;stroke-dasharray:none"
         d="m 67.965865,84.350774 h 13.450764 v 0.644052 H 67.965865 Z"
         id="rect4602" />
      <path
         style="fill:#aa4400;fill-opacity:1;stroke:#000000;stroke-width:0.2769157;stroke-miterlimit:4;stroke-dasharray:none"
         d="m 67.965865,88.505951 h 13.450764 v 0.644052 H 67.965865 Z"
         id="rect4604" />
      <path
         style="fill:#aa4400;fill-opacity:1;stroke:#000000;stroke-width:0.25731975;stroke-miterlimit:4;stroke-dasharray:none"
         d="m 68.884025,93.450609 h 11.614434 v 0.644053 H 68.884025 Z"
         id="rect4606" />
      <path
         style="fill:#803300;fill-opacity:1;stroke:#000000;stroke-width:0.255;stroke-miterlimit:4;stroke-dasharray:none"
         d="m 74.310082,52.484348 c -0.0924,0.0078 -0.215197,0.07522 -0.395393,0.255414 -0.576623,0.576626 0.585228,1.730494 0,4.043442 -0.585216,2.31295 -3.631935,4.985173 -4.884671,9.035371 -1.252744,4.050199 -1.579293,10.028254 -1.579293,15.083497 0,5.055238 0.326549,11.032838 1.579293,15.083037 1.252736,4.050201 4.299455,6.722421 4.884671,9.035371 0.585228,2.31295 -0.576623,3.46726 0,4.04389 0.576629,0.57664 0.56635,0 0.84941,0 0.283054,0 0.272331,0.57664 0.848956,0 0.576627,-0.57663 -0.585227,-1.73094 0,-4.04389 0.585218,-2.31295 3.632392,-4.98517 4.885126,-9.035371 1.252745,-4.050199 1.578839,-10.027799 1.578839,-15.083037 0,-5.055243 -0.326094,-11.033298 -1.578839,-15.083497 -1.252734,-4.050198 -4.299908,-6.722421 -4.885126,-9.035371 -0.585227,-2.312948 0.576627,-3.466816 0,-4.043442 -0.576625,-0.576626 -0.565902,0 -0.848956,0 -0.194605,0 -0.250741,-0.272448 -0.454017,-0.255414 z m -0.301316,6.971155 h 1.510212 c 0.520377,2.056685 3.229921,4.432714 4.343851,8.034169 1.113949,3.601454 1.403867,8.917256 1.403867,13.4124 0,4.49514 -0.289918,9.810487 -1.403867,13.411941 -1.11393,3.601456 -3.823474,5.977487 -4.343851,8.034167 H 74.008766 C 73.48839,100.2915 70.7793,97.915469 69.66537,94.314013 68.551422,90.712559 68.26105,85.397212 68.26105,80.902072 c 0,-4.495144 0.290372,-9.810946 1.40432,-13.4124 1.11393,-3.601455 3.82302,-5.977484 4.343396,-8.034169 z"
         id="rect4583" />
      <path
         style="fill:#aa4400;fill-opacity:1;stroke:#000000;stroke-width:0.255;stroke-miterlimit:4;stroke-dasharray:none"
         d="m 74.065531,90.44469 0.114374,0.51641 -16.121765,3.570575 -0.114373,-0.51641 z"
         id="rect4610" />
      <path
         id="path4613"
         d="m 73.192941,85.666234 0.114374,0.51641 -16.121765,3.570575 -0.114373,-0.51641 z"
         style="fill:#aa4400;fill-opacity:1;stroke:#000000;stroke-width:0.255;stroke-miterlimit:4;stroke-dasharray:none" />
      <path
         style="fill:#aa4400;fill-opacity:1;stroke:#000000;stroke-width:0.255;stroke-miterlimit:4;stroke-dasharray:none"
         d="m 73.068286,81.511056 0.114374,0.51641 -16.121764,3.570575 -0.114374,-0.51641 z"
         id="path4615" />
      <path
         id="path4617"
         d="m 73.026732,77.272774 0.114374,0.51641 -16.121765,3.570576 -0.114373,-0.51641 z"
         style="fill:#aa4400;fill-opacity:1;stroke:#000000;stroke-width:0.255;stroke-miterlimit:4;stroke-dasharray:none" />
      <path
         style="fill:#aa4400;fill-opacity:1;stroke:#000000;stroke-width:0.255;stroke-miterlimit:4;stroke-dasharray:none"
         d="m 72.694314,72.618972 0.114374,0.516411 -16.121764,3.570576 -0.114373,-0.51641 z"
         id="path4619" />
      <path
         id="path4621"
         d="m 72.860522,68.713104 0.114374,0.51641 -16.121763,3.570576 -0.114374,-0.51641 z"
         style="fill:#aa4400;fill-opacity:1;stroke:#000000;stroke-width:0.255;stroke-miterlimit:4;stroke-dasharray:none" />
      <path
         id="path4635"
         d="m 75.736995,90.44469 -0.114374,0.51641 16.121763,3.570575 0.114374,-0.51641 z"
         style="fill:#aa4400;fill-opacity:1;stroke:#000000;stroke-width:0.255;stroke-miterlimit:4;stroke-dasharray:none" />
      <path
         style="fill:#aa4400;fill-opacity:1;stroke:#000000;stroke-width:0.255;stroke-miterlimit:4;stroke-dasharray:none"
         d="m 76.609584,85.666234 -0.114373,0.51641 16.121763,3.570575 0.114374,-0.51641 z"
         id="path4637" />
      <path
         id="path4639"
         d="m 76.734238,81.511056 -0.114374,0.51641 16.121765,3.570575 0.114373,-0.51641 z"
         style="fill:#aa4400;fill-opacity:1;stroke:#000000;stroke-width:0.255;stroke-miterlimit:4;stroke-dasharray:none" />
      <path
         style="fill:#aa4400;fill-opacity:1;stroke:#000000;stroke-width:0.255;stroke-miterlimit:4;stroke-dasharray:none"
         d="m 76.775793,77.272774 -0.114374,0.51641 16.121764,3.570576 0.114373,-0.51641 z"
         id="path4641" />
      <path
         id="path4643"
         d="m 77.108211,72.618972 -0.114374,0.516411 16.121766,3.570576 0.11437,-0.51641 z"
         style="fill:#aa4400;fill-opacity:1;stroke:#000000;stroke-width:0.255;stroke-miterlimit:4;stroke-dasharray:none" />
      <path
         style="fill:#aa4400;fill-opacity:1;stroke:#000000;stroke-width:0.255;stroke-miterlimit:4;stroke-dasharray:none"
         d="m 76.942001,68.713104 -0.114373,0.51641 16.121764,3.570576 0.114371,-0.51641 z"
         id="path4645" />
      <path
         style="fill:#a05a2c;stroke:#000000;stroke-width:0.1690838"
         d="m 76.224329,80.423938 c 0,0.777749 -0.630492,1.408239 -1.408241,1.408236 -0.77775,3e-6 -1.408242,-0.630487 -1.408242,-1.408236 -1e-6,-0.777749 0.630491,-1.408239 1.408242,-1.408236 0.777749,-3e-6 1.408241,0.630487 1.408241,1.408236 z"
         id="path4647" />
      <path
         id="path4649"
         d="m 76.003338,80.423938 c 0,0.655701 -0.531553,1.187251 -1.18725,1.187251 -0.655707,0 -1.187252,-0.53155 -1.187252,-1.187251 0,-0.6557 0.531545,-1.187252 1.187252,-1.187252 0.655697,0 1.18725,0.531552 1.18725,1.187252 z"
         style="fill:#c87137;stroke:#000000;stroke-width:0.06675909" />
      <path
         style="fill:#c87137;stroke:#000000;stroke-width:0.01335067"
         d="m 75.529591,80.423938 c 0,0.394059 -0.319454,0.713507 -0.713503,0.713507 -0.39406,0 -0.713514,-0.319448 -0.713514,-0.713507 0,-0.394059 0.319454,-0.713507 0.713514,-0.713507 0.394049,0 0.713503,0.319448 0.713503,0.713507 z"
         id="path4651" />
      <path
         id="path4665"
         d="m 75.519064,59.411477 c 0.520376,2.056684 3.229802,4.432831 4.343733,8.034286 1.113949,3.601455 1.404029,8.916997 1.404029,13.412139 0,4.495141 -0.29008,9.810682 -1.404029,13.412136 -1.113931,3.601456 -3.823357,5.977602 -4.343733,8.034282 h -1.510179 c -0.520376,-2.05668 -3.229803,-4.432826 -4.343733,-8.034282 -1.113948,-3.601454 -1.404029,-8.916995 -1.404029,-13.412136 0,-4.495142 0.290081,-9.810684 1.404029,-13.412139 1.11393,-3.601455 3.823357,-5.977602 4.343733,-8.034286 z"
         style="fill:#552200;fill-opacity:1;stroke:#000000;stroke-width:0.22674716;stroke-miterlimit:4;stroke-dasharray:none" />
      <path
         style="fill:#aa4400;fill-opacity:1;stroke:#000000;stroke-width:0.255;stroke-miterlimit:4;stroke-dasharray:none"
         d="m 68.988268,67.543075 h 11.405966 v 0.644052 H 68.988268 Z"
         id="rect4667" />
      <path
         style="fill:#aa4400;fill-opacity:1;stroke:#000000;stroke-width:0.27291453;stroke-miterlimit:4;stroke-dasharray:none"
         d="m 68.158811,71.760584 h 13.064868 v 0.644052 H 68.158811 Z"
         id="rect4669" />
      <path
         style="fill:#aa4400;fill-opacity:1;stroke:#000000;stroke-width:0.2769157;stroke-miterlimit:4;stroke-dasharray:none"
         d="m 67.965865,76.123518 h 13.450764 v 0.644053 H 67.965865 Z"
         id="rect4671" />
      <path
         style="fill:#aa4400;fill-opacity:1;stroke:#000000;stroke-width:0.2769157;stroke-miterlimit:4;stroke-dasharray:none"
         d="m 67.965865,80.195595 h 13.450764 v 0.644053 H 67.965865 Z"
         id="rect4673" />
      <path
         style="fill:#aa4400;fill-opacity:1;stroke:#000000;stroke-width:0.2769157;stroke-miterlimit:4;stroke-dasharray:none"
         d="m 67.965865,84.350774 h 13.450764 v 0.644052 H 67.965865 Z"
         id="rect4675" />
      <path
         style="fill:#aa4400;fill-opacity:1;stroke:#000000;stroke-width:0.2769157;stroke-miterlimit:4;stroke-dasharray:none"
         d="m 67.965865,88.505951 h 13.450764 v 0.644052 H 67.965865 Z"
         id="rect4677" />
      <path
         style="fill:#aa4400;fill-opacity:1;stroke:#000000;stroke-width:0.25731975;stroke-miterlimit:4;stroke-dasharray:none"
         d="m 68.884025,93.450609 h 11.614434 v 0.644053 H 68.884025 Z"
         id="rect4679" />
      <path
         id="path4681"
         d="m 74.310082,52.484348 c -0.0924,0.0078 -0.215197,0.07522 -0.395393,0.255414 -0.576623,0.576626 0.585228,1.730494 0,4.043442 -0.585216,2.31295 -3.631935,4.985173 -4.884671,9.035371 -1.252744,4.050199 -1.579293,10.028254 -1.579293,15.083497 0,5.055238 0.326549,11.032838 1.579293,15.083037 1.252736,4.050201 4.299455,6.722421 4.884671,9.035371 0.585228,2.31295 -0.576623,3.46726 0,4.04389 0.576629,0.57664 0.56635,0 0.84941,0 0.283054,0 0.272331,0.57664 0.848956,0 0.576627,-0.57663 -0.585227,-1.73094 0,-4.04389 0.585218,-2.31295 3.632392,-4.98517 4.885126,-9.035371 1.252745,-4.050199 1.578839,-10.027799 1.578839,-15.083037 0,-5.055243 -0.326094,-11.033298 -1.578839,-15.083497 -1.252734,-4.050198 -4.299908,-6.722421 -4.885126,-9.035371 -0.585227,-2.312948 0.576627,-3.466816 0,-4.043442 -0.576625,-0.576626 -0.565902,0 -0.848956,0 -0.194605,0 -0.250741,-0.272448 -0.454017,-0.255414 z m -0.301316,6.971155 h 1.510212 c 0.520377,2.056685 3.229921,4.432714 4.343851,8.034169 1.113949,3.601454 1.403867,8.917256 1.403867,13.4124 0,4.49514 -0.289918,9.810487 -1.403867,13.411941 -1.11393,3.601456 -3.823474,5.977487 -4.343851,8.034167 H 74.008766 C 73.48839,100.2915 70.7793,97.915469 69.66537,94.314013 68.551422,90.712559 68.26105,85.397212 68.26105,80.902072 c 0,-4.495144 0.290372,-9.810946 1.40432,-13.4124 1.11393,-3.601455 3.82302,-5.977484 4.343396,-8.034169 z"
         style="fill:#803300;fill-opacity:1;stroke:#000000;stroke-width:0.255;stroke-miterlimit:4;stroke-dasharray:none" />
      <path
         id="path4683"
         d="m 74.065531,90.44469 0.114374,0.51641 -16.121765,3.570575 -0.114373,-0.51641 z"
         style="fill:#aa4400;fill-opacity:1;stroke:#000000;stroke-width:0.255;stroke-miterlimit:4;stroke-dasharray:none" />
      <path
         style="fill:#aa4400;fill-opacity:1;stroke:#000000;stroke-width:0.255;stroke-miterlimit:4;stroke-dasharray:none"
         d="m 73.192941,85.666234 0.114374,0.51641 -16.121765,3.570575 -0.114373,-0.51641 z"
         id="path4685" />
      <path
         id="path4687"
         d="m 73.068286,81.511056 0.114374,0.51641 -16.121764,3.570575 -0.114374,-0.51641 z"
         style="fill:#aa4400;fill-opacity:1;stroke:#000000;stroke-width:0.255;stroke-miterlimit:4;stroke-dasharray:none" />
      <path
         style="fill:#aa4400;fill-opacity:1;stroke:#000000;stroke-width:0.255;stroke-miterlimit:4;stroke-dasharray:none"
         d="m 73.026732,77.272774 0.114374,0.51641 -16.121765,3.570576 -0.114373,-0.51641 z"
         id="path4689" />
      <path
         id="path4691"
         d="m 72.694314,72.618972 0.114374,0.516411 -16.121764,3.570576 -0.114373,-0.51641 z"
         style="fill:#aa4400;fill-opacity:1;stroke:#000000;stroke-width:0.255;stroke-miterlimit:4;stroke-dasharray:none" />
      <path
         style="fill:#aa4400;fill-opacity:1;stroke:#000000;stroke-width:0.255;stroke-miterlimit:4;stroke-dasharray:none"
         d="m 72.860522,68.713104 0.114374,0.51641 -16.121763,3.570576 -0.114374,-0.51641 z"
         id="path4693" />
      <path
         style="fill:#aa4400;fill-opacity:1;stroke:#000000;stroke-width:0.255;stroke-miterlimit:4;stroke-dasharray:none"
         d="m 75.736995,90.44469 -0.114374,0.51641 16.121763,3.570575 0.114374,-0.51641 z"
         id="path4695" />
      <path
         id="path4697"
         d="m 76.609584,85.666234 -0.114373,0.51641 16.121763,3.570575 0.114374,-0.51641 z"
         style="fill:#aa4400;fill-opacity:1;stroke:#000000;stroke-width:0.255;stroke-miterlimit:4;stroke-dasharray:none" />
      <path
         style="fill:#aa4400;fill-opacity:1;stroke:#000000;stroke-width:0.255;stroke-miterlimit:4;stroke-dasharray:none"
         d="m 76.734238,81.511056 -0.114374,0.51641 16.121765,3.570575 0.114373,-0.51641 z"
         id="path4699" />
      <path
         id="path4701"
         d="m 76.775793,77.272774 -0.114374,0.51641 16.121764,3.570576 0.114373,-0.51641 z"
         style="fill:#aa4400;fill-opacity:1;stroke:#000000;stroke-width:0.255;stroke-miterlimit:4;stroke-dasharray:none" />
      <path
         style="fill:#aa4400;fill-opacity:1;stroke:#000000;stroke-width:0.255;stroke-miterlimit:4;stroke-dasharray:none"
         d="m 77.108211,72.618972 -0.114374,0.516411 16.121766,3.570576 0.11437,-0.51641 z"
         id="path4703" />
      <path
         id="path4705"
         d="m 76.942001,68.713104 -0.114373,0.51641 16.121764,3.570576 0.114371,-0.51641 z"
         style="fill:#aa4400;fill-opacity:1;stroke:#000000;stroke-width:0.255;stroke-miterlimit:4;stroke-dasharray:none" />
      <path
         id="path4707"
         d="m 76.224329,80.423938 c 0,0.777749 -0.630492,1.408239 -1.408241,1.408236 -0.77775,3e-6 -1.408242,-0.630487 -1.408242,-1.408236 -1e-6,-0.777749 0.630491,-1.408239 1.408242,-1.408236 0.777749,-3e-6 1.408241,0.630487 1.408241,1.408236 z"
         style="fill:#a05a2c;stroke:#000000;stroke-width:0.1690838" />
      <path
         style="fill:#c87137;stroke:#000000;stroke-width:0.06675909"
         d="m 76.003338,80.423938 c 0,0.655701 -0.531553,1.187251 -1.18725,1.187251 -0.655707,0 -1.187252,-0.53155 -1.187252,-1.187251 0,-0.6557 0.531545,-1.187252 1.187252,-1.187252 0.655697,0 1.18725,0.531552 1.18725,1.187252 z"
         id="path4709" />
      <path
         id="path4711"
         d="m 75.529591,80.423938 c 0,0.394059 -0.319454,0.713507 -0.713503,0.713507 -0.39406,0 -0.713514,-0.319448 -0.713514,-0.713507 0,-0.394059 0.319454,-0.713507 0.713514,-0.713507 0.394049,0 0.713503,0.319448 0.713503,0.713507 z"
         style="fill:#c87137;stroke:#000000;stroke-width:0.01335067" />
    </g>
  </g>
</svg>
