<?xml version="1.0" encoding="UTF-8" standalone="no"?>
<svg
   xmlns:dc="http://purl.org/dc/elements/1.1/"
   xmlns:cc="http://creativecommons.org/ns#"
   xmlns:rdf="http://www.w3.org/1999/02/22-rdf-syntax-ns#"
   xmlns:svg="http://www.w3.org/2000/svg"
   xmlns="http://www.w3.org/2000/svg"
   id="svg8"
   version="1.1"
   viewBox="0 0 8.4680252 19.069754"
   height="19.069754mm"
   width="8.4680252mm">
  <defs
     id="defs2" />
  <metadata
     id="metadata5">
    <rdf:RDF>
      <cc:Work
         rdf:about="">
        <dc:format>image/svg+xml</dc:format>
        <dc:type
           rdf:resource="http://purl.org/dc/dcmitype/StillImage" />
        <dc:title></dc:title>
      </cc:Work>
    </rdf:RDF>
  </metadata>
  <g
     transform="translate(-26.9571,-97.327371)"
     id="layer1">
    <path
       id="path832"
       d="m 35.293527,97.42857 c 0,0 -4.318067,3.63564 -5.640984,7.08468 0,0 -3.052469,2.60096 -1.587811,11.38891 z"
       style="fill:#99e1e0;fill-opacity:1;stroke:#ffffff;stroke-width:0.26458332px;stroke-linecap:butt;stroke-linejoin:miter;stroke-opacity:1" />
    <path
       style="fill:#99e1e0;fill-opacity:1;stroke:#ffffff;stroke-width:0.26458332px;stroke-linecap:butt;stroke-linejoin:miter;stroke-opacity:1"
       d="m 35.293527,97.42857 c 0,0 -0.498818,4.8543 -2.002214,8.22858 0,0 -0.115048,3.99758 -5.226581,10.24501 z"
       id="path838" />
    <path
       style="fill:#99e1e0;fill-opacity:1;stroke:#ffffff;stroke-width:0.26458332px;stroke-linecap:butt;stroke-linejoin:miter;stroke-opacity:1"
       d="m 35.293527,97.42857 c 0,0 -4.153611,4.8151 -5.309517,7.41427 0,0 -2.764718,3.20068 -1.484965,9.8232 z"
       id="path834" />
    <path
       id="path836"
       d="m 35.293546,97.428573 c 10e-4,-0.0014 -0.221554,0.230552 -0.574504,0.603861 -0.35295,0.37331 -1.596409,1.154474 -1.948983,1.56921 -1.054552,1.240486 -1.309183,1.413036 -1.811213,1.983676 -0.502031,0.57063 -0.09223,0.34029 -0.389401,0.73354 0,0 -1.661561,1.19869 -1.227416,3.37755 4.58099,-3.78601 5.485489,-6.113878 5.951498,-8.26784 z"
       style="fill:#ffffff;stroke:#ffffff;stroke-width:0.13681588px;stroke-linecap:butt;stroke-linejoin:miter;stroke-opacity:1" />
    <path
       style="fill:#ffffff;stroke:#ffffff;stroke-width:0.13681588px;stroke-linecap:butt;stroke-linejoin:miter;stroke-opacity:1"
       d="m 31.841146,101.31992 c 8.13e-4,-10e-4 -0.178685,0.26517 -0.46231,0.69352 -0.283623,0.42836 -1.374517,1.4114 -1.650659,1.8805 -0.825939,1.40311 -1.047168,1.61682 -1.443782,2.26517 -0.396617,0.64834 -0.03244,0.35107 -0.257692,0.7895 0,0 -1.431112,1.46614 -0.629363,3.53812 3.86303,-4.51623 4.354471,-6.96482 4.443787,-9.1668 z"
       id="path840" />
    <path
       id="path842"
       d="m 28.325062,105.71834 c 2.91e-4,-9.7e-4 -0.05319,0.31531 -0.134547,0.82256 -0.08135,0.50727 -0.668746,1.85314 -0.726452,2.39442 -0.17258,1.61898 -0.285778,1.90499 -0.379147,2.65927 -0.09336,0.75428 0.115477,0.33312 0.09145,0.82545 0,0 -0.697675,1.92637 0.888366,3.48212 1.652481,-5.70865 1.088567,-8.14157 0.260318,-10.1838 z"
       style="fill:#ffffff;stroke:#ffffff;stroke-width:0.13681588px;stroke-linecap:butt;stroke-linejoin:miter;stroke-opacity:1" />
  </g>
</svg>
