<?xml version="1.0" encoding="UTF-8" standalone="no"?>
<svg
   xmlns:dc="http://purl.org/dc/elements/1.1/"
   xmlns:cc="http://creativecommons.org/ns#"
   xmlns:rdf="http://www.w3.org/1999/02/22-rdf-syntax-ns#"
   xmlns:svg="http://www.w3.org/2000/svg"
   xmlns="http://www.w3.org/2000/svg"
   id="svg8"
   version="1.1"
   viewBox="0 0 267.91663 285.52472"
   height="285.52472mm"
   width="267.91663mm">
  <defs
     id="defs2" />
  <metadata
     id="metadata5">
    <rdf:RDF>
      <cc:Work
         rdf:about="">
        <dc:format>image/svg+xml</dc:format>
        <dc:type
           rdf:resource="http://purl.org/dc/dcmitype/StillImage" />
        <dc:title></dc:title>
      </cc:Work>
    </rdf:RDF>
  </metadata>
  <g
     transform="translate(-39.324642,71.052994)"
     id="layer1">
    <g
       transform="translate(372.00416,-93.133333)"
       id="g5175">
      <path
         id="path4861"
         d="m -186.57504,103.55188 c -0.77538,0.57025 -1.2357,1.50523 -1.5757,2.39477 -0.53238,1.60711 -0.89009,3.26635 -1.34444,4.89666 -2.65968,10.34148 -3.9819,21.11895 -2.9584,31.7835 0.6159,7.91975 2.18817,15.75305 4.51588,23.34395 4.62865,-8.794 7.25946,-18.53523 8.46151,-28.36876 0.96577,-10.33672 -0.86953,-20.8269 -4.65307,-30.4574 -0.5643,-1.2469 -1.10756,-2.58609 -2.12676,-3.52946 -0.1012,-0.0397 -0.20863,-0.0772 -0.31902,-0.0633 z"
         style="fill:#10d910;fill-opacity:1;stroke:#10d910;stroke-width:0.18616688px;stroke-linecap:butt;stroke-linejoin:miter;stroke-opacity:1" />
      <path
         style="fill:#10d910;fill-opacity:1;stroke:#10d910;stroke-width:0.13462071px;stroke-linecap:butt;stroke-linejoin:miter;stroke-opacity:1"
         d="m -195.10423,68.781529 c -0.34368,10.568093 0.70336,21.117583 1.92676,31.600761 1.26322,9.31149 3.13158,18.52617 5.04796,27.72114 0.91312,-1.41058 0.67577,-3.1739 1.11596,-4.73395 2.60227,-17.27645 0.72105,-35.334833 -6.14944,-51.451231 -0.55228,-1.277768 -1.16768,-2.530995 -1.89611,-3.718313 -0.015,0.193865 -0.03,0.387729 -0.0452,0.581592 z"
         id="path4863" />
      <path
         id="path4865"
         d="m -211.2422,22.153512 c 0.86871,1.547159 1.48398,3.142996 1.84462,4.60116 1.29275,5.226973 1.9652,7.739185 2.73507,12.422116 1.67485,10.187753 5.28052,19.421687 8.82749,29.063354 1.83371,4.932879 3.65926,9.868828 5.48876,14.803288 0.73167,-11.294789 -1.13487,-22.557873 -3.55759,-33.552165 -2.35784,-10.612022 -8.74173,-23.420796 -15.1276,-27.13047 -0.0398,-0.08774 -0.0798,-0.247184 -0.21075,-0.207283 z"
         style="fill:#10d910;fill-opacity:1;stroke:#10d910;stroke-width:0.13462071px;stroke-linecap:butt;stroke-linejoin:miter;stroke-opacity:1" />
      <path
         id="path4867"
         d="m -211.08732,39.115513 c -0.44843,4.541273 0.87204,8.984598 1.92479,13.350585 2.48565,9.435592 6.44904,18.415199 10.9814,27.032205 1.39219,2.61815 2.85629,5.1975 4.3672,7.748828 0.38594,-0.613943 -0.009,-1.34158 0.0652,-2.007109 -0.85695,-10.293445 -4.16404,-20.235251 -8.57262,-29.524739 -2.66075,-5.665189 -5.66548,-11.160313 -8.75031,-16.603513 z"
         style="fill:#10d910;fill-opacity:1;stroke:#10d910;stroke-width:0.11452833px;stroke-linecap:butt;stroke-linejoin:miter;stroke-opacity:1" />
      <path
         id="path4869"
         d="m -211.68967,53.637374 c 0.0643,4.059026 1.81019,7.802563 2.98199,11.617794 4.23504,12.514849 9.84157,24.694729 17.79018,35.308302 0.51765,0.68705 1.04696,1.36508 1.5807,2.03969 0.53017,-0.19257 0.14228,-0.82514 0.18289,-1.22333 -0.77128,-9.156375 -3.57742,-18.039018 -7.39226,-26.361361 -3.78215,-7.920537 -9.03005,-15.1067 -15.1317,-21.388785 z"
         style="fill:#10d910;fill-opacity:1;stroke:#10d910;stroke-width:0.13504916px;stroke-linecap:butt;stroke-linejoin:miter;stroke-opacity:1" />
      <path
         id="path4871"
         d="m -209.95686,68.244092 c -0.0502,4.053517 1.70523,7.797927 2.68635,11.656274 3.46644,11.8238 7.10075,23.733294 13.11546,34.554584 2.33071,4.16753 4.89298,8.19944 7.48987,12.20466 -0.70233,-14.36674 -4.01221,-28.735723 -10.68256,-41.537553 -3.34702,-6.160378 -7.5734,-11.834867 -12.47073,-16.849179 -0.0446,-0.01467 -0.0897,-0.03867 -0.13839,-0.02878 z"
         style="fill:#10d910;fill-opacity:1;stroke:#10d910;stroke-width:0.15635361px;stroke-linecap:butt;stroke-linejoin:miter;stroke-opacity:1" />
      <path
         id="path4873"
         d="m -208.05137,85.591038 c -0.54716,2.355056 0.47784,4.654128 0.95622,6.924209 2.77613,10.923193 6.25778,21.828903 12.17698,31.497353 2.1852,3.55712 4.66885,6.92116 7.27611,10.17826 -0.31418,-12.20357 -3.20988,-24.46434 -9.24478,-35.133166 -2.88587,-5.033089 -6.5091,-9.69107 -10.95778,-13.439113 -0.0681,-0.01363 -0.13632,-0.03643 -0.20675,-0.02754 z"
         style="fill:#10d910;fill-opacity:1;stroke:#10d910;stroke-width:0.14367564px;stroke-linecap:butt;stroke-linejoin:miter;stroke-opacity:1" />
      <path
         id="path4875"
         d="m -207.80003,99.725278 c -0.76628,1.029092 -0.29787,2.364442 -0.0182,3.480412 2.69304,10.8956 5.43926,21.92381 10.63473,31.94732 2.38353,4.59389 5.19435,8.97239 8.4626,12.98832 0.47459,0.23193 0.71552,-0.47337 0.55935,-0.82873 -0.17277,-2.13535 -0.20238,-4.28043 -0.4349,-6.41176 -0.86393,-9.40566 -3.20597,-18.77793 -7.72791,-27.1173 -2.84883,-5.30442 -6.55031,-10.22305 -11.2593,-14.014992 -0.0662,-0.03307 -0.14249,-0.05015 -0.21636,-0.04327 z"
         style="fill:#10d910;fill-opacity:1;stroke:#10d910;stroke-width:0.14480095px;stroke-linecap:butt;stroke-linejoin:miter;stroke-opacity:1" />
      <path
         id="path4877"
         d="m -209.91324,113.03018 c -0.98367,0.62745 -0.9812,1.9795 -0.70691,2.98694 1.37254,7.97377 2.85803,16.07386 6.4563,23.39488 3.46579,7.16314 8.45261,13.55988 14.42589,18.80523 0.51854,-1.3777 0.41812,-2.88515 0.45917,-4.3314 -0.0394,-4.35304 -0.36093,-8.72266 -1.32975,-12.97589 -1.31666,-5.98793 -3.7523,-11.77118 -7.44496,-16.68841 -3.1623,-4.34057 -6.97641,-8.29008 -11.53943,-11.1582 -0.1032,-0.0324 -0.2128,-0.0401 -0.32031,-0.0331 z"
         style="fill:#10d910;fill-opacity:1;stroke:#10d910;stroke-width:0.16170061px;stroke-linecap:butt;stroke-linejoin:miter;stroke-opacity:1" />
      <path
         style="fill:#10d910;fill-opacity:1;stroke:#10d910;stroke-width:0.11386867px;stroke-linecap:butt;stroke-linejoin:miter;stroke-opacity:1"
         d="m -193.84617,38.742215 c -1.83864,5.930676 -1.58386,12.226648 -1.22425,18.347626 0.80237,9.869495 3.42248,19.459278 5.88714,29.012042 0.12761,0.409621 0.28112,0.810415 0.42751,1.213525 1.10655,-2.039461 1.01356,-4.42882 1.47928,-6.644859 1.25291,-10.1834 -0.21396,-20.51238 -2.90292,-30.352455 -1.04942,-3.911107 -2.09807,-7.838633 -3.64906,-11.587414 z"
         id="path4879" />
      <path
         style="fill:#10d910;fill-opacity:1;stroke:#10d910;stroke-width:0.13427129px;stroke-linecap:butt;stroke-linejoin:miter;stroke-opacity:1"
         d="m -186.63497,53.015313 c -2.05792,3.170851 -2.5853,6.995024 -3.2742,10.633482 -1.67788,10.103939 -0.97893,20.416053 0.28808,30.523402 0.34539,2.8728 0.72334,5.741523 1.093,8.611263 1.10271,-1.35924 1.70865,-3.026958 2.47869,-4.579117 3.7235,-8.478612 4.53633,-17.977359 3.62872,-27.118499 -0.59222,-6.126712 -1.99342,-12.164022 -4.02391,-17.970888 -0.0443,-0.0558 -0.10997,-0.131198 -0.19038,-0.09965 z"
         id="path4881" />
      <path
         style="fill:#10d910;fill-opacity:1;stroke:#10d910;stroke-width:0.15545304px;stroke-linecap:butt;stroke-linejoin:miter;stroke-opacity:1"
         d="m -180.56219,67.821511 c -2.07588,2.70704 -2.63879,6.156471 -3.55215,9.356287 -3.0502,11.961318 -3.29136,24.417412 -2.7953,36.685892 0.18227,4.1317 0.36926,8.2632 0.55334,12.39482 3.70048,-5.20045 5.70479,-11.35381 7.36044,-17.45399 2.9179,-12.268538 2.6043,-25.20018 -0.28187,-37.442886 -0.32721,-1.205022 -0.74615,-2.383473 -1.21218,-3.541324 l -0.039,-0.01021 z"
         id="path4883" />
      <path
         style="fill:#10d910;fill-opacity:1;stroke:#10d910;stroke-width:0.1428481px;stroke-linecap:butt;stroke-linejoin:miter;stroke-opacity:1"
         d="m -175.20225,85.432943 c -2.46067,2.664605 -3.57517,6.189509 -5.03401,9.433791 -3.01728,7.630176 -3.97596,15.875616 -4.3786,24.014506 -0.22691,5.08219 -0.21502,10.17056 -0.24331,15.25657 5.42739,-6.21343 8.74223,-14.03919 10.38873,-22.06706 1.67862,-8.42342 1.7852,-17.174591 0.19577,-25.619235 -0.13061,-0.460415 -0.32644,-0.933465 -0.7095,-1.240914 -0.0731,0.07411 -0.14608,0.148227 -0.21913,0.222341 z"
         id="path4885" />
      <path
         style="fill:#10d910;fill-opacity:1;stroke:#10d910;stroke-width:0.14396691px;stroke-linecap:butt;stroke-linejoin:miter;stroke-opacity:1"
         d="m -170.74191,99.400047 c -1.99627,1.323613 -2.82011,3.678933 -4.02313,5.637793 -4.41762,7.92118 -6.62715,16.87214 -7.71945,25.82008 -0.82238,5.87806 -1.32807,11.79865 -1.56893,17.72851 3.01099,-2.82599 5.06331,-6.46196 7.14049,-9.98386 4.77509,-8.79808 6.97398,-18.83845 7.12307,-28.80536 0.14226,-3.39275 0.21875,-6.83595 -0.53056,-10.170107 -0.0956,-0.132675 -0.25051,-0.244236 -0.42149,-0.227056 z"
         id="path4887" />
      <path
         style="fill:#10d910;fill-opacity:1;stroke:#10d910;stroke-width:0.16076924px;stroke-linecap:butt;stroke-linejoin:miter;stroke-opacity:1"
         d="m -165.78134,112.97195 c -2.27091,1.05012 -3.51857,3.33357 -5.12294,5.12728 -4.6497,5.62424 -8.23726,12.21656 -9.88243,19.35642 -1.81676,6.80248 -2.57734,13.88917 -2.20646,20.92163 1.41449,-0.51114 2.22383,-1.87518 3.37857,-2.75608 6.61544,-6.41074 11.76025,-14.52576 13.92421,-23.53434 1.31049,-5.82578 1.72648,-11.86484 1.13603,-17.80871 -0.15093,-0.58384 -0.50346,-1.36366 -1.22698,-1.3062 z"
         id="path4889" />
      <path
         style="fill:#10d910;fill-opacity:1;stroke:#10d910;stroke-width:0.18616688px;stroke-linecap:butt;stroke-linejoin:miter;stroke-opacity:1"
         d="m -247.72219,158.30658 c 0.76981,1.24349 2.31886,1.49777 3.55933,2.05 4.47742,1.59308 9.10245,2.71408 13.69151,3.92835 10.9839,2.55214 22.4896,2.0796 33.48169,-0.16822 4.23474,-0.86658 8.41763,-1.99981 12.48957,-3.45316 -2.65928,-1.61462 -5.64998,-2.54752 -8.5539,-3.61108 -9.3294,-3.12789 -19.18311,-4.83158 -29.03553,-4.59501 -4.75514,0.14909 -9.46646,0.92868 -14.09608,1.99232 -3.64261,0.76094 -7.35647,1.38809 -10.80551,2.83428 -0.3722,0.20751 -0.78505,0.54707 -0.73108,1.02252 z"
         id="path4893" />
      <path
         id="path4895"
         d="m -284.22941,161.85914 c 2.3088,1.07366 4.91871,0.92519 7.38117,1.32396 15.44167,1.5295 31.09918,1.71177 46.46895,-0.64582 2.91045,-0.42107 5.80933,-0.9177 8.70187,-1.44707 -8.16164,-2.22528 -16.63858,-2.85593 -25.04552,-3.42556 -8.40812,-0.47607 -16.89365,-0.18001 -25.18078,1.39468 -3.96604,0.67644 -7.94025,1.35232 -11.8459,2.32237 -0.19265,0.0968 -0.49322,0.22042 -0.47979,0.47736 z"
         style="fill:#10d910;fill-opacity:1;stroke:#10d910;stroke-width:0.13462071px;stroke-linecap:butt;stroke-linejoin:miter;stroke-opacity:1" />
      <path
         style="fill:#10d910;fill-opacity:1;stroke:#10d910;stroke-width:0.13462071px;stroke-linecap:butt;stroke-linejoin:miter;stroke-opacity:1"
         d="m -332.6037,159.55331 c 1.35272,1.04414 3.15513,0.9022 4.73226,1.32007 6.09868,1.05647 12.20971,2.04775 18.33522,2.93409 10.16355,1.29351 20.55534,1.7056 30.67743,-0.1537 3.359,-0.60491 6.67942,-1.40119 9.9922,-2.21743 -5.26443,-1.19716 -10.6813,-1.37043 -16.03012,-1.96363 -7.96704,-0.71837 -15.93019,-1.51989 -23.91878,-1.96007 -7.38355,-0.2883 -14.82569,-0.0119 -22.09991,1.3547 -0.57221,0.14754 -1.24895,0.21794 -1.69317,0.61571 l -0.003,0.0353 z"
         id="path4897" />
      <path
         style="fill:#10d910;fill-opacity:1;stroke:#10d910;stroke-width:0.11452833px;stroke-linecap:butt;stroke-linejoin:miter;stroke-opacity:1"
         d="m -312.68068,168.98847 c 1.80378,0.92194 3.89229,0.57432 5.82384,0.93412 7.58198,0.65755 15.2881,1.29493 22.8309,-0.0819 7.00813,-1.2592 13.71258,-3.81879 20.12039,-6.87307 -0.44875,-0.49582 -1.15999,-0.10624 -1.72168,-0.27015 -9.23157,-0.18268 -18.41505,0.95607 -27.58165,1.88571 -6.42675,0.79871 -12.8835,1.78798 -19.03102,3.88541 -0.11721,0.10358 -0.75802,0.37716 -0.44078,0.51983 z"
         id="path4899" />
      <path
         style="fill:#10d910;fill-opacity:1;stroke:#10d910;stroke-width:0.13504916px;stroke-linecap:butt;stroke-linejoin:miter;stroke-opacity:1"
         d="m -298.68434,173.15915 c 1.59877,0.99042 3.5524,0.60743 5.32843,0.80109 10.37561,0.30095 20.83179,-1.60263 30.36451,-5.73544 5.13937,-2.14693 10.07724,-4.75923 14.81162,-7.68904 -0.18447,-0.53614 -0.83946,-0.18909 -1.24539,-0.29474 -12.26863,-0.3169 -24.45766,2.32749 -35.92341,6.56227 -4.0074,1.5228 -8.03649,3.0403 -11.82816,5.05566 -0.4947,0.31374 -1.0889,0.54822 -1.46087,1.00656 -0.0424,0.0913 -0.0604,0.19356 -0.0467,0.29364 z"
         id="path4901" />
      <path
         style="fill:#10d910;fill-opacity:1;stroke:#10d910;stroke-width:0.15635361px;stroke-linecap:butt;stroke-linejoin:miter;stroke-opacity:1"
         d="m -283.69216,175.88823 c 0.97309,0.92299 2.41223,0.6404 3.62554,0.61626 6.90359,-0.30177 13.70629,-1.60436 20.50443,-2.75481 9.34334,-1.80552 18.59317,-4.51551 27.03563,-8.9771 2.92177,-1.51184 5.75542,-3.19227 8.48863,-5.02291 -6.95315,-0.29487 -13.88269,0.56432 -20.77644,1.35655 -7.62949,0.95822 -15.30907,2.27478 -22.44117,5.25701 -4.91829,2.02228 -9.62248,4.54466 -14.13034,7.35822 -0.84222,0.5998 -1.74357,1.23388 -2.31116,2.09607 -2.6e-4,0.0237 0.003,0.0472 0.005,0.0707 z"
         id="path4903" />
      <path
         style="fill:#10d910;fill-opacity:1;stroke:#10d910;stroke-width:0.14367564px;stroke-linecap:butt;stroke-linejoin:miter;stroke-opacity:1"
         d="m -265.96363,177.32555 c 0.6626,0.88695 1.89025,0.66386 2.84337,0.56435 6.21046,-0.55383 12.32114,-1.84002 18.45063,-2.933 9.26397,-2.0373 17.97911,-6.2637 25.59478,-11.88104 0.9402,-0.68683 1.82551,-1.44426 2.71735,-2.19175 -1.56114,-0.29513 -3.14847,0.0166 -4.7212,-0.006 -9.56002,0.48723 -19.07698,2.20568 -28.14255,5.298 -5.65153,2.07729 -10.95585,5.17711 -15.40902,9.24107 -0.5139,0.54657 -1.08855,1.11535 -1.33639,1.83072 l 0.002,0.0484 z"
         id="path4905" />
      <path
         style="fill:#10d910;fill-opacity:1;stroke:#10d910;stroke-width:0.14480095px;stroke-linecap:butt;stroke-linejoin:miter;stroke-opacity:1"
         d="m -251.26387,178.96285 c 0.7348,0.81585 1.92008,0.48765 2.87473,0.43269 5.83799,-0.58196 11.63294,-1.59432 17.33392,-2.97457 7.03483,-1.91583 13.83183,-4.7211 20.16365,-8.33636 3.25518,-1.92281 6.32837,-4.16165 9.11238,-6.72179 -4.30891,-0.13108 -8.59263,0.48331 -12.85458,1.03409 -8.00593,1.14717 -16.05267,2.89378 -23.31691,6.56699 -4.19058,2.11363 -8.13838,4.72156 -11.70867,7.76782 -0.60762,0.59537 -1.30359,1.20071 -1.60602,2.00956 -0.0108,0.0735 -0.005,0.14806 10e-4,0.22157 z"
         id="path4907" />
      <path
         style="fill:#10d910;fill-opacity:1;stroke:#10d910;stroke-width:0.16170061px;stroke-linecap:butt;stroke-linejoin:miter;stroke-opacity:1"
         d="m -237.11909,182.42438 c 0.17324,0.88283 1.24226,1.00405 1.98323,0.99725 3.71271,0.0511 7.32463,-0.93304 10.95753,-1.55855 4.16005,-0.82807 8.22614,-2.12168 12.08182,-3.89252 7.68401,-3.439 14.52929,-8.71524 19.84541,-15.23657 0.33415,-0.21534 0.13775,-0.46654 -0.20692,-0.41235 -2.54059,-0.31259 -5.10604,-0.0821 -7.6504,0.0587 -7.6214,0.60709 -15.23015,2.3816 -22.06991,5.86304 -3.34394,1.75905 -6.31907,4.14695 -8.9622,6.83346 -2.09405,2.02014 -4.30084,4.00958 -5.8105,6.52602 -0.11115,0.25771 -0.18979,0.53853 -0.16806,0.82156 z"
         id="path4909" />
      <path
         id="path4911"
         d="m -312.74293,153.85117 c 1.88676,1.29944 4.20244,1.65877 6.28721,2.52233 7.42327,2.50931 15.1996,4.2927 23.07635,4.14925 6.57934,0.0268 13.12503,-0.84116 19.59243,-1.98486 -0.61172,-0.43353 -1.39755,-0.47949 -2.08017,-0.75834 -7.87218,-2.3377 -16.09663,-3.09262 -24.25524,-3.66053 -6.589,-0.42364 -13.18679,-0.72246 -19.78711,-0.89096 -0.94932,0.0181 -1.95055,-0.044 -2.85075,0.2842 -0.202,0.0951 -0.20346,0.25151 0.0173,0.33891 z"
         style="fill:#10d910;fill-opacity:1;stroke:#10d910;stroke-width:0.11386867px;stroke-linecap:butt;stroke-linejoin:miter;stroke-opacity:1" />
      <path
         id="path4913"
         d="m -298.77848,151.31853 c 1.18315,1.52554 3.15005,2.03899 4.80711,2.87782 6.23841,3.06605 13.06349,4.98185 20.00736,5.44167 7.21615,0.66269 14.47149,0.5871 21.70996,0.58236 1.41692,-0.0275 2.83242,-0.10147 4.2471,-0.18314 -0.3542,-0.57803 -1.09761,-0.68648 -1.59173,-1.10656 -8.11306,-4.74494 -17.47096,-7.05089 -26.80453,-7.58892 -6.37773,-0.35894 -12.76983,-0.29172 -19.15062,-0.56549 -1.05899,0.008 -2.2038,-0.0857 -3.17767,0.37148 -0.0322,0.0489 -0.0542,0.11168 -0.047,0.17078 z"
         style="fill:#10d910;fill-opacity:1;stroke:#10d910;stroke-width:0.13427129px;stroke-linecap:butt;stroke-linejoin:miter;stroke-opacity:1" />
      <path
         id="path4915"
         d="m -284.08148,149.21528 c 1.11405,1.42477 3.00435,1.7288 4.54509,2.48923 7.52963,3.09442 15.51135,4.96491 23.56242,6.06626 9.62228,1.45756 19.37517,2.02711 29.10216,1.72911 0.88472,-0.0182 1.76903,-0.0523 2.65356,-0.0778 0.16962,-0.39537 -0.43038,-0.42647 -0.62198,-0.64048 -7.17828,-4.49151 -15.36946,-7.03857 -23.58875,-8.83746 -7.34835,-1.59708 -14.89738,-2.1819 -22.408,-1.9454 -4.26945,0.0519 -8.58445,-0.10192 -12.79994,0.6812 -0.21293,0.0959 -0.49168,0.25853 -0.44456,0.53537 z"
         style="fill:#10d910;fill-opacity:1;stroke:#10d910;stroke-width:0.15545304px;stroke-linecap:butt;stroke-linejoin:miter;stroke-opacity:1" />
      <path
         id="path4917"
         d="m -266.45154,146.05196 c 0.83537,1.40669 2.52132,1.83633 3.83259,2.65427 5.51109,2.97618 11.33257,5.48476 17.48278,6.78066 7.03019,1.56797 14.22962,2.19082 21.40906,2.5806 2.45603,0.0969 4.91545,0.13032 7.37252,0.0526 -0.33759,-0.65848 -1.10289,-0.9048 -1.60329,-1.41338 -7.33658,-5.57059 -16.26687,-8.72553 -25.315,-10.09798 -5.84111,-0.89324 -11.74655,-1.30735 -17.64806,-1.51355 -1.73053,0.003 -3.50725,-0.0409 -5.1822,0.44212 -0.18713,0.0973 -0.39578,0.27912 -0.3484,0.51462 z"
         style="fill:#10d910;fill-opacity:1;stroke:#10d910;stroke-width:0.1428481px;stroke-linecap:butt;stroke-linejoin:miter;stroke-opacity:1" />
      <path
         id="path4919"
         d="m -251.86572,143.39356 c 0.62327,1.26314 2.03628,1.77997 3.13254,2.54177 3.21764,1.88932 6.4989,3.70156 9.96028,5.10783 6.77511,2.67023 13.98194,3.99298 21.15698,5.06023 5.21448,0.71656 10.47594,1.14915 15.74223,1.09823 0.22967,-0.23585 -0.28781,-0.3665 -0.39317,-0.54429 -5.28563,-4.4814 -11.54028,-7.69842 -18.03321,-10.04213 -6.04654,-2.12257 -12.44192,-3.06714 -18.82339,-3.38589 -3.88984,-0.2594 -7.78993,-0.7145 -11.69149,-0.47474 -0.39777,0.0593 -0.96208,0.17747 -1.05077,0.63899 z"
         style="fill:#10d910;fill-opacity:1;stroke:#10d910;stroke-width:0.14396691px;stroke-linecap:butt;stroke-linejoin:miter;stroke-opacity:1" />
      <path
         id="path4921"
         d="m -238.02097,139.2628 c 0.46022,1.4074 1.775,2.24539 2.8297,3.18291 2.57262,2.0745 5.24037,4.03512 7.99244,5.86412 7.71147,4.79818 16.7636,7.02714 25.75313,7.67838 3.10196,0.22247 6.23305,0.26463 9.32451,-0.0892 0.26366,-0.20942 -0.22796,-0.42752 -0.31552,-0.61732 -4.36825,-4.96886 -9.69658,-9.07423 -15.53918,-12.16507 -5.50609,-2.87635 -11.59811,-4.74532 -17.82932,-4.97627 -3.54913,-0.21051 -7.13156,-0.54335 -10.67315,-0.0704 -0.61345,0.10527 -1.60891,0.40935 -1.54261,1.19279 z"
         style="fill:#10d910;fill-opacity:1;stroke:#10d910;stroke-width:0.16076924px;stroke-linecap:butt;stroke-linejoin:miter;stroke-opacity:1" />
      <path
         id="path4925"
         d="m -193.74907,225.07018 c 0.98026,-0.37408 1.28139,-1.49347 1.71533,-2.34365 1.67208,-3.95581 2.81306,-8.10488 4.16648,-12.1741 1.27935,-4.00457 2.29694,-8.10633 2.7423,-12.2934 0.90768,-8.00456 0.13727,-16.10886 -1.37102,-23.9921 -0.86686,-4.35148 -1.97882,-8.66164 -3.4871,-12.83728 -1.01474,1.49803 -1.59818,3.23068 -2.30283,4.88448 -3.0055,7.63471 -4.9068,15.69875 -5.71605,23.86099 -0.65937,7.07911 -0.42806,14.24284 0.73272,21.25861 0.59667,4.00984 1.05328,8.06933 2.23516,11.9607 0.21476,0.63629 0.50619,1.39192 1.16191,1.67118 0.0409,0.009 0.0818,0.007 0.1231,0.005 z"
         style="fill:#10d910;fill-opacity:1;stroke:#10d910;stroke-width:0.18616688px;stroke-linecap:butt;stroke-linejoin:miter;stroke-opacity:1" />
      <path
         style="fill:#10d910;fill-opacity:1;stroke:#10d910;stroke-width:0.13462071px;stroke-linecap:butt;stroke-linejoin:miter;stroke-opacity:1"
         d="m -191.94741,261.91859 c 1.17334,-1.69805 1.19187,-3.84 1.73659,-5.76667 1.64801,-7.86395 2.56954,-15.89867 2.42383,-23.93998 -0.0318,-10.91257 -0.2489,-21.86714 -1.82143,-32.6837 -0.046,-0.3058 -0.092,-0.6116 -0.13797,-0.9174 -1.71129,5.60325 -2.66516,11.39882 -3.59427,17.1723 -1.17607,7.69834 -1.45797,15.51844 -1.01647,23.28957 0.31303,5.6408 0.87015,11.26421 1.33176,16.89394 0.18685,1.80509 0.26206,3.6374 0.69753,5.40453 0.076,0.18428 0.1526,0.53285 0.38043,0.54741 z"
         id="path4927" />
      <path
         id="path4929"
         d="m -205.70334,307.53181 c 3.37816,-2.56301 5.58553,-6.26737 7.84202,-9.77824 3.11223,-5.62403 4.35012,-11.99498 6.16548,-18.09726 2.3878,-7.88292 3.09101,-16.28678 1.92547,-24.44652 -0.33469,-3.00207 -0.72191,-5.99845 -1.18103,-8.98412 -1.8409,7.77686 -3.3003,15.63731 -5.05163,23.43416 -0.76989,3.6198 -1.68973,7.20592 -2.50802,10.81405 -1.21418,6.11092 -2.22403,12.30404 -4.38392,18.17368 -0.65439,1.85935 -1.48378,3.65 -2.22489,5.47366 -0.38388,1.09364 -0.66703,2.23605 -0.69102,3.39999 0.0345,0.004 0.0722,0.0277 0.10754,0.0106 z"
         style="fill:#10d910;fill-opacity:1;stroke:#10d910;stroke-width:0.13462071px;stroke-linecap:butt;stroke-linejoin:miter;stroke-opacity:1" />
      <path
         id="path4931"
         d="m -188.79046,289.96912 c 1.4275,-2.08047 1.54423,-4.69476 2.40423,-7.00878 1.6381,-5.88302 3.22963,-11.93328 2.82624,-18.09613 -0.32994,-7.48017 -2.21831,-14.8167 -4.86678,-21.79302 -0.28648,-0.71295 -0.58249,-1.42203 -0.87477,-2.13261 -0.92814,8.98699 -0.65504,18.03428 -0.764,27.05334 0.0165,5.60313 -0.24315,11.21691 0.1886,16.81073 0.17464,1.59191 0.2216,3.22544 0.7345,4.75607 0.1007,0.12389 0.15043,0.44383 0.35198,0.4104 z"
         style="fill:#10d910;fill-opacity:1;stroke:#10d910;stroke-width:0.11452833px;stroke-linecap:butt;stroke-linejoin:miter;stroke-opacity:1" />
      <path
         id="path4933"
         d="m -181.95035,276.33235 c 1.12351,-1.08778 1.08981,-2.75798 1.37652,-4.18824 0.81167,-5.70317 0.44074,-11.48558 0.0148,-17.20446 -0.61485,-6.35024 -2.54303,-12.51057 -5.0774,-18.34225 -1.69914,-3.87142 -3.7032,-7.6043 -5.90417,-11.21242 -0.39832,0.21505 -0.0692,0.73252 -0.19526,1.0773 -0.26953,8.99427 1.08045,17.92903 2.47641,26.78669 1.26167,6.99584 3.56123,13.74233 5.78298,20.47649 0.34822,0.91044 0.73043,1.86966 1.36395,2.60468 0.0524,0.0149 0.11033,0.0271 0.16214,0.002 z"
         style="fill:#10d910;fill-opacity:1;stroke:#10d910;stroke-width:0.13504916px;stroke-linecap:butt;stroke-linejoin:miter;stroke-opacity:1" />
      <path
         id="path4935"
         d="m -178.10729,261.68587 c 0.77233,-0.48235 0.70043,-1.52178 0.76092,-2.32058 0.49638,-5.13356 -0.12631,-10.28388 -0.59815,-15.39508 -1.15599,-9.49947 -3.29928,-18.87318 -6.25895,-27.97059 -1.75583,-5.24437 -3.91057,-10.40142 -6.96368,-15.03394 -0.17265,0.98548 -0.12852,1.99742 -0.19393,2.99476 -0.16306,5.21088 0.003,10.42789 0.30867,15.63043 0.7297,10.78233 3.16612,21.478 7.48215,31.39878 1.19962,2.79323 2.41768,5.58065 3.70986,8.33195 0.43032,0.82993 0.8645,1.70342 1.55756,2.34288 0.0609,0.0236 0.13105,0.0401 0.19555,0.0214 z"
         style="fill:#10d910;fill-opacity:1;stroke:#10d910;stroke-width:0.15635361px;stroke-linecap:butt;stroke-linejoin:miter;stroke-opacity:1" />
      <path
         id="path4937"
         d="m -175.65357,243.80961 c 0.65069,-0.59885 0.36914,-1.56627 0.40479,-2.34421 -0.19068,-4.36412 -1.08856,-8.65428 -1.53108,-12.99337 -0.87451,-6.961 -2.16558,-13.91584 -4.61657,-20.5109 -1.94309,-5.25759 -4.65168,-10.27865 -8.3377,-14.52453 -0.0918,-0.32211 -0.39728,-0.0629 -0.27443,0.17305 -0.10932,4.77777 0.24969,9.5504 0.58941,14.31259 0.66013,7.83216 1.90686,15.73656 5.05657,22.99221 1.68289,3.75772 3.92839,7.22775 6.20487,10.64585 0.62241,0.83414 1.25268,1.72015 2.11611,2.31197 0.14247,0.049 0.27835,0.0567 0.38803,-0.0626 z"
         style="fill:#10d910;fill-opacity:1;stroke:#10d910;stroke-width:0.14367564px;stroke-linecap:butt;stroke-linejoin:miter;stroke-opacity:1" />
      <path
         id="path4939"
         d="m -174.16041,229.33421 c 0.63005,-0.3814 0.47275,-1.24549 0.53329,-1.87631 -0.0241,-3.71476 -0.60344,-7.39438 -0.91315,-11.09007 -0.4754,-4.97862 -1.01205,-9.98033 -2.35294,-14.81376 -2.06488,-7.70952 -5.81966,-14.95705 -10.89077,-21.1168 -0.51975,-0.61249 -1.05902,-1.20807 -1.61461,-1.7882 -0.093,3.13057 0.26769,6.25157 0.57527,9.36182 0.80613,6.96181 1.95867,13.89488 3.68408,20.69084 1.25183,4.77356 3.03368,9.43975 5.64641,13.64222 1.37044,2.31603 2.6713,4.72506 4.54788,6.6801 0.21322,0.18459 0.48553,0.38342 0.78454,0.31016 z"
         style="fill:#10d910;fill-opacity:1;stroke:#10d910;stroke-width:0.14480095px;stroke-linecap:butt;stroke-linejoin:miter;stroke-opacity:1" />
      <path
         id="path4941"
         d="m -170.23199,215.19273 c 0.82895,-0.22709 0.98496,-1.23027 1.03969,-1.96583 0.35248,-3.99281 -0.2014,-7.98754 -0.49003,-11.96651 -0.40272,-4.32671 -1.47758,-8.59622 -3.28075,-12.55473 -3.33306,-7.53393 -8.5544,-14.18026 -14.87581,-19.43789 -0.23516,-0.18451 -0.53868,-0.54214 -0.4943,-0.0186 -0.35378,2.62625 -0.11402,5.28341 0.0233,7.91662 0.64069,8.54593 2.90793,17.01207 6.94289,24.58991 1.54698,2.87229 3.53297,5.46992 5.52352,8.04289 1.41679,1.85817 2.8634,3.75941 4.75734,5.157 0.25987,0.1392 0.55251,0.26849 0.85408,0.23717 z"
         style="fill:#10d910;fill-opacity:1;stroke:#10d910;stroke-width:0.16170061px;stroke-linecap:butt;stroke-linejoin:miter;stroke-opacity:1" />
      <path
         style="fill:#10d910;fill-opacity:1;stroke:#10d910;stroke-width:0.11386867px;stroke-linecap:butt;stroke-linejoin:miter;stroke-opacity:1"
         d="m -203.70438,289.50209 c 1.26803,-1.58223 2.1743,-3.45475 2.99076,-5.31342 0.91463,-2.14556 1.78435,-4.31395 2.864,-6.38357 2.75145,-6.05257 4.57531,-12.58631 4.83344,-19.25217 0.42006,-5.7969 0.0725,-11.61882 -0.52739,-17.39026 -3.12504,7.70158 -4.72348,15.89405 -6.44705,23.99151 -1.60146,8.00487 -3.13147,16.0479 -3.82277,24.19034 -0.003,0.0625 0.0244,0.17506 0.10901,0.15757 z"
         id="path4943" />
      <path
         style="fill:#10d910;fill-opacity:1;stroke:#10d910;stroke-width:0.13427129px;stroke-linecap:butt;stroke-linejoin:miter;stroke-opacity:1"
         d="m -204.04415,276.06936 c 2.06245,-2.06685 3.19079,-4.81356 4.77824,-7.22065 3.55765,-6.2329 5.69041,-13.21913 6.5677,-20.32702 1.13458,-7.66161 1.00232,-15.43493 0.74924,-23.15392 -0.78222,0.6622 -1.05996,1.69847 -1.62897,2.52052 -4.30969,7.8591 -6.60274,16.64014 -8.07012,25.43102 -0.95358,6.17524 -1.68972,12.38141 -2.61621,18.56061 -0.15328,1.29468 -0.3959,2.60489 -0.2848,3.90956 0.0467,0.26127 0.25935,0.69179 0.50492,0.27988 z"
         id="path4945" />
      <path
         style="fill:#10d910;fill-opacity:1;stroke:#10d910;stroke-width:0.15545304px;stroke-linecap:butt;stroke-linejoin:miter;stroke-opacity:1"
         d="m -204.6648,261.9286 c 1.48532,-1.15202 2.01918,-3.03754 2.91614,-4.61102 2.98894,-6.15316 5.54316,-12.58722 6.73355,-19.35087 1.33093,-6.98077 2.0035,-14.0633 2.74953,-21.12405 0.50043,-5.26961 0.86571,-10.56157 0.77244,-15.85794 -0.61586,0.52646 -0.8762,1.33321 -1.36214,1.96549 -5.00401,8.16255 -8.18395,17.34962 -9.97239,26.72791 -1.52273,8.43037 -1.67717,17.0181 -2.32475,25.53991 -0.10653,2.11911 -0.2385,4.26321 0.0192,6.3717 0.0762,0.18472 0.24486,0.38654 0.46841,0.33887 z"
         id="path4947" />
      <path
         style="fill:#10d910;fill-opacity:1;stroke:#10d910;stroke-width:0.1428481px;stroke-linecap:butt;stroke-linejoin:miter;stroke-opacity:1"
         d="m -206.37674,244.10765 c 1.24901,-0.67182 1.73765,-2.09515 2.47475,-3.22015 1.86234,-3.34617 3.63666,-6.75806 5.01442,-10.33576 2.60174,-6.94674 4.0391,-14.26222 5.16249,-21.5744 0.75587,-5.19992 1.2456,-10.45623 1.08663,-15.71544 -0.383,0.0717 -0.50369,0.56093 -0.78982,0.79631 -4.10773,5.12003 -7.05921,11.07844 -9.26911,17.2342 -2.27352,6.4563 -3.45006,13.25627 -3.89523,20.07426 -0.31906,3.89675 -0.73204,7.81572 -0.43541,11.72625 0.0686,0.38399 0.19969,0.94493 0.65128,1.01473 z"
         id="path4949" />
      <path
         style="fill:#10d910;fill-opacity:1;stroke:#10d910;stroke-width:0.14396691px;stroke-linecap:butt;stroke-linejoin:miter;stroke-opacity:1"
         d="m -208.43423,229.29047 c 1.2025,-0.79033 1.73428,-2.19635 2.53012,-3.3353 2.6052,-4.35105 5.11514,-8.7972 6.83001,-13.5866 3.03232,-8.20722 4.56996,-16.89851 5.27555,-25.59765 0.20588,-2.66983 0.31267,-5.34811 0.28746,-8.02607 -0.28823,-0.0984 -0.37986,0.38042 -0.59765,0.51424 -4.75688,5.59552 -8.10045,12.26834 -10.48008,19.18282 -2.11886,6.30503 -3.28679,12.88673 -3.99012,19.48849 -0.4235,3.51192 -0.92877,7.0516 -0.69146,10.59534 0.0472,0.35116 0.25268,0.96936 0.69128,0.84653 0.0483,-0.0273 0.0966,-0.0545 0.14489,-0.0818 z"
         id="path4951" />
      <path
         style="fill:#10d910;fill-opacity:1;stroke:#10d910;stroke-width:0.16076924px;stroke-linecap:butt;stroke-linejoin:miter;stroke-opacity:1"
         d="m -212.26726,215.40208 c 1.72533,-0.6441 2.69787,-2.3196 3.87833,-3.62385 3.32262,-4.15149 6.68303,-8.37293 8.84533,-13.27269 3.28144,-7.24139 4.68254,-15.20648 4.9892,-23.11226 0.063,-2.12109 0.005,-4.24757 -0.21851,-6.35842 -0.45364,-0.13295 -0.62172,0.47507 -0.97714,0.63758 -6.10363,5.48784 -11.05876,12.33656 -13.99543,20.02317 -1.79802,4.78537 -2.72458,9.85899 -3.08611,14.94702 -0.32243,3.27169 -0.80854,6.58235 -0.38613,9.8656 0.11085,0.42677 0.42702,0.99109 0.95046,0.89385 z"
         id="path4953" />
      <path
         style="fill:#10d910;fill-opacity:1;stroke:#10d910;stroke-width:0.18616688px;stroke-linecap:butt;stroke-linejoin:miter;stroke-opacity:1"
         d="m -123.07084,172.09372 c -1.08707,-2.19672 -3.30735,-3.44825 -5.28434,-4.73303 -7.64294,-4.84987 -16.45183,-7.8007 -25.44295,-8.74883 -8.85832,-0.9065 -17.79805,0.33265 -26.38636,2.51483 -0.70658,0.17848 -1.49771,0.26081 -2.11539,0.63613 -0.11074,0.45651 0.54396,0.50099 0.80926,0.70878 8.59091,4.44598 17.85322,7.45856 27.24433,9.68794 9.32327,1.97688 18.96135,2.31917 28.43046,1.34348 0.91252,-0.1083 1.95297,-0.21313 2.63445,-0.89688 0.1366,-0.15859 0.28635,-0.31634 0.11054,-0.51242 z"
         id="path4957" />
      <path
         id="path4959"
         d="m -95.577673,185.01465 c -4.936507,-5.16393 -9.501567,-10.79282 -15.360137,-14.96887 -4.43114,-3.10196 -9.81776,-4.47303 -15.13222,-5.03784 -6.65058,-0.76732 -13.36348,-0.70092 -20.04064,-0.3886 7.97062,3.16978 16.26336,5.4363 24.26341,8.52688 5.16945,1.93325 10.2009,4.22156 15.09048,6.77909 3.64563,1.87306 7.274556,3.83592 11.181934,5.11876 z"
         style="fill:#10d910;fill-opacity:1;stroke:#10d910;stroke-width:0.13462071px;stroke-linecap:butt;stroke-linejoin:miter;stroke-opacity:1" />
      <path
         style="fill:#10d910;fill-opacity:1;stroke:#10d910;stroke-width:0.13462071px;stroke-linecap:butt;stroke-linejoin:miter;stroke-opacity:1"
         d="m -65.019009,204.50377 c -5.225026,-5.41425 -10.78993,-10.63227 -17.344616,-14.41048 -6.737915,-3.89031 -13.97924,-6.90101 -20.407485,-11.32364 -0.11943,-0.32909 -0.56191,0.21645 -0.21527,0.27352 6.402907,8.08192 15.348903,13.52403 22.58615,20.7602 3.175635,3.45227 7.99682,5.30373 12.667204,4.85146 0.939742,-0.0119 1.879488,-0.0239 2.819229,-0.0358 -0.03507,-0.0384 -0.07014,-0.0768 -0.105212,-0.11527 z"
         id="path4961" />
      <path
         style="fill:#10d910;fill-opacity:1;stroke:#10d910;stroke-width:0.11452833px;stroke-linecap:butt;stroke-linejoin:miter;stroke-opacity:1"
         d="m -70.612199,185.61566 c -5.736256,-1.79502 -11.55828,-3.34152 -17.162162,-5.53525 -3.470359,-1.32265 -6.849481,-2.87071 -10.18319,-4.50304 -3.192729,-1.41362 -6.580049,-2.40418 -10.046469,-2.84581 -0.0119,0.92667 1.00925,1.25393 1.54814,1.82816 4.78063,4.07798 9.788905,8.0898 15.676519,10.44787 6.013717,2.56522 12.987454,3.15904 19.220558,1.02263 0.311498,-0.12813 0.67019,-0.19894 0.947264,-0.37935 z"
         id="path4963" />
      <path
         style="fill:#10d910;fill-opacity:1;stroke:#10d910;stroke-width:0.13504916px;stroke-linecap:butt;stroke-linejoin:miter;stroke-opacity:1"
         d="m -81.227327,178.87745 c -4.359535,-2.6512 -9.312965,-4.17153 -13.578723,-6.99276 -3.756093,-2.17036 -7.50853,-4.6213 -11.84145,-5.4382 -4.05496,-0.69194 -8.15012,0.41485 -11.91283,1.8719 -0.92082,0.35636 -1.83607,0.72684 -2.75263,1.09394 0.34993,1.16506 1.67068,1.60305 2.76962,1.65584 7.90003,1.91533 14.65362,6.86055 22.518904,8.88267 4.854065,1.36283 10.209285,1.08541 14.805648,-1.03984 z"
         id="path4965" />
      <path
         style="fill:#10d910;fill-opacity:1;stroke:#10d910;stroke-width:0.15635361px;stroke-linecap:butt;stroke-linejoin:miter;stroke-opacity:1"
         d="m -92.724908,169.72044 c -2.22468,-3.05925 -5.510419,-5.05384 -8.457952,-7.33016 -4.16655,-2.9189 -9.17209,-4.92219 -14.32464,-4.72917 -7.53398,0.12734 -14.85359,2.3621 -21.75986,5.23325 -2.03636,0.869 -4.02747,1.84189 -5.97972,2.88564 -0.18773,0.57736 0.58983,0.79032 1.02128,0.69696 10.69527,1.46497 21.53178,1.53454 32.21561,3.09916 3.68687,0.53148 7.34545,1.35022 11.076812,1.50508 2.047912,0.0479 4.162902,-0.0693 6.083631,-0.8357 0.271426,-0.11878 0.379498,-0.29467 0.124839,-0.52506 z"
         id="path4967" />
      <path
         style="fill:#10d910;fill-opacity:1;stroke:#10d910;stroke-width:0.14367564px;stroke-linecap:butt;stroke-linejoin:miter;stroke-opacity:1"
         d="m -104.18786,157.22846 c -0.82811,-1.74936 -2.76863,-2.55087 -4.55109,-2.94651 -7.82409,-1.9808 -16.09892,-1.28296 -23.82594,0.79799 -6.54952,1.72766 -12.67147,4.80914 -18.30676,8.5279 -0.42139,0.0441 -0.21061,0.66431 0.13921,0.63582 1.13148,0.47214 2.38447,0.14028 3.56286,0.35368 8.872,0.5259 17.84823,0.38254 26.59607,-1.31822 4.90525,-0.99981 9.77467,-2.39846 14.25425,-4.66777 0.72062,-0.39479 1.49891,-0.77205 2.12398,-1.28199 0.0132,-0.0322 0.005,-0.0673 0.007,-0.1009 z"
         id="path4969" />
      <path
         style="fill:#10d910;fill-opacity:1;stroke:#10d910;stroke-width:0.14480095px;stroke-linecap:butt;stroke-linejoin:miter;stroke-opacity:1"
         d="m -116.06147,150.16646 c -1.38578,-1.13633 -3.28642,-0.98696 -4.9665,-1.00341 -10.28006,-0.0672 -20.70568,1.13016 -30.35534,4.82985 -4.92917,1.94167 -9.55848,4.6132 -13.77744,7.81153 -0.10437,0.42998 0.47929,0.49844 0.76519,0.3854 9.22181,0.28273 18.58124,0.31019 27.60133,-1.88664 7.42157,-1.79585 14.61867,-4.9144 20.57962,-9.7456 0.0869,-0.11011 0.16026,-0.24689 0.15314,-0.39113 z"
         id="path4971" />
      <path
         style="fill:#10d910;fill-opacity:1;stroke:#10d910;stroke-width:0.16170061px;stroke-linecap:butt;stroke-linejoin:miter;stroke-opacity:1"
         d="m -129.08831,144.64909 c -0.36202,-1.00425 -1.57887,-1.15483 -2.50371,-1.18338 -5.97767,-0.26555 -12.00695,0.0285 -17.88098,1.21042 -8.79423,1.99697 -16.74247,6.88627 -23.15168,13.14896 -0.85926,0.83379 -1.68659,1.69982 -2.50106,2.5772 0.77139,0.25564 1.60508,0.19798 2.40368,0.31312 6.63725,0.5163 13.33741,0.0356 19.86974,-1.21405 6.39683,-1.39367 12.39474,-4.41817 17.44795,-8.5635 2.22838,-1.71666 4.52766,-3.45071 6.18497,-5.75281 0.0798,-0.16711 0.15285,-0.34667 0.13109,-0.53596 z"
         id="path4973" />
      <path
         id="path4975"
         d="m -81.359726,205.2908 c -1.810583,-4.79572 -4.13175,-9.57277 -7.913073,-13.1357 -4.287965,-4.02012 -9.242002,-7.22881 -14.154591,-10.41977 -1.95144,-1.24719 -3.91318,-2.47817 -5.87554,-3.70807 6.23413,8.18357 14.2534,14.71333 21.706311,21.72268 1.61092,1.48073 3.105849,3.08118 4.67455,4.60395 0.462274,0.39425 0.950744,0.82814 1.519791,1.03112 0.03372,-0.0145 0.06538,-0.0582 0.04255,-0.0942 z"
         style="fill:#10d910;fill-opacity:1;stroke:#10d910;stroke-width:0.11386867px;stroke-linecap:butt;stroke-linejoin:miter;stroke-opacity:1" />
      <path
         id="path4977"
         d="m -88.385452,202.13999 c -1.78967,-5.83291 -5.566105,-10.79573 -9.672037,-15.20598 -4.823691,-5.08131 -9.925211,-10.07522 -16.113291,-13.47642 -2.09686,-1.1214 -4.32886,-1.97965 -6.61812,-2.61683 -0.39907,0.17137 0.0429,0.59173 0.19065,0.80319 3.61528,5.2031 8.30787,9.50708 12.66869,14.06153 6.1063,5.96591 13.042336,10.97577 19.550337,16.47774 z"
         style="fill:#10d910;fill-opacity:1;stroke:#10d910;stroke-width:0.13427129px;stroke-linecap:butt;stroke-linejoin:miter;stroke-opacity:1" />
      <path
         id="path4979"
         d="m -96.953752,197.1422 c -4.597478,-7.36865 -10.151118,-14.20273 -16.806128,-19.81168 -5.34572,-4.28811 -11.87303,-6.84471 -18.51391,-8.32056 -3.79406,-0.89929 -7.6377,-1.56481 -11.47195,-2.2652 5.0781,5.05962 11.27152,8.76094 17.23581,12.65706 8.51229,5.3653 16.76202,11.1741 25.64821,15.9235 1.28434,0.67488 2.548519,1.40077 3.906045,1.92236 0.01813,-0.0353 0.01067,-0.0697 0.0019,-0.10548 z"
         style="fill:#10d910;fill-opacity:1;stroke:#10d910;stroke-width:0.15545304px;stroke-linecap:butt;stroke-linejoin:miter;stroke-opacity:1" />
      <path
         id="path4981"
         d="m -109.30653,192.53497 c -3.97373,-7.39052 -9.91733,-13.77247 -17.18354,-18.00565 -6.06577,-3.52309 -12.91989,-5.40963 -19.79165,-6.58562 -1.71271,-0.30214 -3.42543,-0.60427 -5.13815,-0.90641 4.66751,5.44558 10.74172,9.40195 16.79627,13.12921 8.02308,4.75308 16.40264,8.89621 24.94781,12.61323 0.15116,0.0136 0.4306,-0.0276 0.36926,-0.24476 z"
         style="fill:#10d910;fill-opacity:1;stroke:#10d910;stroke-width:0.1428481px;stroke-linecap:butt;stroke-linejoin:miter;stroke-opacity:1" />
      <path
         id="path4983"
         d="m -120.84198,190.09789 c -2.2984,-4.1952 -5.89268,-7.45557 -9.42011,-10.60181 -6.12964,-5.19997 -13.68562,-8.41833 -21.40019,-10.44971 -4.50628,-1.18374 -9.10327,-1.98065 -13.71008,-2.65483 1.7456,2.68917 4.53814,4.39417 6.91978,6.45112 7.27025,5.57288 15.66169,9.43955 24.1663,12.72045 4.25101,1.5801 8.42593,3.40985 12.81893,4.57212 0.17629,-0.0114 0.61457,0.25989 0.62537,-0.0374 z"
         style="fill:#10d910;fill-opacity:1;stroke:#10d910;stroke-width:0.14396691px;stroke-linecap:butt;stroke-linejoin:miter;stroke-opacity:1" />
      <path
         id="path4985"
         d="m -132.92113,189.95685 c -1.7288,-3.31687 -4.37937,-6.016 -6.92062,-8.71412 -1.50353,-1.64252 -3.11141,-3.1912 -4.87727,-4.5515 -4.48151,-3.52522 -9.69829,-6.05763 -15.17051,-7.62427 -5.0149,-1.499 -10.26732,-2.15505 -15.49648,-2.06235 3.74548,5.44524 8.72575,9.9322 14.09148,13.73887 6.54565,4.43028 14.06128,7.2246 21.71907,9.03289 2.05231,0.53807 4.13363,1.02993 6.25926,1.14513 0.37152,-0.16082 0.73622,-0.58113 0.39507,-0.96465 z"
         style="fill:#10d910;fill-opacity:1;stroke:#10d910;stroke-width:0.16076924px;stroke-linecap:butt;stroke-linejoin:miter;stroke-opacity:1" />
    </g>
  </g>
</svg>
