<?xml version="1.0" encoding="UTF-8" standalone="no"?>
<svg
   xmlns:dc="http://purl.org/dc/elements/1.1/"
   xmlns:cc="http://creativecommons.org/ns#"
   xmlns:rdf="http://www.w3.org/1999/02/22-rdf-syntax-ns#"
   xmlns:svg="http://www.w3.org/2000/svg"
   xmlns="http://www.w3.org/2000/svg"
   id="svg8"
   version="1.1"
   viewBox="0 0 211.59001 247.8949"
   height="247.8949mm"
   width="211.59001mm">
  <defs
     id="defs2" />
  <metadata
     id="metadata5">
    <rdf:RDF>
      <cc:Work
         rdf:about="">
        <dc:format>image/svg+xml</dc:format>
        <dc:type
           rdf:resource="http://purl.org/dc/dcmitype/StillImage" />
        <dc:title></dc:title>
      </cc:Work>
    </rdf:RDF>
  </metadata>
  <g
     transform="translate(-393.07618,24.819434)"
     id="layer1">
    <g
       transform="translate(395.88559,-52.749718)"
       id="g4859">
      <g
         id="g4697"
         transform="rotate(31.486581,80.046538,133.72495)">
        <path
           id="path4648"
           d="m 128.71875,76.716797 c -0.7694,0.578294 -1.21996,1.518013 -1.55068,2.411044 -0.51563,1.612561 -0.85605,3.275433 -1.2934,4.910393 -2.5519,10.368598 -3.76187,21.159246 -2.62742,31.812566 0.6983,7.91291 2.35202,15.72942 4.75861,23.29568 4.53687,-8.8417 7.06614,-18.60978 8.16577,-28.45529 0.85813,-10.34622 -1.08626,-20.816729 -4.96983,-30.407326 -0.57725,-1.240954 -1.13442,-2.574417 -2.16338,-3.507124 -0.10161,-0.03868 -0.20943,-0.07498 -0.31967,-0.05994 z"
           style="fill:#57ed57;fill-opacity:1;stroke:#10d910;stroke-width:0.18616688px;stroke-linecap:butt;stroke-linejoin:miter;stroke-opacity:1" />
        <path
           style="fill:#57ed57;fill-opacity:1;stroke:#10d910;stroke-width:0.13462071px;stroke-linecap:butt;stroke-linejoin:miter;stroke-opacity:1"
           d="m 119.82812,42.037109 c -0.23367,10.571098 0.92312,21.109118 2.25557,31.578993 1.36007,9.297842 3.32424,18.492576 5.33623,27.667098 0.89838,-1.420005 0.64269,-3.180765 1.06662,-4.745313 2.42231,-17.302601 0.35323,-35.340421 -6.68464,-51.384433 -0.56555,-1.271951 -1.19396,-2.518704 -1.93471,-3.698376 -0.013,0.194011 -0.026,0.388021 -0.0391,0.582031 z"
           id="path4646" />
        <path
           id="path4522-7"
           d="m 103.20569,-4.4204084 c 0.88476,1.5380338 1.51661,3.1273802 1.89241,4.58171146 1.34708,5.21323354 2.04565,7.71831044 2.86422,12.39297494 1.7808,10.169768 5.48238,19.365672 9.12952,28.969897 1.88495,4.913526 3.76178,9.830206 5.64254,14.745356 0.61407,-11.301793 -1.3696,-22.544839 -3.90663,-33.513318 -2.46816,-10.586905 -8.98503,-23.32853782 -15.40917,-26.9715432 -0.0407,-0.08732 -0.0824,-0.2463396 -0.21289,-0.2050782 z"
           style="fill:#57ed57;fill-opacity:1;stroke:#10d910;stroke-width:0.13462071px;stroke-linecap:butt;stroke-linejoin:miter;stroke-opacity:1" />
        <path
           id="path4522-3"
           d="m 103.53711,12.539062 c -0.40114,4.545695 0.96551,8.975035 2.06365,13.329827 2.58372,9.409209 6.64036,18.347076 11.26217,26.91644 1.41936,2.603517 2.91023,5.167488 4.44762,7.702952 0.37953,-0.617927 -0.0234,-1.341409 0.0443,-2.007679 -0.96404,-10.283968 -4.37443,-20.190813 -8.87946,-29.433911 -2.71958,-5.637187 -5.78134,-11.100738 -8.92266,-16.511535 z"
           style="fill:#57ed57;fill-opacity:1;stroke:#10d910;stroke-width:0.11452833px;stroke-linecap:butt;stroke-linejoin:miter;stroke-opacity:1" />
        <path
           id="path4522-00"
           d="m 103.08594,27.066406 c 0.10659,4.058136 1.89131,7.783299 3.10276,11.586126 4.36507,12.47009 10.09807,24.590955 18.15672,35.12122 0.52478,0.681623 1.06112,1.354111 1.60185,2.023123 0.52814,-0.198076 0.13368,-0.826577 0.17015,-1.22517 -0.86655,-9.147846 -3.76499,-18.0008 -7.66625,-26.282985 -3.86439,-7.880741 -9.1868,-15.011891 -15.35351,-21.230126 z"
           style="fill:#57ed57;fill-opacity:1;stroke:#10d910;stroke-width:0.13504916px;stroke-linecap:butt;stroke-linejoin:miter;stroke-opacity:1" />
        <path
           id="path4522-02"
           d="m 104.9707,41.654297 c -0.008,4.053819 1.7863,7.779755 2.80753,11.627681 3.58932,11.787079 7.34739,23.658099 13.47441,34.416195 2.37396,4.143044 4.97806,8.14807 7.6165,12.126046 -0.85183,-14.358651 -4.31109,-28.692408 -11.11433,-41.424115 -3.41096,-6.125207 -7.69617,-11.755397 -12.64543,-16.718463 -0.0447,-0.01421 -0.0901,-0.03773 -0.13868,-0.02734 z"
           style="fill:#57ed57;fill-opacity:1;stroke:#10d910;stroke-width:0.15635361px;stroke-linecap:butt;stroke-linejoin:miter;stroke-opacity:1" />
        <path
           id="path4522-5"
           d="m 107.05664,58.980469 c -0.52262,2.360624 0.52626,4.648903 1.02824,6.913881 2.88967,10.893703 6.48465,21.762582 12.50416,31.368903 2.22211,3.534177 4.74064,6.872187 7.38166,10.101977 -0.44118,-12.199642 -3.46434,-24.429608 -9.60997,-35.035041 -2.9381,-5.002779 -6.60961,-9.622795 -11.09706,-13.32433 -0.0682,-0.01292 -0.1367,-0.03501 -0.20703,-0.02539 z"
           style="fill:#57ed57;fill-opacity:1;stroke:#10d910;stroke-width:0.14367564px;stroke-linecap:butt;stroke-linejoin:miter;stroke-opacity:1" />
        <path
           id="path4522-0"
           d="m 107.45508,73.111328 c -0.75552,1.037011 -0.27324,2.367416 0.018,3.480408 2.8063,10.866984 5.66716,21.866017 10.96668,31.834904 2.43122,4.56883 5.28746,8.91784 8.59733,12.89953 0.47698,0.22698 0.71056,-0.48079 0.5507,-0.83451 -0.19499,-2.13343 -0.24692,-4.27809 -0.50162,-6.40688 -0.96178,-9.39616 -3.40124,-18.743549 -8.00974,-27.035399 -2.90389,-5.274477 -6.65636,-10.154319 -11.40457,-13.897037 -0.0665,-0.03238 -0.143,-0.04867 -0.2168,-0.04102 z"
           style="fill:#57ed57;fill-opacity:1;stroke:#10d910;stroke-width:0.14480095px;stroke-linecap:butt;stroke-linejoin:miter;stroke-opacity:1" />
        <path
           id="path4522"
           d="m 105.48047,86.4375 c -0.97708,0.637661 -0.96054,1.989606 -0.67578,2.994141 1.45546,7.959051 3.02518,16.043239 6.69946,23.326409 3.54016,7.12668 8.59329,13.47117 14.62085,18.65406 0.50417,-1.38302 0.38806,-2.88935 0.41406,-4.33594 -0.0847,-4.3524 -0.4517,-8.71844 -1.46474,-12.96135 -1.37892,-5.9739 -3.87462,-11.73149 -7.61826,-16.610013 -3.20731,-4.307423 -7.06232,-8.217014 -11.65495,-11.037492 -0.10353,-0.03134 -0.2132,-0.0379 -0.32064,-0.02981 z"
           style="fill:#57ed57;fill-opacity:1;stroke:#10d910;stroke-width:0.16170061px;stroke-linecap:butt;stroke-linejoin:miter;stroke-opacity:1" />
        <path
           style="fill:#57ed57;fill-opacity:1;stroke:#10d910;stroke-width:0.11386867px;stroke-linecap:butt;stroke-linejoin:miter;stroke-opacity:1"
           d="m 120.77344,11.986328 c -1.77681,5.949492 -1.45651,12.242471 -1.03321,18.359375 0.90505,9.860609 3.62484,19.4226 6.1888,28.949193 0.13186,0.408271 0.28954,0.807445 0.44011,1.20901 1.08527,-2.050869 0.96741,-4.43913 1.41004,-6.659897 1.14685,-10.195889 -0.42745,-20.509041 -3.21869,-30.320595 -1.09007,-3.899972 -2.17955,-7.81637 -3.76947,-11.548805 z"
           id="path4634" />
        <path
           style="fill:#57ed57;fill-opacity:1;stroke:#10d910;stroke-width:0.13427129px;stroke-linecap:butt;stroke-linejoin:miter;stroke-opacity:1"
           d="m 128.13281,26.183594 c -2.0248,3.192099 -2.51235,7.021555 -3.16334,10.666986 -1.57262,10.120856 -0.76637,20.425136 0.60577,30.51875 0.37527,2.869049 0.78306,5.733683 1.18257,8.59942 1.0885,-1.370644 1.67705,-3.044579 2.4309,-4.604669 3.63504,-8.516909 4.34896,-18.023602 3.34625,-27.1548 -0.65596,-6.120215 -2.11992,-12.142614 -4.21074,-17.928031 -0.0449,-0.05534 -0.11133,-0.130046 -0.19141,-0.09766 z"
           id="path4636" />
        <path
           style="fill:#57ed57;fill-opacity:1;stroke:#10d910;stroke-width:0.15545304px;stroke-linecap:butt;stroke-linejoin:miter;stroke-opacity:1"
           d="m 134.35938,40.925781 c -2.0476,2.7285 -2.57457,6.183604 -3.45458,9.392753 -2.92553,11.992418 -3.03703,24.450343 -2.4133,36.713003 0.22527,4.129573 0.45525,8.258905 0.68233,12.388385 3.64615,-5.238688 5.5863,-11.412573 7.17837,-17.529657 2.79004,-12.298243 2.34186,-25.225921 -0.67159,-37.437922 -0.33973,-1.201551 -0.77091,-2.375578 -1.24897,-3.528515 l -0.0391,-0.0098 z"
           id="path4638" />
        <path
           style="fill:#57ed57;fill-opacity:1;stroke:#10d910;stroke-width:0.1428481px;stroke-linecap:butt;stroke-linejoin:miter;stroke-opacity:1"
           d="m 139.90234,58.480469 c -2.43281,2.690073 -3.51056,6.226387 -4.93555,9.485677 -2.9377,7.661172 -3.8105,15.916143 -4.1284,24.058785 -0.174,5.084274 -0.10915,10.172239 -0.0845,15.258269 5.36242,-6.26958 8.59563,-14.129426 10.15848,-22.173991 1.59085,-8.440434 1.60634,-17.192245 -0.0709,-25.619888 -0.1354,-0.459031 -0.33614,-0.930017 -0.72238,-1.233462 -0.0723,0.07487 -0.14453,0.14974 -0.2168,0.22461 z"
           id="path4640" />
        <path
           style="fill:#57ed57;fill-opacity:1;stroke:#10d910;stroke-width:0.14396691px;stroke-linecap:butt;stroke-linejoin:miter;stroke-opacity:1"
           d="m 144.50781,72.400391 c -1.98238,1.344324 -2.78166,3.708087 -3.96423,5.679362 -4.33493,7.966729 -6.45117,16.940209 -7.45028,25.899027 -0.76115,5.88631 -1.20519,11.81184 -1.38432,17.74388 2.98142,-2.85717 4.99578,-6.51431 7.03619,-10.05764 4.68326,-8.8473 6.77752,-18.910013 6.82286,-28.877943 0.10694,-3.394039 0.14759,-6.837855 -0.63639,-10.16403 -0.097,-0.131672 -0.25304,-0.241615 -0.42383,-0.222656 z"
           id="path4642" />
        <path
           style="fill:#57ed57;fill-opacity:1;stroke:#10d910;stroke-width:0.16076924px;stroke-linecap:butt;stroke-linejoin:miter;stroke-opacity:1"
           d="m 149.60938,85.919922 c -2.25986,1.073708 -3.48368,3.370014 -5.0693,5.180333 -4.5909,5.672325 -8.10965,12.301635 -9.68042,19.458225 -1.74586,6.82103 -2.43263,13.91525 -1.98857,20.94347 1.40909,-0.52584 2.20419,-1.89823 3.3497,-2.7911 6.54835,-6.47925 11.60842,-14.64738 13.67849,-23.678 1.24978,-5.839099 1.60289,-11.88216 0.95061,-17.819561 -0.157,-0.582242 -0.51763,-1.358353 -1.24051,-1.293367 z"
           id="path4644" />
      </g>
      <g
         transform="rotate(-59.899876,144.52026,153.53774)"
         id="g4729">
        <path
           style="fill:#57ed57;fill-opacity:1;stroke:#10d910;stroke-width:0.18616688px;stroke-linecap:butt;stroke-linejoin:miter;stroke-opacity:1"
           d="m 131.23438,75.962891 c -1.25399,0.752587 -1.5296,2.297988 -2.09889,3.530726 -1.65466,4.455022 -2.83933,9.064159 -4.11677,13.636036 -2.70335,10.947667 -2.38951,22.458787 -0.29347,33.480827 0.8081,4.24629 1.88355,8.44441 3.28061,12.536 1.65114,-2.63676 2.62519,-5.61431 3.72869,-8.50329 3.25623,-9.28539 5.09564,-19.11467 4.99494,-28.96941 -0.0835,-4.756745 -0.79806,-9.478372 -1.79776,-14.122215 -0.71064,-3.652752 -1.28652,-7.374906 -2.68501,-10.843561 -0.20236,-0.375028 -0.53619,-0.792522 -1.01234,-0.745113 z"
           id="path4699" />
        <path
           id="path4701"
           d="m 128.18555,39.410156 c -1.10539,2.293776 -0.99292,4.905482 -1.42561,7.362216 -1.74228,15.419109 -2.14043,31.072619 0.005,46.473435 0.3809,2.915975 0.83751,5.821434 1.32694,8.720993 2.33761,-8.130173 3.08509,-16.597612 3.77059,-24.9959 0.59196,-8.400759 0.41294,-16.88956 -1.04733,-25.197615 -0.62169,-3.974991 -1.2427,-7.958141 -2.15881,-11.876801 -0.0941,-0.19397 -0.21359,-0.496217 -0.4707,-0.486328 z"
           style="fill:#57ed57;fill-opacity:1;stroke:#10d910;stroke-width:0.13462071px;stroke-linecap:butt;stroke-linejoin:miter;stroke-opacity:1" />
        <path
           style="fill:#57ed57;fill-opacity:1;stroke:#10d910;stroke-width:0.13462071px;stroke-linecap:butt;stroke-linejoin:miter;stroke-opacity:1"
           d="m 131.1582,-8.9277344 c -1.06269,1.3381926 -0.94562,3.1423883 -1.3852,4.7136059 -1.14046,6.0835259 -2.21591,12.1803085 -3.18663,18.2930185 -1.43354,10.144744 -1.98888,20.529866 -0.26933,30.676625 0.55853,3.367027 1.30895,6.698108 2.07944,10.021829 1.26963,-5.247419 1.51758,-10.661384 2.18448,-16.00152 0.82816,-7.956376 1.73941,-15.907715 2.2897,-23.889478 0.39008,-7.3788689 0.21629,-14.82411978 -1.04984,-22.1164893 -0.13963,-0.5741894 -0.20069,-1.2518312 -0.5923,-1.7014973 l -0.0352,-0.00391 z"
           id="path4703" />
        <path
           style="fill:#57ed57;fill-opacity:1;stroke:#10d910;stroke-width:0.11452833px;stroke-linecap:butt;stroke-linejoin:miter;stroke-opacity:1"
           d="m 121.44922,10.863281 c -0.94673,1.790903 -0.62794,3.884002 -1.01434,5.810409 -0.76203,7.572195 -1.50561,15.268787 -0.23297,22.829855 1.16244,7.024835 3.62934,13.763937 6.59497,20.213252 0.50196,-0.441867 0.12223,-1.158415 0.29387,-1.717787 0.30996,-9.228174 -0.70206,-18.426485 -1.50521,-27.605031 -0.71001,-6.437158 -1.61016,-12.90693 -3.62262,-19.082791 -0.10195,-0.118628 -0.36667,-0.763144 -0.5137,-0.447907 z"
           id="path4705" />
        <path
           style="fill:#57ed57;fill-opacity:1;stroke:#10d910;stroke-width:0.13504916px;stroke-linecap:butt;stroke-linejoin:miter;stroke-opacity:1"
           d="m 117.08594,24.800781 c -1.01237,1.584969 -0.65636,3.543694 -0.87449,5.31688 -0.44399,10.370474 1.31523,20.851905 5.3162,30.440715 2.07586,5.168485 4.61982,10.141905 7.48407,14.916233 0.53863,-0.177057 0.20065,-0.836777 0.31188,-1.24121 0.48605,-12.263091 -1.99002,-24.487431 -6.06629,-36.010484 -1.4674,-4.028012 -2.9292,-8.07765 -4.89208,-11.896743 -0.30689,-0.49898 -0.53316,-1.09636 -0.98632,-1.47461 -0.0907,-0.0437 -0.19271,-0.06305 -0.29297,-0.05078 z"
           id="path4707" />
        <path
           style="fill:#57ed57;fill-opacity:1;stroke:#10d910;stroke-width:0.15635361px;stroke-linecap:butt;stroke-linejoin:miter;stroke-opacity:1"
           d="m 114.15039,39.753906 c -0.93632,0.960272 -0.6736,2.403173 -0.66619,3.616695 0.20654,6.907102 1.41521,13.727113 2.47181,20.540469 1.67651,9.367348 4.2587,18.653674 8.60345,27.156847 1.47141,2.942335 3.11261,5.798888 4.90538,8.557083 0.39072,-6.948419 -0.37283,-13.889147 -1.06993,-20.793173 -0.85293,-7.641974 -2.06347,-15.338979 -4.94707,-22.511525 -1.95427,-4.945699 -4.41154,-9.684225 -7.16268,-14.230458 -0.58813,-0.850406 -1.20972,-1.760416 -2.064,-2.339844 -0.0237,-5.86e-4 -0.0472,0.0026 -0.0708,0.0039 z"
           id="path4709" />
        <path
           style="fill:#57ed57;fill-opacity:1;stroke:#10d910;stroke-width:0.14367564px;stroke-linecap:butt;stroke-linejoin:miter;stroke-opacity:1"
           d="m 112.46875,57.460938 c -0.896,0.6503 -0.68986,1.880915 -0.60351,2.835318 0.46815,6.217502 1.66995,12.345332 2.67831,18.48931 1.90936,9.291186 6.01519,18.06378 11.52698,25.756174 0.6738,0.94959 1.41895,1.84526 2.15408,2.74732 0.31662,-1.55692 0.0268,-3.1484 0.0715,-4.72066 -0.35537,-9.565839 -1.94242,-19.105581 -4.90944,-28.212931 -1.99917,-5.679636 -5.02555,-11.026194 -9.02772,-15.534978 -0.53943,-0.521397 -1.10023,-1.103826 -1.81212,-1.361507 l -0.0484,0.0012 z"
           id="path4711" />
        <path
           style="fill:#57ed57;fill-opacity:1;stroke:#10d910;stroke-width:0.14480095px;stroke-linecap:butt;stroke-linejoin:miter;stroke-opacity:1"
           d="m 110.62891,72.136719 c -0.82591,0.723484 -0.51408,1.91317 -0.47229,2.86849 0.5014,5.845461 1.43376,11.653815 2.73527,17.37329 1.81864,7.060577 4.52992,13.895611 8.05753,20.276681 1.87774,3.28139 4.07399,6.38515 6.5955,9.2042 0.19048,-4.30669 -0.36478,-8.59848 -0.85674,-12.86762 -1.03667,-8.02098 -2.67215,-16.091046 -6.24485,-23.405246 -2.05564,-4.21932 -4.60889,-8.202708 -7.60563,-11.81466 -0.58693,-0.615772 -1.18262,-1.320029 -1.98722,-1.633579 -0.0733,-0.01178 -0.14798,-0.0071 -0.22157,-0.0016 z"
           id="path4713" />
        <path
           style="fill:#57ed57;fill-opacity:1;stroke:#10d910;stroke-width:0.16170061px;stroke-linecap:butt;stroke-linejoin:miter;stroke-opacity:1"
           d="m 106.97266,86.232422 c -0.88513,0.161054 -1.02108,1.228299 -1.0245,1.96929 -0.10225,3.711657 0.83195,7.336804 1.40731,10.977976 0.77063,4.171082 2.00805,8.254622 3.72555,12.134352 3.33272,7.7307 8.51407,14.64808 14.96148,20.05362 0.21071,0.33709 0.46459,0.14417 0.41516,-0.20122 0.34759,-2.53603 0.15248,-5.10442 0.0468,-7.65048 -0.50194,-7.62904 -2.17137,-15.26154 -5.55816,-22.14866 -1.71277,-3.36787 -4.05942,-6.375651 -6.70923,-9.055568 -1.99108,-2.121706 -3.9499,-4.35572 -6.44528,-5.89994 -0.25615,-0.114687 -0.53586,-0.197192 -0.81917,-0.17937 z"
           id="path4715" />
        <path
           id="path4717"
           d="m 136.58594,11.009766 c -1.32534,1.868669 -1.71656,4.179168 -2.60879,6.25184 -2.61143,7.387956 -4.50188,15.138954 -4.46705,23.016935 -0.11756,6.578349 0.66009,13.13538 1.71451,19.617943 0.44192,-0.605693 0.49871,-1.390814 0.78695,-2.069522 2.44603,-7.839196 3.31428,-16.05245 3.99464,-24.202452 0.51445,-6.582537 0.90422,-13.17558 1.16372,-19.772948 -0.005,-0.949475 0.0709,-1.949759 -0.24487,-2.854395 -0.0923,-0.203299 -0.24868,-0.206914 -0.33911,0.0126 z"
           style="fill:#57ed57;fill-opacity:1;stroke:#10d910;stroke-width:0.11386867px;stroke-linecap:butt;stroke-linejoin:miter;stroke-opacity:1" />
        <path
           id="path4719"
           d="m 138.92578,25.007812 c -1.54171,1.162003 -2.08223,3.121636 -2.94383,4.766968 -3.15178,6.195546 -5.16151,12.993557 -5.71704,19.930424 -0.76213,7.206328 -0.78659,14.462027 -0.88166,21.69987 0.008,1.417165 0.0624,2.833551 0.12456,4.249223 0.58286,-0.346198 0.70155,-1.088041 1.1284,-1.576319 4.85636,-8.04686 7.29113,-17.372076 7.95781,-26.697343 0.44685,-6.37217 0.46777,-12.764595 0.8295,-19.141001 0.007,-1.058989 0.11607,-2.202406 -0.32762,-3.182486 -0.0485,-0.03286 -0.11093,-0.05576 -0.17012,-0.04934 z"
           style="fill:#57ed57;fill-opacity:1;stroke:#10d910;stroke-width:0.13427129px;stroke-linecap:butt;stroke-linejoin:miter;stroke-opacity:1" />
        <path
           id="path4721"
           d="m 140.82617,39.732422 c -1.43999,1.094291 -1.77006,2.980225 -2.55166,4.510331 -3.19796,7.486242 -5.17833,15.441411 -6.39059,23.476527 -1.5901,9.601274 -2.29408,19.345377 -2.13023,29.075557 0.006,0.88489 0.0279,1.769583 0.0412,2.654382 0.39299,0.175051 0.43236,-0.424463 0.64899,-0.613092 4.59007,-7.115666 7.24983,-15.270946 9.16189,-23.464649 1.69825,-7.325633 2.38711,-14.865879 2.2542,-22.379045 0.007,-4.269754 0.22028,-8.582228 -0.50464,-12.808116 -0.0929,-0.214234 -0.25172,-0.495196 -0.52919,-0.451895 z"
           style="fill:#57ed57;fill-opacity:1;stroke:#10d910;stroke-width:0.15545304px;stroke-linecap:butt;stroke-linejoin:miter;stroke-opacity:1" />
        <path
           id="path4723"
           d="m 143.74609,57.404297 c -1.41807,0.815897 -1.87092,2.495759 -2.70686,3.795628 -3.05189,5.469532 -5.64051,11.255865 -7.02109,17.387622 -1.66476,7.007902 -2.38682,14.198055 -2.87556,21.371437 -0.13072,2.454466 -0.19809,4.913186 -0.1543,7.371096 0.66307,-0.32848 0.91992,-1.09031 1.43536,-1.58365 5.67122,-7.259069 8.949,-16.145004 10.44608,-25.173354 0.9737,-5.828235 1.4692,-11.727404 1.75676,-17.625511 0.0206,-1.730404 0.0893,-3.506349 -0.37062,-5.187799 -0.0947,-0.188453 -0.27364,-0.399595 -0.50977,-0.355469 z"
           style="fill:#57ed57;fill-opacity:1;stroke:#10d910;stroke-width:0.1428481px;stroke-linecap:butt;stroke-linejoin:miter;stroke-opacity:1" />
        <path
           id="path4725"
           d="m 146.20312,72.025391 c -1.27162,0.605795 -1.80788,2.011539 -2.58473,3.097195 -1.93351,3.191277 -3.79082,6.447238 -5.24468,9.888896 -2.7634,6.737654 -4.1854,13.925557 -5.35149,21.085198 -0.78839,5.2041 -1.29349,10.4591 -1.31519,15.72559 0.23266,0.2329 0.37043,-0.28273 0.54966,-0.38563 4.55386,-5.22333 7.85681,-11.43303 10.28983,-17.89302 2.20575,-6.0167 3.23841,-12.398451 3.64513,-18.774916 0.31301,-3.885894 0.82184,-7.779333 0.63591,-11.683831 -0.0538,-0.398552 -0.16419,-0.964434 -0.62444,-1.059482 z"
           style="fill:#57ed57;fill-opacity:1;stroke:#10d910;stroke-width:0.14396691px;stroke-linecap:butt;stroke-linejoin:miter;stroke-opacity:1" />
        <path
           id="path4727"
           d="m 150.14258,85.925781 c -1.41361,0.440772 -2.26965,1.743869 -3.22163,2.785542 -2.10978,2.543776 -4.10699,5.18423 -5.97377,7.910824 -4.90406,7.644573 -7.25762,16.665103 -8.03276,25.644803 -0.26522,3.0986 -0.35055,6.22881 -0.0394,9.32485 0.20576,0.26653 0.43062,-0.22204 0.62161,-0.30697 5.02862,-4.29932 9.20707,-9.57054 12.37818,-15.36996 2.952,-5.46591 4.9048,-11.53158 5.22165,-17.759011 0.25943,-3.545888 0.64163,-7.123389 0.21754,-10.671168 -0.0968,-0.614839 -0.38712,-1.6144 -1.1714,-1.55891 z"
           style="fill:#57ed57;fill-opacity:1;stroke:#10d910;stroke-width:0.16076924px;stroke-linecap:butt;stroke-linejoin:miter;stroke-opacity:1" />
      </g>
      <g
         id="g4761"
         transform="rotate(-149.70929,125.95987,150.05928)">
        <path
           id="path4731"
           d="m 132.4375,75.548828 c -0.98412,0.363811 -1.29694,1.47999 -1.73975,2.325581 -1.71338,3.9381 -2.89771,8.075004 -4.29363,12.129835 -1.32118,3.990966 -2.38163,8.081856 -2.87078,12.264036 -0.99138,7.99463 -0.3058,16.10654 1.11992,24.00513 0.82129,4.36032 1.88809,8.68187 3.3526,12.87307 1.03035,-1.48733 1.63189,-3.21379 2.35381,-4.86012 3.08521,-7.60285 5.07078,-15.64655 5.96539,-23.79988 0.7334,-7.07182 0.57706,-14.23758 -0.51026,-21.265109 -0.55468,-4.015868 -0.96879,-8.079913 -2.10989,-11.983432 -0.20809,-0.638505 -0.4916,-1.397141 -1.14436,-1.683251 -0.0408,-0.0093 -0.0817,-0.0082 -0.12305,-0.0059 z"
           style="fill:#57ed57;fill-opacity:1;stroke:#10d910;stroke-width:0.18616688px;stroke-linecap:butt;stroke-linejoin:miter;stroke-opacity:1" />
        <path
           style="fill:#57ed57;fill-opacity:1;stroke:#10d910;stroke-width:0.13462071px;stroke-linecap:butt;stroke-linejoin:miter;stroke-opacity:1"
           d="m 131.02148,38.683594 c -1.19104,1.685676 -1.23198,3.82731 -1.79683,5.748175 -1.7302,7.846282 -2.73574,15.870919 -2.67418,23.913319 -0.0824,10.9123 0.0201,21.868545 1.47937,32.700962 0.0428,0.30627 0.0856,0.61253 0.12836,0.91879 1.76982,-5.585031 2.78428,-11.37031 3.77375,-17.133745 1.25655,-7.685616 1.62025,-15.502339 1.26009,-23.277667 -0.254,-5.643759 -0.75225,-11.272699 -1.15493,-16.906944 -0.16795,-1.806952 -0.22399,-3.639946 -0.64095,-5.411532 -0.0741,-0.185069 -0.14701,-0.53442 -0.37468,-0.551358 z"
           id="path4733" />
        <path
           id="path4735"
           d="m 145.25391,-6.7832031 c -3.4048,2.527521 -5.6508,6.20858447 -7.9439,9.6956488 -3.17091,5.5911638 -4.47539,11.9488133 -6.3545,18.0317643 -2.47014,7.8575 -3.26124,16.253541 -2.18114,24.425034 0.30326,3.005406 0.65911,6.005677 1.08696,8.99599 1.92217,-7.757181 3.46373,-15.60193 5.29655,-23.38003 0.80772,-3.611548 1.76503,-7.187843 2.62103,-10.787217 1.27805,-6.097883 2.35264,-12.2800971 4.57382,-18.1268126 0.67381,-1.85240086 1.52189,-3.634277 2.28204,-5.4500806 0.3953,-1.0895676 0.69039,-2.228951 0.72656,-3.3925782 -0.0345,-0.00457 -0.0719,-0.028418 -0.10742,-0.011719 z"
           style="fill:#57ed57;fill-opacity:1;stroke:#10d910;stroke-width:0.13462071px;stroke-linecap:butt;stroke-linejoin:miter;stroke-opacity:1" />
        <path
           id="path4737"
           d="m 128.1582,10.601562 c -1.44919,2.065422 -1.59327,4.678345 -2.47744,6.983247 -1.69956,5.865551 -3.35431,11.898836 -3.01542,18.065561 0.25166,7.483214 2.06316,14.8391 4.6385,21.842749 0.279,0.715913 0.56758,1.428045 0.85241,2.141647 1.02212,-8.976787 0.84369,-18.026436 1.04701,-27.043868 0.0421,-5.602993 0.3605,-11.213744 -0.0127,-16.811784 -0.15798,-1.593642 -0.18784,-3.227573 -0.6847,-4.763489 -0.0994,-0.124934 -0.14578,-0.445381 -0.34766,-0.414063 z"
           style="fill:#57ed57;fill-opacity:1;stroke:#10d910;stroke-width:0.11452833px;stroke-linecap:butt;stroke-linejoin:miter;stroke-opacity:1" />
        <path
           id="path4739"
           d="m 121.17578,24.166016 c -1.13483,1.075968 -1.11861,2.746434 -1.42027,4.173608 -0.87129,5.694367 -0.56088,11.480346 -0.19483,17.203364 0.54837,6.356325 2.41199,12.536501 4.88521,18.394372 1.65854,3.888988 3.62343,7.642634 5.78653,11.273578 0.40055,-0.210863 0.0769,-0.731747 0.20652,-1.075192 0.36362,-8.990954 -0.8928,-17.939351 -2.19601,-26.811137 -1.1884,-7.008659 -3.41725,-13.778837 -5.56842,-20.53587 -0.33867,-0.914039 -0.71083,-1.877202 -1.33662,-2.618817 -0.0522,-0.01546 -0.11004,-0.02822 -0.16211,-0.0039 z"
           style="fill:#57ed57;fill-opacity:1;stroke:#10d910;stroke-width:0.13504916px;stroke-linecap:butt;stroke-linejoin:miter;stroke-opacity:1" />
        <path
           id="path4741"
           d="m 117.17969,38.771484 c -0.77734,0.474249 -0.71632,1.514369 -0.78516,2.3125 -0.55007,5.128078 0.0187,10.284631 0.43704,15.400497 1.05653,9.511039 3.10163,18.906662 5.96595,28.034542 1.70086,5.26245 3.80153,10.441769 6.806,15.105977 0.18295,-0.983618 0.14941,-1.995964 0.22526,-2.992568 0.21757,-5.208893 0.10625,-10.427348 -0.14512,-15.632803 -0.61684,-10.78938 -2.94122,-21.509956 -7.15322,-31.475349 -1.17033,-2.80563 -2.35915,-5.605634 -3.62248,-8.370311 -0.42161,-0.834385 -0.84663,-1.712373 -1.53296,-2.359047 -0.0606,-0.0242 -0.13062,-0.04144 -0.19531,-0.02344 z"
           style="fill:#57ed57;fill-opacity:1;stroke:#10d910;stroke-width:0.15635361px;stroke-linecap:butt;stroke-linejoin:miter;stroke-opacity:1" />
        <path
           id="path4743"
           d="m 114.53906,56.621094 c -0.65692,0.592011 -0.3855,1.562326 -0.42929,2.339854 0.14501,4.365872 0.99795,8.665194 1.39505,13.008673 0.80163,6.969775 2.01986,13.937735 4.40171,20.558083 1.88797,5.27763 4.54388,10.326756 8.18527,14.610966 0.0884,0.32306 0.3966,0.0671 0.27623,-0.17017 0.1593,-4.77636 -0.14975,-9.552487 -0.43963,-14.317966 -0.57814,-7.838642 -1.7421,-15.755651 -4.81572,-23.043857 -1.64349,-3.775124 -3.85256,-7.26846 -6.09315,-10.710193 -0.61365,-0.840603 -1.23461,-1.733158 -2.0918,-2.333984 -0.14195,-0.05048 -0.27775,-0.05956 -0.38867,0.05859 z"
           style="fill:#57ed57;fill-opacity:1;stroke:#10d910;stroke-width:0.14367564px;stroke-linecap:butt;stroke-linejoin:miter;stroke-opacity:1" />
        <path
           id="path4745"
           d="m 112.89453,71.080078 c -0.63401,0.374793 -0.48576,1.240483 -0.55289,1.870633 -0.0148,3.714811 0.52604,7.400284 0.79706,11.099017 0.42329,4.983323 0.90757,9.990374 2.19782,14.837568 1.9841,7.730704 5.66285,15.017124 10.66923,21.229594 0.51331,0.61789 1.04632,1.21908 1.59581,1.80499 0.1258,-3.12942 -0.20226,-6.25403 -0.47728,-9.36732 -0.73325,-6.96987 -1.81319,-13.914615 -3.4674,-20.728258 -1.20181,-4.786399 -2.93474,-9.470978 -5.50336,-13.700554 -1.34613,-2.330234 -2.62172,-4.752744 -4.47774,-6.72731 -0.21128,-0.186811 -0.48149,-0.388479 -0.78125,-0.31836 z"
           style="fill:#57ed57;fill-opacity:1;stroke:#10d910;stroke-width:0.14480095px;stroke-linecap:butt;stroke-linejoin:miter;stroke-opacity:1" />
        <path
           id="path4747"
           d="m 108.81836,85.179688 c -0.83128,0.218403 -0.99777,1.219895 -1.0602,1.954843 -0.39423,3.988906 0.11782,7.989204 0.3648,11.970976 0.35743,4.330693 1.38756,8.611213 3.14921,12.588373 3.25405,7.56839 8.40557,14.26899 14.67162,19.59247 0.23322,0.18696 0.53298,0.54775 0.49408,0.0238 0.38124,-2.6224 0.16929,-5.28193 0.0595,-7.91643 -0.55124,-8.55216 -2.72977,-17.04156 -6.68523,-24.661206 -1.51684,-2.888321 -3.47554,-5.506587 -5.43906,-8.100239 -1.39727,-1.872897 -2.82391,-3.78917 -4.70312,-5.206494 -0.2584,-0.141918 -0.54967,-0.274262 -0.85156,-0.246093 z"
           style="fill:#57ed57;fill-opacity:1;stroke:#10d910;stroke-width:0.16170061px;stroke-linecap:butt;stroke-linejoin:miter;stroke-opacity:1" />
        <path
           style="fill:#57ed57;fill-opacity:1;stroke:#10d910;stroke-width:0.11386867px;stroke-linecap:butt;stroke-linejoin:miter;stroke-opacity:1"
           d="m 143.06641,11.224609 c -1.28451,1.568877 -2.21033,3.431817 -3.04619,5.281838 -0.93703,2.135869 -1.82939,4.295046 -2.93063,6.35326 -2.81463,6.023449 -4.70675,12.537744 -5.03461,19.200538 -0.48069,5.792187 -0.19403,11.617431 0.34541,17.394833 3.20545,-7.668466 4.88952,-15.843759 6.69772,-23.922747 1.68512,-7.987679 3.2992,-16.014252 4.07566,-24.149016 0.004,-0.06251 -0.0226,-0.175307 -0.10736,-0.158706 z"
           id="path4749" />
        <path
           style="fill:#57ed57;fill-opacity:1;stroke:#10d910;stroke-width:0.13427129px;stroke-linecap:butt;stroke-linejoin:miter;stroke-opacity:1"
           d="m 143.26562,24.660156 c -2.08396,2.04516 -3.24098,4.77992 -4.85353,7.170263 -3.62267,6.195334 -5.82841,13.158874 -6.78002,20.25719 -1.21468,7.649322 -1.16376,15.423602 -0.99145,23.144813 0.7891,-0.653974 1.07767,-1.687281 1.65525,-2.503334 4.39168,-7.813582 6.77648,-16.57015 8.33576,-25.345196 1.01814,-6.164925 1.81917,-12.363045 2.81026,-18.532219 0.16682,-1.293008 0.42314,-2.600602 0.32569,-3.906361 -0.044,-0.261753 -0.2521,-0.694465 -0.50196,-0.285156 z"
           id="path4751" />
        <path
           style="fill:#57ed57;fill-opacity:1;stroke:#10d910;stroke-width:0.15545304px;stroke-linecap:butt;stroke-linejoin:miter;stroke-opacity:1"
           d="m 143.73828,38.806641 c -1.49729,1.136415 -2.05085,3.016242 -2.96422,4.58026 -3.05316,6.121544 -5.67456,12.528533 -6.93565,19.279354 -1.4039,6.966459 -2.15053,14.041572 -2.9704,21.094129 -0.55554,5.264083 -0.97617,10.551931 -0.93832,15.848991 0.62134,-0.519988 0.8901,-1.323969 1.38263,-1.95113 5.08914,-8.109756 8.36503,-17.263044 10.2515,-26.62211 1.61085,-8.413975 1.85514,-16.999624 2.59184,-25.51419 0.1287,-2.117879 0.2831,-4.260477 0.0475,-6.371554 -0.0743,-0.185502 -0.2408,-0.389082 -0.46484,-0.34375 z"
           id="path4753" />
        <path
           style="fill:#57ed57;fill-opacity:1;stroke:#10d910;stroke-width:0.1428481px;stroke-linecap:butt;stroke-linejoin:miter;stroke-opacity:1"
           d="m 145.26367,56.644531 c -1.25597,0.658708 -1.75948,2.076854 -2.50831,3.194073 -1.89725,3.326503 -3.70717,6.719645 -5.12228,10.282733 -2.67429,6.919136 -4.18811,14.219181 -5.38794,21.519208 -0.81024,5.191719 -1.35494,10.442625 -1.251,15.703205 0.38373,-0.0677 0.50953,-0.55563 0.79811,-0.788 4.16107,-5.07677 7.17473,-11.003971 9.44892,-17.136272 2.34095,-6.43216 3.58857,-13.219447 4.10505,-20.032415 0.35981,-3.893189 0.81377,-7.807631 0.55808,-11.721047 -0.0646,-0.384684 -0.1898,-0.946972 -0.64063,-1.021485 z"
           id="path4755" />
        <path
           style="fill:#57ed57;fill-opacity:1;stroke:#10d910;stroke-width:0.14396691px;stroke-linecap:butt;stroke-linejoin:miter;stroke-opacity:1"
           d="m 147.16602,71.482422 c -1.21071,0.777702 -1.75717,2.178082 -2.56488,3.308644 -2.65058,4.323556 -5.20691,8.743206 -6.97179,13.5144 -3.11803,8.175043 -4.74652,16.849764 -5.54309,25.541044 -0.2338,2.66753 -0.36861,5.34455 -0.37142,8.02263 0.28718,0.10145 0.38382,-0.37643 0.603,-0.50796 4.81516,-5.54544 8.22837,-12.18292 10.68021,-19.07212 2.18471,-6.282515 3.42144,-12.851639 4.19381,-19.445676 0.46022,-3.507295 1.0025,-7.041494 0.80228,-10.587525 -0.0435,-0.351636 -0.24252,-0.971953 -0.68239,-0.853717 -0.0486,0.02676 -0.0972,0.05352 -0.14573,0.08028 z"
           id="path4757" />
        <path
           style="fill:#57ed57;fill-opacity:1;stroke:#10d910;stroke-width:0.16076924px;stroke-linecap:butt;stroke-linejoin:miter;stroke-opacity:1"
           d="m 150.85352,85.410156 c -1.73197,0.626012 -2.72199,2.291249 -3.91603,3.583072 -3.36587,4.116497 -6.77027,8.302554 -8.98372,13.179422 -3.35702,7.20666 -4.84138,15.15665 -5.23074,23.05879 -0.0852,2.12031 -0.0498,4.24728 0.15197,6.36036 0.45222,0.13769 0.62665,-0.46854 0.98375,-0.62732 6.16072,-5.42368 11.18723,-12.22018 14.20417,-19.87564 1.84799,-4.7663 2.82758,-9.82995 3.24233,-14.913916 0.35664,-3.268138 0.87736,-6.573533 0.48933,-9.861018 -0.10638,-0.427913 -0.41663,-0.995505 -0.94106,-0.90375 z"
           id="path4759" />
      </g>
      <g
         transform="rotate(122.99523,120.05687,149.94458)"
         id="g4793">
        <path
           style="fill:#57ed57;fill-opacity:1;stroke:#10d910;stroke-width:0.18616688px;stroke-linecap:butt;stroke-linejoin:miter;stroke-opacity:1"
           d="m 136.13477,79.201172 c -2.15531,1.167021 -3.32444,3.431776 -4.53574,5.454619 -4.56586,7.815925 -7.19114,16.727259 -7.80837,25.747139 -0.58051,8.88564 0.98617,17.77382 3.48234,26.27618 0.20432,0.69955 0.31565,1.48712 0.7134,2.0906 0.46027,0.0939 0.48068,-0.562 0.67858,-0.83475 4.12742,-8.74842 6.79775,-18.11513 8.68068,-27.58179 1.63309,-9.3896 1.62113,-19.033742 0.29828,-28.460629 -0.14174,-0.907924 -0.28472,-1.943817 -0.99304,-2.599723 -0.1635,-0.130685 -0.32664,-0.274544 -0.51613,-0.09165 z"
           id="path4763" />
        <path
           id="path4765"
           d="m 148.03711,51.251953 c -4.97912,5.122859 -10.43653,9.891592 -14.39456,15.899601 -2.93711,4.542083 -4.1094,9.975435 -4.47862,15.307049 -0.52251,6.674285 -0.20958,13.380213 0.34779,20.041397 2.87486,-8.081677 4.83525,-16.452071 7.62989,-24.560239 1.74207,-5.236975 3.84402,-10.349084 6.22022,-15.329305 1.73789,-3.711973 3.56613,-7.410547 4.70458,-11.362409 z"
           style="fill:#57ed57;fill-opacity:1;stroke:#10d910;stroke-width:0.13462071px;stroke-linecap:butt;stroke-linejoin:miter;stroke-opacity:1" />
        <path
           style="fill:#57ed57;fill-opacity:1;stroke:#10d910;stroke-width:0.13462071px;stroke-linecap:butt;stroke-linejoin:miter;stroke-opacity:1"
           d="m 166.39062,19.998047 c -5.21867,5.420373 -10.22877,11.173188 -13.76366,17.862229 -3.6402,6.876265 -6.38288,14.223291 -10.56641,20.809646 -0.32448,0.131436 0.23695,0.553585 0.28125,0.205078 7.84127,-6.695445 12.95111,-15.835301 19.91657,-23.333459 3.33329,-3.300299 5.00641,-8.186237 4.3829,-12.836857 -0.0464,-0.938671 -0.0929,-1.877342 -0.13932,-2.816012 -0.0371,0.03646 -0.0742,0.07292 -0.11133,0.109375 z"
           id="path4767" />
        <path
           style="fill:#57ed57;fill-opacity:1;stroke:#10d910;stroke-width:0.11452833px;stroke-linecap:butt;stroke-linejoin:miter;stroke-opacity:1"
           d="m 147.7207,26.28125 c -1.58311,5.798319 -2.91471,11.673219 -4.90112,17.353898 -1.19429,3.5166 -2.61718,6.950304 -4.12596,10.341721 -1.29539,3.242503 -2.16086,6.663921 -2.47487,10.144225 0.92648,-0.02212 1.21601,-1.054633 1.77006,-1.614251 3.89963,-4.927192 7.72478,-10.079449 9.865,-16.049705 2.3426,-6.103883 2.67986,-13.094726 0.31594,-19.24515 -0.13948,-0.306582 -0.22342,-0.662431 -0.41389,-0.932691 z"
           id="path4769" />
        <path
           style="fill:#57ed57;fill-opacity:1;stroke:#10d910;stroke-width:0.13504916px;stroke-linecap:butt;stroke-linejoin:miter;stroke-opacity:1"
           d="m 141.37695,37.136719 c -2.48928,4.453975 -3.82664,9.459906 -6.48928,13.826414 -2.03093,3.833278 -4.34238,7.673208 -4.99958,12.033208 -0.54252,4.077639 0.71394,8.129388 2.30822,11.83604 0.38994,0.90711 0.79379,1.808129 1.19431,2.710588 1.15142,-0.392486 1.5406,-1.728438 1.55299,-2.82857 1.62386,-7.965054 6.31767,-14.895732 8.04952,-22.829984 1.18361,-4.900848 0.70968,-10.242264 -1.58297,-14.757462 z"
           id="path4771" />
        <path
           style="fill:#57ed57;fill-opacity:1;stroke:#10d910;stroke-width:0.15635361px;stroke-linecap:butt;stroke-linejoin:miter;stroke-opacity:1"
           d="m 132.64844,48.962891 c -2.97547,2.335549 -4.84803,5.692335 -7.01454,8.721491 -2.76389,4.270954 -4.58197,9.346697 -4.19982,14.488682 0.40399,7.524224 2.9061,14.756801 6.02899,21.552948 0.94321,2.00307 1.98858,3.9571 3.10334,5.869691 0.58386,0.166397 0.76812,-0.618458 0.65898,-1.046187 1.07112,-10.741866 0.74261,-21.573613 1.91374,-32.307704 0.3957,-3.703902 1.0795,-7.390094 1.0972,-11.124624 -0.0274,-2.048287 -0.2222,-4.157545 -1.0586,-6.048829 -0.12867,-0.266879 -0.30841,-0.368418 -0.52929,-0.105468 z"
           id="path4773" />
        <path
           style="fill:#57ed57;fill-opacity:1;stroke:#10d910;stroke-width:0.14367564px;stroke-linecap:butt;stroke-linejoin:miter;stroke-opacity:1"
           d="m 120.58594,60.876953 c -1.71776,0.891811 -2.44745,2.86046 -2.77735,4.65625 -1.69208,7.891567 -0.69076,16.135179 1.67261,23.780549 1.96706,6.481639 5.27133,12.486278 9.19458,17.981168 0.0595,0.41949 0.67159,0.18607 0.63027,-0.16247 0.43026,-1.14806 0.0526,-2.38802 0.22258,-3.57345 0.19966,-8.885326 -0.27331,-17.850237 -2.29425,-26.529703 -1.17931,-4.865214 -2.75587,-9.679978 -5.18819,-14.073171 -0.421,-0.705636 -0.82659,-1.469542 -1.35915,-2.075465 -0.0327,-0.01197 -0.0674,-0.0026 -0.1011,-0.0037 z"
           id="path4775" />
        <path
           style="fill:#57ed57;fill-opacity:1;stroke:#10d910;stroke-width:0.14480095px;stroke-linecap:butt;stroke-linejoin:miter;stroke-opacity:1"
           d="m 113.96484,73.001953 c -1.08466,1.426579 -0.86558,3.320453 -0.82031,5 0.31046,10.275594 1.88995,20.650195 5.94159,30.157447 2.12141,4.85453 4.96118,9.38258 8.31232,13.48122 0.43353,0.0885 0.4805,-0.49728 0.35704,-0.77883 -0.0562,-9.22597 -0.37254,-18.5801 -2.89921,-27.513407 -2.06724,-7.350597 -5.44805,-14.428297 -10.49494,-20.207758 -0.11323,-0.08284 -0.25261,-0.151087 -0.39649,-0.138672 z"
           id="path4777" />
        <path
           style="fill:#57ed57;fill-opacity:1;stroke:#10d910;stroke-width:0.16170061px;stroke-linecap:butt;stroke-linejoin:miter;stroke-opacity:1"
           d="m 108.92969,86.222656 c -0.99028,0.398669 -1.09606,1.620227 -1.09062,2.545492 -0.0458,5.983394 0.46954,11.997802 1.8664,17.824452 2.31864,8.71494 7.4966,16.47823 13.99048,22.65308 0.86479,0.82805 1.76062,1.62301 2.66733,2.40471 0.22713,-0.78026 0.13889,-1.61127 0.22461,-2.41356 0.27216,-6.65174 -0.45432,-13.32972 -1.94307,-19.81174 -1.62769,-6.34132 -4.87046,-12.224094 -9.19861,-17.121629 -1.79735,-2.163818 -3.61469,-4.39785 -5.97611,-5.969489 -0.16993,-0.07365 -0.35205,-0.140014 -0.54041,-0.111316 z"
           id="path4779" />
        <path
           id="path4781"
           d="m 167.77734,36.298828 c -4.72598,1.985515 -9.41455,4.480584 -12.83618,8.390226 -3.85991,4.432737 -6.88446,9.50129 -9.89282,14.527777 -1.17467,1.995931 -2.33276,4.00156 -3.48975,6.007778 7.94906,-6.530524 14.17985,-14.784228 20.91071,-22.489572 1.42056,-1.664223 2.96502,-3.21693 4.42914,-4.840506 0.37701,-0.476443 0.79266,-0.980521 0.97461,-1.55664 -0.0157,-0.03317 -0.0606,-0.0632 -0.0957,-0.03906 z"
           style="fill:#57ed57;fill-opacity:1;stroke:#10d910;stroke-width:0.11386867px;stroke-linecap:butt;stroke-linejoin:miter;stroke-opacity:1" />
        <path
           id="path4783"
           d="m 164.88672,43.435547 c -5.76324,2.002713 -10.584,5.958892 -14.84045,10.224047 -4.9007,5.007076 -9.70386,10.288588 -12.87547,16.597426 -1.04362,2.136633 -1.8193,4.398654 -2.37197,6.709777 0.18592,0.392502 0.58976,-0.06461 0.79565,-0.220028 5.06679,-3.803956 9.1955,-8.651476 13.5867,-13.176643 5.73759,-6.321313 10.4893,-13.436687 15.74851,-20.142392 z"
           style="fill:#57ed57;fill-opacity:1;stroke:#10d910;stroke-width:0.13427129px;stroke-linecap:butt;stroke-linejoin:miter;stroke-opacity:1" />
        <path
           id="path4785"
           d="m 160.20703,52.181641 c -7.19481,4.865035 -13.82029,10.665955 -19.181,17.522496 -4.08886,5.499623 -6.40398,12.11644 -7.63491,18.807043 -0.75932,3.82453 -1.28321,7.690023 -1.84229,11.54741 4.86968,-5.260518 8.34101,-11.585713 12.01543,-17.689084 5.04901,-8.703625 10.55086,-17.16115 14.97066,-26.215795 0.62725,-1.308265 1.30621,-2.598254 1.77758,-3.974023 -0.0359,-0.01682 -0.07,-0.0081 -0.10547,0.002 z"
           style="fill:#57ed57;fill-opacity:1;stroke:#10d910;stroke-width:0.15545304px;stroke-linecap:butt;stroke-linejoin:miter;stroke-opacity:1" />
        <path
           id="path4787"
           d="m 156.05664,64.695312 c -7.23957,4.242509 -13.3989,10.416524 -17.36232,17.833315 -3.29791,6.191087 -4.93142,13.109876 -5.8542,20.020193 -0.23903,1.72266 -0.47805,3.44532 -0.71707,5.16798 5.27046,-4.86438 9.00105,-11.079816 12.5034,-17.267195 4.45517,-8.192253 8.28771,-16.718337 11.68835,-25.39427 0.008,-0.151555 -0.0434,-0.429302 -0.25816,-0.360023 z"
           style="fill:#57ed57;fill-opacity:1;stroke:#10d910;stroke-width:0.1428481px;stroke-linecap:butt;stroke-linejoin:miter;stroke-opacity:1" />
        <path
           id="path4789"
           d="m 154.04492,76.3125 c -4.10795,2.450936 -7.23409,6.162555 -10.24864,9.803171 -4.97131,6.3165 -7.90996,13.985599 -9.6566,21.769579 -1.01742,4.54672 -1.64494,9.16988 -2.14945,13.79834 2.62324,-1.8432 4.22451,-4.69648 6.19259,-7.15207 5.30208,-7.47004 8.85791,-15.997841 11.82421,-24.617225 1.42288,-4.30618 3.09805,-8.545499 4.09817,-12.97822 -0.0179,-0.175756 0.23714,-0.623704 -0.0603,-0.623575 z"
           style="fill:#57ed57;fill-opacity:1;stroke:#10d910;stroke-width:0.14396691px;stroke-linecap:butt;stroke-linejoin:miter;stroke-opacity:1" />
        <path
           id="path4791"
           d="m 154.34766,88.388672 c -3.25113,1.849468 -5.85108,4.597395 -8.45404,7.236034 -1.58618,1.562852 -3.07476,3.226531 -4.36928,5.041164 -3.35823,4.60797 -5.69731,9.91425 -7.06189,15.44032 -1.31378,5.06658 -1.77646,10.33955 -1.49175,15.56178 5.30399,-3.94297 9.60499,-9.08469 13.212,-14.58662 4.18686,-6.70396 6.70323,-14.31716 8.22902,-22.036206 0.46232,-2.070691 0.8774,-4.168671 0.91445,-6.297097 -0.17436,-0.365364 -0.60778,-0.714379 -0.97851,-0.359375 z"
           style="fill:#57ed57;fill-opacity:1;stroke:#10d910;stroke-width:0.16076924px;stroke-linecap:butt;stroke-linejoin:miter;stroke-opacity:1" />
      </g>
    </g>
  </g>
</svg>
